G04 #@! TF.FileFunction,Legend,Top*
%FSLAX46Y46*%
G04 Gerber Fmt 4.6, Leading zero omitted, Abs format (unit mm)*
G04 Created by KiCad (PCBNEW 4.0.5) date 2017 January 23, Monday 23:43:52*
%MOMM*%
%LPD*%
G01*
G04 APERTURE LIST*
%ADD10C,0.020000*%
%ADD11C,0.200000*%
%ADD12C,0.150000*%
%ADD13C,0.120000*%
G04 APERTURE END LIST*
D10*
D11*
X90455715Y-105227381D02*
X89884286Y-105227381D01*
X90170000Y-105227381D02*
X90170000Y-104227381D01*
X90074762Y-104370238D01*
X89979524Y-104465476D01*
X89884286Y-104513095D01*
X146335715Y-105227381D02*
X145764286Y-105227381D01*
X146050000Y-105227381D02*
X146050000Y-104227381D01*
X145954762Y-104370238D01*
X145859524Y-104465476D01*
X145764286Y-104513095D01*
X132365715Y-105227381D02*
X131794286Y-105227381D01*
X132080000Y-105227381D02*
X132080000Y-104227381D01*
X131984762Y-104370238D01*
X131889524Y-104465476D01*
X131794286Y-104513095D01*
X105060715Y-100782381D02*
X104489286Y-100782381D01*
X104775000Y-100782381D02*
X104775000Y-99782381D01*
X104679762Y-99925238D01*
X104584524Y-100020476D01*
X104489286Y-100068095D01*
X131889524Y-143962381D02*
X131318095Y-143962381D01*
X131603809Y-143962381D02*
X131603809Y-142962381D01*
X131508571Y-143105238D01*
X131413333Y-143200476D01*
X131318095Y-143248095D01*
X132794286Y-142962381D02*
X132318095Y-142962381D01*
X132270476Y-143438571D01*
X132318095Y-143390952D01*
X132413333Y-143343333D01*
X132651429Y-143343333D01*
X132746667Y-143390952D01*
X132794286Y-143438571D01*
X132841905Y-143533810D01*
X132841905Y-143771905D01*
X132794286Y-143867143D01*
X132746667Y-143914762D01*
X132651429Y-143962381D01*
X132413333Y-143962381D01*
X132318095Y-143914762D01*
X132270476Y-143867143D01*
X160305715Y-105227381D02*
X159734286Y-105227381D01*
X160020000Y-105227381D02*
X160020000Y-104227381D01*
X159924762Y-104370238D01*
X159829524Y-104465476D01*
X159734286Y-104513095D01*
X132365715Y-108402381D02*
X131794286Y-108402381D01*
X132080000Y-108402381D02*
X132080000Y-107402381D01*
X131984762Y-107545238D01*
X131889524Y-107640476D01*
X131794286Y-107688095D01*
X118395715Y-105227381D02*
X117824286Y-105227381D01*
X118110000Y-105227381D02*
X118110000Y-104227381D01*
X118014762Y-104370238D01*
X117919524Y-104465476D01*
X117824286Y-104513095D01*
X104425715Y-105227381D02*
X103854286Y-105227381D01*
X104140000Y-105227381D02*
X104140000Y-104227381D01*
X104044762Y-104370238D01*
X103949524Y-104465476D01*
X103854286Y-104513095D01*
D12*
X130810000Y-109220000D02*
X130810000Y-144780000D01*
X130810000Y-144780000D02*
X133350000Y-144780000D01*
X133350000Y-144780000D02*
X133350000Y-109220000D01*
X133630000Y-106400000D02*
X133630000Y-107950000D01*
X133350000Y-109220000D02*
X130810000Y-109220000D01*
X130530000Y-107950000D02*
X130530000Y-106400000D01*
X130530000Y-106400000D02*
X133630000Y-106400000D01*
X144780000Y-109220000D02*
X144780000Y-144780000D01*
X144780000Y-144780000D02*
X147320000Y-144780000D01*
X147320000Y-144780000D02*
X147320000Y-109220000D01*
X147600000Y-106400000D02*
X147600000Y-107950000D01*
X147320000Y-109220000D02*
X144780000Y-109220000D01*
X144500000Y-107950000D02*
X144500000Y-106400000D01*
X144500000Y-106400000D02*
X147600000Y-106400000D01*
X102870000Y-109220000D02*
X102870000Y-144780000D01*
X102870000Y-144780000D02*
X105410000Y-144780000D01*
X105410000Y-144780000D02*
X105410000Y-109220000D01*
X105690000Y-106400000D02*
X105690000Y-107950000D01*
X105410000Y-109220000D02*
X102870000Y-109220000D01*
X102590000Y-107950000D02*
X102590000Y-106400000D01*
X102590000Y-106400000D02*
X105690000Y-106400000D01*
X91440000Y-109093000D02*
X91440000Y-137033000D01*
X91440000Y-137033000D02*
X88900000Y-137033000D01*
X88900000Y-137033000D02*
X88900000Y-109093000D01*
X91720000Y-106273000D02*
X91720000Y-107823000D01*
X91440000Y-109093000D02*
X88900000Y-109093000D01*
X88620000Y-107823000D02*
X88620000Y-106273000D01*
X88620000Y-106273000D02*
X91720000Y-106273000D01*
X116840000Y-109220000D02*
X116840000Y-144780000D01*
X116840000Y-144780000D02*
X119380000Y-144780000D01*
X119380000Y-144780000D02*
X119380000Y-109220000D01*
X119660000Y-106400000D02*
X119660000Y-107950000D01*
X119380000Y-109220000D02*
X116840000Y-109220000D01*
X116560000Y-107950000D02*
X116560000Y-106400000D01*
X116560000Y-106400000D02*
X119660000Y-106400000D01*
X158750000Y-109220000D02*
X158750000Y-144780000D01*
X158750000Y-144780000D02*
X161290000Y-144780000D01*
X161290000Y-144780000D02*
X161290000Y-109220000D01*
X161570000Y-106400000D02*
X161570000Y-107950000D01*
X161290000Y-109220000D02*
X158750000Y-109220000D01*
X158470000Y-107950000D02*
X158470000Y-106400000D01*
X158470000Y-106400000D02*
X161570000Y-106400000D01*
X97819160Y-130159760D02*
X97770900Y-130159760D01*
X95020180Y-130860800D02*
X95020180Y-130159760D01*
X95020180Y-130159760D02*
X95269100Y-130159760D01*
X97819160Y-130159760D02*
X98019820Y-130159760D01*
X98019820Y-130159760D02*
X98019820Y-130860800D01*
X125759160Y-130159760D02*
X125710900Y-130159760D01*
X122960180Y-130860800D02*
X122960180Y-130159760D01*
X122960180Y-130159760D02*
X123209100Y-130159760D01*
X125759160Y-130159760D02*
X125959820Y-130159760D01*
X125959820Y-130159760D02*
X125959820Y-130860800D01*
X153699160Y-130159760D02*
X153650900Y-130159760D01*
X150900180Y-130860800D02*
X150900180Y-130159760D01*
X150900180Y-130159760D02*
X151149100Y-130159760D01*
X153699160Y-130159760D02*
X153899820Y-130159760D01*
X153899820Y-130159760D02*
X153899820Y-130860800D01*
X97819160Y-135239760D02*
X97770900Y-135239760D01*
X95020180Y-135940800D02*
X95020180Y-135239760D01*
X95020180Y-135239760D02*
X95269100Y-135239760D01*
X97819160Y-135239760D02*
X98019820Y-135239760D01*
X98019820Y-135239760D02*
X98019820Y-135940800D01*
X125759160Y-135239760D02*
X125710900Y-135239760D01*
X122960180Y-135940800D02*
X122960180Y-135239760D01*
X122960180Y-135239760D02*
X123209100Y-135239760D01*
X125759160Y-135239760D02*
X125959820Y-135239760D01*
X125959820Y-135239760D02*
X125959820Y-135940800D01*
X97819160Y-125079760D02*
X97770900Y-125079760D01*
X95020180Y-125780800D02*
X95020180Y-125079760D01*
X95020180Y-125079760D02*
X95269100Y-125079760D01*
X97819160Y-125079760D02*
X98019820Y-125079760D01*
X98019820Y-125079760D02*
X98019820Y-125780800D01*
X97819160Y-119999760D02*
X97770900Y-119999760D01*
X95020180Y-120700800D02*
X95020180Y-119999760D01*
X95020180Y-119999760D02*
X95269100Y-119999760D01*
X97819160Y-119999760D02*
X98019820Y-119999760D01*
X98019820Y-119999760D02*
X98019820Y-120700800D01*
X125759160Y-119999760D02*
X125710900Y-119999760D01*
X122960180Y-120700800D02*
X122960180Y-119999760D01*
X122960180Y-119999760D02*
X123209100Y-119999760D01*
X125759160Y-119999760D02*
X125959820Y-119999760D01*
X125959820Y-119999760D02*
X125959820Y-120700800D01*
X153699160Y-119999760D02*
X153650900Y-119999760D01*
X150900180Y-120700800D02*
X150900180Y-119999760D01*
X150900180Y-119999760D02*
X151149100Y-119999760D01*
X153699160Y-119999760D02*
X153899820Y-119999760D01*
X153899820Y-119999760D02*
X153899820Y-120700800D01*
X139729160Y-126349760D02*
X139680900Y-126349760D01*
X136930180Y-127050800D02*
X136930180Y-126349760D01*
X136930180Y-126349760D02*
X137179100Y-126349760D01*
X139729160Y-126349760D02*
X139929820Y-126349760D01*
X139929820Y-126349760D02*
X139929820Y-127050800D01*
X125759160Y-125079760D02*
X125710900Y-125079760D01*
X122960180Y-125780800D02*
X122960180Y-125079760D01*
X122960180Y-125079760D02*
X123209100Y-125079760D01*
X125759160Y-125079760D02*
X125959820Y-125079760D01*
X125959820Y-125079760D02*
X125959820Y-125780800D01*
X139729160Y-136509760D02*
X139680900Y-136509760D01*
X136930180Y-137210800D02*
X136930180Y-136509760D01*
X136930180Y-136509760D02*
X137179100Y-136509760D01*
X139729160Y-136509760D02*
X139929820Y-136509760D01*
X139929820Y-136509760D02*
X139929820Y-137210800D01*
X153699160Y-125079760D02*
X153650900Y-125079760D01*
X150900180Y-125780800D02*
X150900180Y-125079760D01*
X150900180Y-125079760D02*
X151149100Y-125079760D01*
X153699160Y-125079760D02*
X153899820Y-125079760D01*
X153899820Y-125079760D02*
X153899820Y-125780800D01*
X153699160Y-135239760D02*
X153650900Y-135239760D01*
X150900180Y-135940800D02*
X150900180Y-135239760D01*
X150900180Y-135239760D02*
X151149100Y-135239760D01*
X153699160Y-135239760D02*
X153899820Y-135239760D01*
X153899820Y-135239760D02*
X153899820Y-135940800D01*
X109220000Y-101727000D02*
X144780000Y-101727000D01*
X144780000Y-101727000D02*
X144780000Y-99187000D01*
X144780000Y-99187000D02*
X109220000Y-99187000D01*
X106400000Y-98907000D02*
X107950000Y-98907000D01*
X109220000Y-99187000D02*
X109220000Y-101727000D01*
X107950000Y-102007000D02*
X106400000Y-102007000D01*
X106400000Y-102007000D02*
X106400000Y-98907000D01*
D13*
X166680000Y-126240000D02*
X165750000Y-126240000D01*
X163520000Y-126240000D02*
X164450000Y-126240000D01*
X163520000Y-126240000D02*
X163520000Y-128400000D01*
X166680000Y-126240000D02*
X166680000Y-127700000D01*
X166680000Y-136400000D02*
X165750000Y-136400000D01*
X163520000Y-136400000D02*
X164450000Y-136400000D01*
X163520000Y-136400000D02*
X163520000Y-138560000D01*
X166680000Y-136400000D02*
X166680000Y-137860000D01*
M02*
