G04 #@! TF.FileFunction,Copper,L1,Top,Signal*
%FSLAX46Y46*%
G04 Gerber Fmt 4.6, Leading zero omitted, Abs format (unit mm)*
G04 Created by KiCad (PCBNEW 4.0.5) date 2017 January 23, Monday 23:43:52*
%MOMM*%
%LPD*%
G01*
G04 APERTURE LIST*
%ADD10C,0.020000*%
%ADD11C,3.500000*%
%ADD12R,2.032000X1.727200*%
%ADD13O,2.032000X1.727200*%
%ADD14R,0.800100X0.800100*%
%ADD15R,1.727200X2.032000*%
%ADD16O,1.727200X2.032000*%
%ADD17R,0.800000X0.900000*%
%ADD18C,0.600000*%
%ADD19C,0.250000*%
%ADD20C,0.254000*%
G04 APERTURE END LIST*
D10*
D11*
X170180000Y-100330000D03*
X170180000Y-143383000D03*
X82550000Y-143510000D03*
D12*
X132080000Y-107950000D03*
D13*
X132080000Y-110490000D03*
X132080000Y-113030000D03*
X132080000Y-115570000D03*
X132080000Y-118110000D03*
X132080000Y-120650000D03*
X132080000Y-123190000D03*
X132080000Y-125730000D03*
X132080000Y-128270000D03*
X132080000Y-130810000D03*
X132080000Y-133350000D03*
X132080000Y-135890000D03*
X132080000Y-138430000D03*
X132080000Y-140970000D03*
X132080000Y-143510000D03*
D12*
X146050000Y-107950000D03*
D13*
X146050000Y-110490000D03*
X146050000Y-113030000D03*
X146050000Y-115570000D03*
X146050000Y-118110000D03*
X146050000Y-120650000D03*
X146050000Y-123190000D03*
X146050000Y-125730000D03*
X146050000Y-128270000D03*
X146050000Y-130810000D03*
X146050000Y-133350000D03*
X146050000Y-135890000D03*
X146050000Y-138430000D03*
X146050000Y-140970000D03*
X146050000Y-143510000D03*
D12*
X104140000Y-107950000D03*
D13*
X104140000Y-110490000D03*
X104140000Y-113030000D03*
X104140000Y-115570000D03*
X104140000Y-118110000D03*
X104140000Y-120650000D03*
X104140000Y-123190000D03*
X104140000Y-125730000D03*
X104140000Y-128270000D03*
X104140000Y-130810000D03*
X104140000Y-133350000D03*
X104140000Y-135890000D03*
X104140000Y-138430000D03*
X104140000Y-140970000D03*
X104140000Y-143510000D03*
D12*
X90170000Y-107823000D03*
D13*
X90170000Y-110363000D03*
X90170000Y-112903000D03*
X90170000Y-115443000D03*
X90170000Y-117983000D03*
X90170000Y-120523000D03*
X90170000Y-123063000D03*
X90170000Y-125603000D03*
X90170000Y-128143000D03*
X90170000Y-130683000D03*
X90170000Y-133223000D03*
X90170000Y-135763000D03*
D12*
X118110000Y-107950000D03*
D13*
X118110000Y-110490000D03*
X118110000Y-113030000D03*
X118110000Y-115570000D03*
X118110000Y-118110000D03*
X118110000Y-120650000D03*
X118110000Y-123190000D03*
X118110000Y-125730000D03*
X118110000Y-128270000D03*
X118110000Y-130810000D03*
X118110000Y-133350000D03*
X118110000Y-135890000D03*
X118110000Y-138430000D03*
X118110000Y-140970000D03*
X118110000Y-143510000D03*
D12*
X160020000Y-107950000D03*
D13*
X160020000Y-110490000D03*
X160020000Y-113030000D03*
X160020000Y-115570000D03*
X160020000Y-118110000D03*
X160020000Y-120650000D03*
X160020000Y-123190000D03*
X160020000Y-125730000D03*
X160020000Y-128270000D03*
X160020000Y-130810000D03*
X160020000Y-133350000D03*
X160020000Y-135890000D03*
X160020000Y-138430000D03*
X160020000Y-140970000D03*
X160020000Y-143510000D03*
D14*
X95570000Y-131810760D03*
X97470000Y-131810760D03*
X96520000Y-129811780D03*
X123510000Y-131810760D03*
X125410000Y-131810760D03*
X124460000Y-129811780D03*
X151450000Y-131810760D03*
X153350000Y-131810760D03*
X152400000Y-129811780D03*
X95570000Y-136890760D03*
X97470000Y-136890760D03*
X96520000Y-134891780D03*
X123510000Y-136890760D03*
X125410000Y-136890760D03*
X124460000Y-134891780D03*
X95570000Y-126730760D03*
X97470000Y-126730760D03*
X96520000Y-124731780D03*
X95570000Y-121650760D03*
X97470000Y-121650760D03*
X96520000Y-119651780D03*
X123510000Y-121650760D03*
X125410000Y-121650760D03*
X124460000Y-119651780D03*
X151450000Y-121650760D03*
X153350000Y-121650760D03*
X152400000Y-119651780D03*
X137480000Y-128000760D03*
X139380000Y-128000760D03*
X138430000Y-126001780D03*
X123510000Y-126730760D03*
X125410000Y-126730760D03*
X124460000Y-124731780D03*
X137480000Y-138160760D03*
X139380000Y-138160760D03*
X138430000Y-136161780D03*
X151450000Y-126730760D03*
X153350000Y-126730760D03*
X152400000Y-124731780D03*
X151450000Y-136890760D03*
X153350000Y-136890760D03*
X152400000Y-134891780D03*
D11*
X82550000Y-100330000D03*
D15*
X107950000Y-100457000D03*
D16*
X110490000Y-100457000D03*
X113030000Y-100457000D03*
X115570000Y-100457000D03*
X118110000Y-100457000D03*
X120650000Y-100457000D03*
X123190000Y-100457000D03*
X125730000Y-100457000D03*
X128270000Y-100457000D03*
X130810000Y-100457000D03*
X133350000Y-100457000D03*
X135890000Y-100457000D03*
X138430000Y-100457000D03*
X140970000Y-100457000D03*
X143510000Y-100457000D03*
D17*
X164150000Y-128000000D03*
X166050000Y-128000000D03*
X165100000Y-126000000D03*
X164150000Y-138160000D03*
X166050000Y-138160000D03*
X165100000Y-136160000D03*
D18*
X124460000Y-128270000D03*
X124460000Y-133350000D03*
X125730000Y-118110000D03*
X124460000Y-123190000D03*
X152400000Y-128270000D03*
X138430000Y-118110000D03*
X138430000Y-139700000D03*
D19*
X91860942Y-116556600D02*
X91436000Y-116556600D01*
X96295051Y-123571627D02*
X96295051Y-120990709D01*
X95794949Y-124071729D02*
X96295051Y-123571627D01*
X96295051Y-127390811D02*
X96295051Y-125891933D01*
X95570000Y-131810760D02*
X95570000Y-128115862D01*
X95570000Y-128115862D02*
X96295051Y-127390811D01*
X91436000Y-116556600D02*
X90322400Y-115443000D01*
X96295051Y-125891933D02*
X95794949Y-125391831D01*
X95794949Y-125391831D02*
X95794949Y-124071729D01*
X96295051Y-120990709D02*
X91860942Y-116556600D01*
X90322400Y-115443000D02*
X90170000Y-115443000D01*
X90017600Y-115443000D02*
X90170000Y-115443000D01*
X97470000Y-131810760D02*
X102600760Y-131810760D01*
X102600760Y-131810760D02*
X104140000Y-133350000D01*
X123510000Y-131810760D02*
X119649240Y-131810760D01*
X119649240Y-131810760D02*
X119376000Y-132084000D01*
X119376000Y-132084000D02*
X119376000Y-132236400D01*
X119376000Y-132236400D02*
X118262400Y-133350000D01*
X118262400Y-133350000D02*
X118110000Y-133350000D01*
X125410000Y-131810760D02*
X130540760Y-131810760D01*
X130540760Y-131810760D02*
X130814000Y-132084000D01*
X130814000Y-132084000D02*
X130814000Y-132236400D01*
X130814000Y-132236400D02*
X131927600Y-133350000D01*
X131927600Y-133350000D02*
X132080000Y-133350000D01*
X151450000Y-131810760D02*
X147589240Y-131810760D01*
X147589240Y-131810760D02*
X147316000Y-132084000D01*
X146202400Y-133350000D02*
X146050000Y-133350000D01*
X147316000Y-132084000D02*
X147316000Y-132236400D01*
X147316000Y-132236400D02*
X146202400Y-133350000D01*
X153350000Y-131810760D02*
X158480760Y-131810760D01*
X158480760Y-131810760D02*
X158754000Y-132084000D01*
X158754000Y-132084000D02*
X158754000Y-132236400D01*
X158754000Y-132236400D02*
X159867600Y-133350000D01*
X159867600Y-133350000D02*
X160020000Y-133350000D01*
X90017600Y-123063000D02*
X90170000Y-123063000D01*
X95570000Y-136890760D02*
X94919950Y-136890760D01*
X88828990Y-136255338D02*
X88828990Y-124251610D01*
X89525262Y-136951610D02*
X88828990Y-136255338D01*
X88828990Y-124251610D02*
X90017600Y-123063000D01*
X94919950Y-136890760D02*
X94859100Y-136951610D01*
X94859100Y-136951610D02*
X89525262Y-136951610D01*
X90322400Y-123063000D02*
X90170000Y-123063000D01*
X97470000Y-136890760D02*
X103139240Y-136890760D01*
X103139240Y-136890760D02*
X104140000Y-135890000D01*
X123510000Y-136890760D02*
X119110760Y-136890760D01*
X119110760Y-136890760D02*
X118110000Y-135890000D01*
X125410000Y-136890760D02*
X131079240Y-136890760D01*
X131079240Y-136890760D02*
X132080000Y-135890000D01*
X95570000Y-126730760D02*
X95570000Y-127380810D01*
X95570000Y-127380810D02*
X92267810Y-130683000D01*
X92267810Y-130683000D02*
X91436000Y-130683000D01*
X91436000Y-130683000D02*
X90170000Y-130683000D01*
X97470000Y-126730760D02*
X103139240Y-126730760D01*
X103139240Y-126730760D02*
X104140000Y-125730000D01*
X95570000Y-122399451D02*
X91436000Y-126533451D01*
X95570000Y-121650760D02*
X95570000Y-122399451D01*
X91436000Y-127029400D02*
X90322400Y-128143000D01*
X91436000Y-126533451D02*
X91436000Y-127029400D01*
X90322400Y-128143000D02*
X90170000Y-128143000D01*
X97470000Y-121650760D02*
X97470000Y-122300810D01*
X97470000Y-122300810D02*
X98359190Y-123190000D01*
X98359190Y-123190000D02*
X102874000Y-123190000D01*
X102874000Y-123190000D02*
X104140000Y-123190000D01*
X123510000Y-121650760D02*
X123510000Y-122300810D01*
X123510000Y-122300810D02*
X122620810Y-123190000D01*
X122620810Y-123190000D02*
X119376000Y-123190000D01*
X119376000Y-123190000D02*
X118110000Y-123190000D01*
X130814000Y-123190000D02*
X132080000Y-123190000D01*
X127599290Y-123190000D02*
X130814000Y-123190000D01*
X126060050Y-121650760D02*
X127599290Y-123190000D01*
X125410000Y-121650760D02*
X126060050Y-121650760D01*
X151450000Y-121650760D02*
X147589240Y-121650760D01*
X147589240Y-121650760D02*
X147316000Y-121924000D01*
X146202400Y-123190000D02*
X146050000Y-123190000D01*
X147316000Y-121924000D02*
X147316000Y-122076400D01*
X147316000Y-122076400D02*
X146202400Y-123190000D01*
X153350000Y-121650760D02*
X158480760Y-121650760D01*
X158480760Y-121650760D02*
X158754000Y-121924000D01*
X158754000Y-121924000D02*
X158754000Y-122076400D01*
X159867600Y-123190000D02*
X160020000Y-123190000D01*
X158754000Y-122076400D02*
X159867600Y-123190000D01*
X137480000Y-128000760D02*
X132349240Y-128000760D01*
X132349240Y-128000760D02*
X132080000Y-128270000D01*
X139380000Y-128000760D02*
X145780760Y-128000760D01*
X145780760Y-128000760D02*
X146050000Y-128270000D01*
X123510000Y-126730760D02*
X119110760Y-126730760D01*
X119110760Y-126730760D02*
X118110000Y-125730000D01*
X125410000Y-126730760D02*
X131079240Y-126730760D01*
X131079240Y-126730760D02*
X132080000Y-125730000D01*
X137480000Y-138160760D02*
X132349240Y-138160760D01*
X132349240Y-138160760D02*
X132080000Y-138430000D01*
X145780760Y-138160760D02*
X146050000Y-138430000D01*
X139380000Y-138160760D02*
X145780760Y-138160760D01*
X151450000Y-126730760D02*
X146980519Y-126730760D01*
X146980519Y-126730760D02*
X146050000Y-125800241D01*
X146050000Y-125800241D02*
X146050000Y-125730000D01*
X153350000Y-126730760D02*
X159019240Y-126730760D01*
X159019240Y-126730760D02*
X160020000Y-125730000D01*
X151450000Y-136890760D02*
X147050760Y-136890760D01*
X147050760Y-136890760D02*
X146050000Y-135890000D01*
X153350000Y-136890760D02*
X159019240Y-136890760D01*
X159019240Y-136890760D02*
X160020000Y-135890000D01*
X124460000Y-129811780D02*
X124460000Y-128270000D01*
X124460000Y-129811780D02*
X125110050Y-129811780D01*
X125110050Y-129811780D02*
X125300440Y-129621390D01*
X125300440Y-129621390D02*
X151559560Y-129621390D01*
X151559560Y-129621390D02*
X151749950Y-129811780D01*
X151749950Y-129811780D02*
X152400000Y-129811780D01*
X96520000Y-129811780D02*
X97170050Y-129811780D01*
X97360440Y-129621390D02*
X123619560Y-129621390D01*
X123809950Y-129811780D02*
X124460000Y-129811780D01*
X97170050Y-129811780D02*
X97360440Y-129621390D01*
X123619560Y-129621390D02*
X123809950Y-129811780D01*
X124460000Y-134891780D02*
X124460000Y-133350000D01*
X124460000Y-134891780D02*
X123809950Y-134891780D01*
X123809950Y-134891780D02*
X123619560Y-134701390D01*
X123619560Y-134701390D02*
X97360440Y-134701390D01*
X97170050Y-134891780D02*
X96520000Y-134891780D01*
X97360440Y-134701390D02*
X97170050Y-134891780D01*
X124460000Y-134891780D02*
X125110050Y-134891780D01*
X125110050Y-134891780D02*
X125300440Y-134701390D01*
X125300440Y-134701390D02*
X151559560Y-134701390D01*
X151559560Y-134701390D02*
X151749950Y-134891780D01*
X151749950Y-134891780D02*
X152400000Y-134891780D01*
X125730000Y-118110000D02*
X125730000Y-100457000D01*
X124460000Y-124731780D02*
X124460000Y-123190000D01*
X124460000Y-124731780D02*
X123809950Y-124731780D01*
X123809950Y-124731780D02*
X123619560Y-124541390D01*
X97360440Y-124541390D02*
X97170050Y-124731780D01*
X97170050Y-124731780D02*
X96520000Y-124731780D01*
X123619560Y-124541390D02*
X97360440Y-124541390D01*
X152400000Y-124731780D02*
X151749950Y-124731780D01*
X151749950Y-124731780D02*
X151559560Y-124541390D01*
X151559560Y-124541390D02*
X125300440Y-124541390D01*
X125300440Y-124541390D02*
X125110050Y-124731780D01*
X125110050Y-124731780D02*
X124460000Y-124731780D01*
X124460000Y-119651780D02*
X124460000Y-100613400D01*
X124303600Y-100457000D02*
X123190000Y-100457000D01*
X124460000Y-100613400D02*
X124303600Y-100457000D01*
X124460000Y-119651780D02*
X123809950Y-119651780D01*
X123809950Y-119651780D02*
X123619560Y-119461390D01*
X123619560Y-119461390D02*
X97360440Y-119461390D01*
X97360440Y-119461390D02*
X97170050Y-119651780D01*
X97170050Y-119651780D02*
X96520000Y-119651780D01*
X152400000Y-119651780D02*
X151749950Y-119651780D01*
X151749950Y-119651780D02*
X151559560Y-119461390D01*
X125110050Y-119651780D02*
X124460000Y-119651780D01*
X151559560Y-119461390D02*
X125300440Y-119461390D01*
X125300440Y-119461390D02*
X125110050Y-119651780D01*
X152400000Y-127635000D02*
X158821652Y-127635000D01*
X152400000Y-127635000D02*
X152400000Y-128270000D01*
X147248348Y-127635000D02*
X152400000Y-127635000D01*
X138430000Y-126001780D02*
X139080050Y-126001780D01*
X139080050Y-126001780D02*
X140159660Y-127081390D01*
X163368610Y-127081390D02*
X164450000Y-126000000D01*
X164450000Y-126000000D02*
X165100000Y-126000000D01*
X140159660Y-127081390D02*
X146694738Y-127081390D01*
X146694738Y-127081390D02*
X147248348Y-127635000D01*
X158821652Y-127635000D02*
X159375262Y-127081390D01*
X159375262Y-127081390D02*
X163368610Y-127081390D01*
X138430000Y-118110000D02*
X138430000Y-100457000D01*
X138430000Y-138595862D02*
X138430000Y-139700000D01*
X164126392Y-139618610D02*
X165100000Y-138645002D01*
X165100000Y-138645002D02*
X165100000Y-136860000D01*
X165100000Y-136860000D02*
X165100000Y-136160000D01*
X139452748Y-139618610D02*
X164126392Y-139618610D01*
X138430000Y-138595862D02*
X139452748Y-139618610D01*
X138430000Y-136161780D02*
X138430000Y-138595862D01*
X164150000Y-128000000D02*
X160290000Y-128000000D01*
X160290000Y-128000000D02*
X160020000Y-128270000D01*
X160020000Y-138430000D02*
X163880000Y-138430000D01*
X163880000Y-138430000D02*
X164150000Y-138160000D01*
D20*
G36*
X171331730Y-97549472D02*
X172308123Y-98201877D01*
X172960528Y-99178268D01*
X173205000Y-100407318D01*
X173205000Y-143432682D01*
X172960528Y-144661732D01*
X172308123Y-145638123D01*
X171331730Y-146290528D01*
X170102686Y-146535000D01*
X82627318Y-146535000D01*
X81398268Y-146290528D01*
X80421877Y-145638123D01*
X80132159Y-145204528D01*
X81035077Y-145204528D01*
X81225364Y-145549271D01*
X82106591Y-145900956D01*
X83055323Y-145888641D01*
X83874636Y-145549271D01*
X84064923Y-145204528D01*
X83937923Y-145077528D01*
X168665077Y-145077528D01*
X168855364Y-145422271D01*
X169736591Y-145773956D01*
X170685323Y-145761641D01*
X171504636Y-145422271D01*
X171694923Y-145077528D01*
X170180000Y-143562605D01*
X168665077Y-145077528D01*
X83937923Y-145077528D01*
X82550000Y-143689605D01*
X81035077Y-145204528D01*
X80132159Y-145204528D01*
X79769472Y-144661730D01*
X79525000Y-143432686D01*
X79525000Y-143066591D01*
X80159044Y-143066591D01*
X80171359Y-144015323D01*
X80510729Y-144834636D01*
X80855472Y-145024923D01*
X82370395Y-143510000D01*
X82729605Y-143510000D01*
X84244528Y-145024923D01*
X84589271Y-144834636D01*
X84940956Y-143953409D01*
X84928641Y-143004677D01*
X84589271Y-142185364D01*
X84244528Y-141995077D01*
X82729605Y-143510000D01*
X82370395Y-143510000D01*
X80855472Y-141995077D01*
X80510729Y-142185364D01*
X80159044Y-143066591D01*
X79525000Y-143066591D01*
X79525000Y-141815472D01*
X81035077Y-141815472D01*
X82550000Y-143330395D01*
X84064923Y-141815472D01*
X83874636Y-141470729D01*
X82993409Y-141119044D01*
X82044677Y-141131359D01*
X81225364Y-141470729D01*
X81035077Y-141815472D01*
X79525000Y-141815472D01*
X79525000Y-124251610D01*
X88068990Y-124251610D01*
X88068990Y-136255338D01*
X88126842Y-136546177D01*
X88291589Y-136792739D01*
X88987861Y-137489011D01*
X89234422Y-137653758D01*
X89525262Y-137711610D01*
X94686143Y-137711610D01*
X94705860Y-137742251D01*
X94918060Y-137887241D01*
X95169950Y-137938250D01*
X95970050Y-137938250D01*
X96205367Y-137893972D01*
X96421491Y-137754900D01*
X96520632Y-137609803D01*
X96605860Y-137742251D01*
X96818060Y-137887241D01*
X97069950Y-137938250D01*
X97870050Y-137938250D01*
X98105367Y-137893972D01*
X98321491Y-137754900D01*
X98392647Y-137650760D01*
X102708208Y-137650760D01*
X102570729Y-137856511D01*
X102456655Y-138430000D01*
X102570729Y-139003489D01*
X102895585Y-139489670D01*
X103210366Y-139700000D01*
X102895585Y-139910330D01*
X102570729Y-140396511D01*
X102456655Y-140970000D01*
X102570729Y-141543489D01*
X102895585Y-142029670D01*
X103210366Y-142240000D01*
X102895585Y-142450330D01*
X102570729Y-142936511D01*
X102456655Y-143510000D01*
X102570729Y-144083489D01*
X102895585Y-144569670D01*
X103381766Y-144894526D01*
X103955255Y-145008600D01*
X104324745Y-145008600D01*
X104898234Y-144894526D01*
X105384415Y-144569670D01*
X105709271Y-144083489D01*
X105823345Y-143510000D01*
X105709271Y-142936511D01*
X105384415Y-142450330D01*
X105069634Y-142240000D01*
X105384415Y-142029670D01*
X105709271Y-141543489D01*
X105823345Y-140970000D01*
X105709271Y-140396511D01*
X105384415Y-139910330D01*
X105069634Y-139700000D01*
X105384415Y-139489670D01*
X105709271Y-139003489D01*
X105823345Y-138430000D01*
X105709271Y-137856511D01*
X105384415Y-137370330D01*
X105069634Y-137160000D01*
X105384415Y-136949670D01*
X105709271Y-136463489D01*
X105823345Y-135890000D01*
X105738089Y-135461390D01*
X116511911Y-135461390D01*
X116426655Y-135890000D01*
X116540729Y-136463489D01*
X116865585Y-136949670D01*
X117180366Y-137160000D01*
X116865585Y-137370330D01*
X116540729Y-137856511D01*
X116426655Y-138430000D01*
X116540729Y-139003489D01*
X116865585Y-139489670D01*
X117180366Y-139700000D01*
X116865585Y-139910330D01*
X116540729Y-140396511D01*
X116426655Y-140970000D01*
X116540729Y-141543489D01*
X116865585Y-142029670D01*
X117180366Y-142240000D01*
X116865585Y-142450330D01*
X116540729Y-142936511D01*
X116426655Y-143510000D01*
X116540729Y-144083489D01*
X116865585Y-144569670D01*
X117351766Y-144894526D01*
X117925255Y-145008600D01*
X118294745Y-145008600D01*
X118868234Y-144894526D01*
X119354415Y-144569670D01*
X119679271Y-144083489D01*
X119793345Y-143510000D01*
X119679271Y-142936511D01*
X119354415Y-142450330D01*
X119039634Y-142240000D01*
X119354415Y-142029670D01*
X119679271Y-141543489D01*
X119793345Y-140970000D01*
X119679271Y-140396511D01*
X119354415Y-139910330D01*
X119039634Y-139700000D01*
X119354415Y-139489670D01*
X119679271Y-139003489D01*
X119793345Y-138430000D01*
X119679271Y-137856511D01*
X119541792Y-137650760D01*
X122586987Y-137650760D01*
X122645860Y-137742251D01*
X122858060Y-137887241D01*
X123109950Y-137938250D01*
X123910050Y-137938250D01*
X124145367Y-137893972D01*
X124361491Y-137754900D01*
X124460632Y-137609803D01*
X124545860Y-137742251D01*
X124758060Y-137887241D01*
X125009950Y-137938250D01*
X125810050Y-137938250D01*
X126045367Y-137893972D01*
X126261491Y-137754900D01*
X126332647Y-137650760D01*
X130648208Y-137650760D01*
X130510729Y-137856511D01*
X130396655Y-138430000D01*
X130510729Y-139003489D01*
X130835585Y-139489670D01*
X131150366Y-139700000D01*
X130835585Y-139910330D01*
X130510729Y-140396511D01*
X130396655Y-140970000D01*
X130510729Y-141543489D01*
X130835585Y-142029670D01*
X131150366Y-142240000D01*
X130835585Y-142450330D01*
X130510729Y-142936511D01*
X130396655Y-143510000D01*
X130510729Y-144083489D01*
X130835585Y-144569670D01*
X131321766Y-144894526D01*
X131895255Y-145008600D01*
X132264745Y-145008600D01*
X132838234Y-144894526D01*
X133324415Y-144569670D01*
X133649271Y-144083489D01*
X133763345Y-143510000D01*
X133649271Y-142936511D01*
X133324415Y-142450330D01*
X133009634Y-142240000D01*
X133324415Y-142029670D01*
X133649271Y-141543489D01*
X133763345Y-140970000D01*
X133649271Y-140396511D01*
X133324415Y-139910330D01*
X133009634Y-139700000D01*
X133324415Y-139489670D01*
X133649271Y-139003489D01*
X133665727Y-138920760D01*
X136556987Y-138920760D01*
X136615860Y-139012251D01*
X136828060Y-139157241D01*
X137079950Y-139208250D01*
X137621789Y-139208250D01*
X137495162Y-139513201D01*
X137494838Y-139885167D01*
X137636883Y-140228943D01*
X137899673Y-140492192D01*
X138243201Y-140634838D01*
X138615167Y-140635162D01*
X138958943Y-140493117D01*
X139143755Y-140308628D01*
X139161909Y-140320758D01*
X139452748Y-140378610D01*
X144492690Y-140378610D01*
X144480729Y-140396511D01*
X144366655Y-140970000D01*
X144480729Y-141543489D01*
X144805585Y-142029670D01*
X145120366Y-142240000D01*
X144805585Y-142450330D01*
X144480729Y-142936511D01*
X144366655Y-143510000D01*
X144480729Y-144083489D01*
X144805585Y-144569670D01*
X145291766Y-144894526D01*
X145865255Y-145008600D01*
X146234745Y-145008600D01*
X146808234Y-144894526D01*
X147294415Y-144569670D01*
X147619271Y-144083489D01*
X147733345Y-143510000D01*
X147619271Y-142936511D01*
X147294415Y-142450330D01*
X146979634Y-142240000D01*
X147294415Y-142029670D01*
X147619271Y-141543489D01*
X147733345Y-140970000D01*
X147619271Y-140396511D01*
X147607310Y-140378610D01*
X158462690Y-140378610D01*
X158450729Y-140396511D01*
X158336655Y-140970000D01*
X158450729Y-141543489D01*
X158775585Y-142029670D01*
X159090366Y-142240000D01*
X158775585Y-142450330D01*
X158450729Y-142936511D01*
X158336655Y-143510000D01*
X158450729Y-144083489D01*
X158775585Y-144569670D01*
X159261766Y-144894526D01*
X159835255Y-145008600D01*
X160204745Y-145008600D01*
X160778234Y-144894526D01*
X161264415Y-144569670D01*
X161589271Y-144083489D01*
X161703345Y-143510000D01*
X161589884Y-142939591D01*
X167789044Y-142939591D01*
X167801359Y-143888323D01*
X168140729Y-144707636D01*
X168485472Y-144897923D01*
X170000395Y-143383000D01*
X170359605Y-143383000D01*
X171874528Y-144897923D01*
X172219271Y-144707636D01*
X172570956Y-143826409D01*
X172558641Y-142877677D01*
X172219271Y-142058364D01*
X171874528Y-141868077D01*
X170359605Y-143383000D01*
X170000395Y-143383000D01*
X168485472Y-141868077D01*
X168140729Y-142058364D01*
X167789044Y-142939591D01*
X161589884Y-142939591D01*
X161589271Y-142936511D01*
X161264415Y-142450330D01*
X160949634Y-142240000D01*
X161264415Y-142029670D01*
X161492396Y-141688472D01*
X168665077Y-141688472D01*
X170180000Y-143203395D01*
X171694923Y-141688472D01*
X171504636Y-141343729D01*
X170623409Y-140992044D01*
X169674677Y-141004359D01*
X168855364Y-141343729D01*
X168665077Y-141688472D01*
X161492396Y-141688472D01*
X161589271Y-141543489D01*
X161703345Y-140970000D01*
X161589271Y-140396511D01*
X161577310Y-140378610D01*
X164126392Y-140378610D01*
X164417231Y-140320758D01*
X164663793Y-140156011D01*
X165577122Y-139242682D01*
X165650000Y-139257440D01*
X166450000Y-139257440D01*
X166685317Y-139213162D01*
X166901441Y-139074090D01*
X167046431Y-138861890D01*
X167097440Y-138610000D01*
X167097440Y-137710000D01*
X167053162Y-137474683D01*
X166914090Y-137258559D01*
X166701890Y-137113569D01*
X166450000Y-137062560D01*
X165959319Y-137062560D01*
X166096431Y-136861890D01*
X166147440Y-136610000D01*
X166147440Y-135710000D01*
X166103162Y-135474683D01*
X165964090Y-135258559D01*
X165751890Y-135113569D01*
X165500000Y-135062560D01*
X164700000Y-135062560D01*
X164464683Y-135106838D01*
X164248559Y-135245910D01*
X164103569Y-135458110D01*
X164052560Y-135710000D01*
X164052560Y-136610000D01*
X164096838Y-136845317D01*
X164235910Y-137061441D01*
X164237548Y-137062560D01*
X163750000Y-137062560D01*
X163514683Y-137106838D01*
X163298559Y-137245910D01*
X163153569Y-137458110D01*
X163110660Y-137670000D01*
X161464648Y-137670000D01*
X161264415Y-137370330D01*
X160949634Y-137160000D01*
X161264415Y-136949670D01*
X161589271Y-136463489D01*
X161703345Y-135890000D01*
X161589271Y-135316511D01*
X161264415Y-134830330D01*
X160949634Y-134620000D01*
X161264415Y-134409670D01*
X161589271Y-133923489D01*
X161703345Y-133350000D01*
X161589271Y-132776511D01*
X161264415Y-132290330D01*
X160949634Y-132080000D01*
X161264415Y-131869670D01*
X161589271Y-131383489D01*
X161703345Y-130810000D01*
X161589271Y-130236511D01*
X161264415Y-129750330D01*
X160949634Y-129540000D01*
X161264415Y-129329670D01*
X161589271Y-128843489D01*
X161605878Y-128760000D01*
X163194895Y-128760000D01*
X163285910Y-128901441D01*
X163498110Y-129046431D01*
X163750000Y-129097440D01*
X164550000Y-129097440D01*
X164785317Y-129053162D01*
X165001441Y-128914090D01*
X165100633Y-128768917D01*
X165185910Y-128901441D01*
X165398110Y-129046431D01*
X165650000Y-129097440D01*
X166450000Y-129097440D01*
X166685317Y-129053162D01*
X166901441Y-128914090D01*
X167046431Y-128701890D01*
X167097440Y-128450000D01*
X167097440Y-127550000D01*
X167053162Y-127314683D01*
X166914090Y-127098559D01*
X166701890Y-126953569D01*
X166450000Y-126902560D01*
X165959319Y-126902560D01*
X166096431Y-126701890D01*
X166147440Y-126450000D01*
X166147440Y-125550000D01*
X166103162Y-125314683D01*
X165964090Y-125098559D01*
X165751890Y-124953569D01*
X165500000Y-124902560D01*
X164700000Y-124902560D01*
X164464683Y-124946838D01*
X164248559Y-125085910D01*
X164103569Y-125298110D01*
X164094930Y-125340769D01*
X163912599Y-125462599D01*
X163053808Y-126321390D01*
X161577310Y-126321390D01*
X161589271Y-126303489D01*
X161703345Y-125730000D01*
X161589271Y-125156511D01*
X161264415Y-124670330D01*
X160949634Y-124460000D01*
X161264415Y-124249670D01*
X161589271Y-123763489D01*
X161703345Y-123190000D01*
X161589271Y-122616511D01*
X161264415Y-122130330D01*
X160949634Y-121920000D01*
X161264415Y-121709670D01*
X161589271Y-121223489D01*
X161703345Y-120650000D01*
X161589271Y-120076511D01*
X161264415Y-119590330D01*
X160949634Y-119380000D01*
X161264415Y-119169670D01*
X161589271Y-118683489D01*
X161703345Y-118110000D01*
X161589271Y-117536511D01*
X161264415Y-117050330D01*
X160949634Y-116840000D01*
X161264415Y-116629670D01*
X161589271Y-116143489D01*
X161703345Y-115570000D01*
X161589271Y-114996511D01*
X161264415Y-114510330D01*
X160949634Y-114300000D01*
X161264415Y-114089670D01*
X161589271Y-113603489D01*
X161703345Y-113030000D01*
X161589271Y-112456511D01*
X161264415Y-111970330D01*
X160949634Y-111760000D01*
X161264415Y-111549670D01*
X161589271Y-111063489D01*
X161703345Y-110490000D01*
X161589271Y-109916511D01*
X161264415Y-109430330D01*
X161242220Y-109415500D01*
X161395698Y-109351927D01*
X161574327Y-109173299D01*
X161671000Y-108939910D01*
X161671000Y-108235750D01*
X161512250Y-108077000D01*
X160147000Y-108077000D01*
X160147000Y-108097000D01*
X159893000Y-108097000D01*
X159893000Y-108077000D01*
X158527750Y-108077000D01*
X158369000Y-108235750D01*
X158369000Y-108939910D01*
X158465673Y-109173299D01*
X158644302Y-109351927D01*
X158797780Y-109415500D01*
X158775585Y-109430330D01*
X158450729Y-109916511D01*
X158336655Y-110490000D01*
X158450729Y-111063489D01*
X158775585Y-111549670D01*
X159090366Y-111760000D01*
X158775585Y-111970330D01*
X158450729Y-112456511D01*
X158336655Y-113030000D01*
X158450729Y-113603489D01*
X158775585Y-114089670D01*
X159090366Y-114300000D01*
X158775585Y-114510330D01*
X158450729Y-114996511D01*
X158336655Y-115570000D01*
X158450729Y-116143489D01*
X158775585Y-116629670D01*
X159090366Y-116840000D01*
X158775585Y-117050330D01*
X158450729Y-117536511D01*
X158336655Y-118110000D01*
X158450729Y-118683489D01*
X158775585Y-119169670D01*
X159090366Y-119380000D01*
X158775585Y-119590330D01*
X158450729Y-120076511D01*
X158336655Y-120650000D01*
X158384545Y-120890760D01*
X154273013Y-120890760D01*
X154214140Y-120799269D01*
X154001940Y-120654279D01*
X153750050Y-120603270D01*
X153115745Y-120603270D01*
X153251491Y-120515920D01*
X153396481Y-120303720D01*
X153447490Y-120051830D01*
X153447490Y-119251730D01*
X153403212Y-119016413D01*
X153264140Y-118800289D01*
X153051940Y-118655299D01*
X152800050Y-118604290D01*
X151999950Y-118604290D01*
X151764633Y-118648568D01*
X151653505Y-118720077D01*
X151559560Y-118701390D01*
X147607310Y-118701390D01*
X147619271Y-118683489D01*
X147733345Y-118110000D01*
X147619271Y-117536511D01*
X147294415Y-117050330D01*
X146979634Y-116840000D01*
X147294415Y-116629670D01*
X147619271Y-116143489D01*
X147733345Y-115570000D01*
X147619271Y-114996511D01*
X147294415Y-114510330D01*
X146979634Y-114300000D01*
X147294415Y-114089670D01*
X147619271Y-113603489D01*
X147733345Y-113030000D01*
X147619271Y-112456511D01*
X147294415Y-111970330D01*
X146979634Y-111760000D01*
X147294415Y-111549670D01*
X147619271Y-111063489D01*
X147733345Y-110490000D01*
X147619271Y-109916511D01*
X147294415Y-109430330D01*
X147272220Y-109415500D01*
X147425698Y-109351927D01*
X147604327Y-109173299D01*
X147701000Y-108939910D01*
X147701000Y-108235750D01*
X147542250Y-108077000D01*
X146177000Y-108077000D01*
X146177000Y-108097000D01*
X145923000Y-108097000D01*
X145923000Y-108077000D01*
X144557750Y-108077000D01*
X144399000Y-108235750D01*
X144399000Y-108939910D01*
X144495673Y-109173299D01*
X144674302Y-109351927D01*
X144827780Y-109415500D01*
X144805585Y-109430330D01*
X144480729Y-109916511D01*
X144366655Y-110490000D01*
X144480729Y-111063489D01*
X144805585Y-111549670D01*
X145120366Y-111760000D01*
X144805585Y-111970330D01*
X144480729Y-112456511D01*
X144366655Y-113030000D01*
X144480729Y-113603489D01*
X144805585Y-114089670D01*
X145120366Y-114300000D01*
X144805585Y-114510330D01*
X144480729Y-114996511D01*
X144366655Y-115570000D01*
X144480729Y-116143489D01*
X144805585Y-116629670D01*
X145120366Y-116840000D01*
X144805585Y-117050330D01*
X144480729Y-117536511D01*
X144366655Y-118110000D01*
X144480729Y-118683489D01*
X144492690Y-118701390D01*
X139161022Y-118701390D01*
X139222192Y-118640327D01*
X139364838Y-118296799D01*
X139365162Y-117924833D01*
X139223117Y-117581057D01*
X139190000Y-117547882D01*
X139190000Y-106960090D01*
X144399000Y-106960090D01*
X144399000Y-107664250D01*
X144557750Y-107823000D01*
X145923000Y-107823000D01*
X145923000Y-106610150D01*
X146177000Y-106610150D01*
X146177000Y-107823000D01*
X147542250Y-107823000D01*
X147701000Y-107664250D01*
X147701000Y-106960090D01*
X158369000Y-106960090D01*
X158369000Y-107664250D01*
X158527750Y-107823000D01*
X159893000Y-107823000D01*
X159893000Y-106610150D01*
X160147000Y-106610150D01*
X160147000Y-107823000D01*
X161512250Y-107823000D01*
X161671000Y-107664250D01*
X161671000Y-106960090D01*
X161574327Y-106726701D01*
X161395698Y-106548073D01*
X161162309Y-106451400D01*
X160305750Y-106451400D01*
X160147000Y-106610150D01*
X159893000Y-106610150D01*
X159734250Y-106451400D01*
X158877691Y-106451400D01*
X158644302Y-106548073D01*
X158465673Y-106726701D01*
X158369000Y-106960090D01*
X147701000Y-106960090D01*
X147604327Y-106726701D01*
X147425698Y-106548073D01*
X147192309Y-106451400D01*
X146335750Y-106451400D01*
X146177000Y-106610150D01*
X145923000Y-106610150D01*
X145764250Y-106451400D01*
X144907691Y-106451400D01*
X144674302Y-106548073D01*
X144495673Y-106726701D01*
X144399000Y-106960090D01*
X139190000Y-106960090D01*
X139190000Y-101901648D01*
X139489670Y-101701415D01*
X139700000Y-101386634D01*
X139910330Y-101701415D01*
X140396511Y-102026271D01*
X140970000Y-102140345D01*
X141543489Y-102026271D01*
X142029670Y-101701415D01*
X142240000Y-101386634D01*
X142450330Y-101701415D01*
X142936511Y-102026271D01*
X143510000Y-102140345D01*
X144083489Y-102026271D01*
X144086097Y-102024528D01*
X168665077Y-102024528D01*
X168855364Y-102369271D01*
X169736591Y-102720956D01*
X170685323Y-102708641D01*
X171504636Y-102369271D01*
X171694923Y-102024528D01*
X170180000Y-100509605D01*
X168665077Y-102024528D01*
X144086097Y-102024528D01*
X144569670Y-101701415D01*
X144894526Y-101215234D01*
X145008600Y-100641745D01*
X145008600Y-100272255D01*
X144931887Y-99886591D01*
X167789044Y-99886591D01*
X167801359Y-100835323D01*
X168140729Y-101654636D01*
X168485472Y-101844923D01*
X170000395Y-100330000D01*
X170359605Y-100330000D01*
X171874528Y-101844923D01*
X172219271Y-101654636D01*
X172570956Y-100773409D01*
X172558641Y-99824677D01*
X172219271Y-99005364D01*
X171874528Y-98815077D01*
X170359605Y-100330000D01*
X170000395Y-100330000D01*
X168485472Y-98815077D01*
X168140729Y-99005364D01*
X167789044Y-99886591D01*
X144931887Y-99886591D01*
X144894526Y-99698766D01*
X144569670Y-99212585D01*
X144083489Y-98887729D01*
X143510000Y-98773655D01*
X142936511Y-98887729D01*
X142450330Y-99212585D01*
X142240000Y-99527366D01*
X142029670Y-99212585D01*
X141543489Y-98887729D01*
X140970000Y-98773655D01*
X140396511Y-98887729D01*
X139910330Y-99212585D01*
X139700000Y-99527366D01*
X139489670Y-99212585D01*
X139003489Y-98887729D01*
X138430000Y-98773655D01*
X137856511Y-98887729D01*
X137370330Y-99212585D01*
X137160000Y-99527366D01*
X136949670Y-99212585D01*
X136463489Y-98887729D01*
X135890000Y-98773655D01*
X135316511Y-98887729D01*
X134830330Y-99212585D01*
X134620000Y-99527366D01*
X134409670Y-99212585D01*
X133923489Y-98887729D01*
X133350000Y-98773655D01*
X132776511Y-98887729D01*
X132290330Y-99212585D01*
X132080000Y-99527366D01*
X131869670Y-99212585D01*
X131383489Y-98887729D01*
X130810000Y-98773655D01*
X130236511Y-98887729D01*
X129750330Y-99212585D01*
X129540000Y-99527366D01*
X129329670Y-99212585D01*
X128843489Y-98887729D01*
X128270000Y-98773655D01*
X127696511Y-98887729D01*
X127210330Y-99212585D01*
X127000000Y-99527366D01*
X126789670Y-99212585D01*
X126303489Y-98887729D01*
X125730000Y-98773655D01*
X125156511Y-98887729D01*
X124670330Y-99212585D01*
X124460000Y-99527366D01*
X124249670Y-99212585D01*
X123763489Y-98887729D01*
X123190000Y-98773655D01*
X122616511Y-98887729D01*
X122130330Y-99212585D01*
X121920000Y-99527366D01*
X121709670Y-99212585D01*
X121223489Y-98887729D01*
X120650000Y-98773655D01*
X120076511Y-98887729D01*
X119590330Y-99212585D01*
X119380000Y-99527366D01*
X119169670Y-99212585D01*
X118683489Y-98887729D01*
X118110000Y-98773655D01*
X117536511Y-98887729D01*
X117050330Y-99212585D01*
X116840000Y-99527366D01*
X116629670Y-99212585D01*
X116143489Y-98887729D01*
X115570000Y-98773655D01*
X114996511Y-98887729D01*
X114510330Y-99212585D01*
X114300000Y-99527366D01*
X114089670Y-99212585D01*
X113603489Y-98887729D01*
X113030000Y-98773655D01*
X112456511Y-98887729D01*
X111970330Y-99212585D01*
X111760000Y-99527366D01*
X111549670Y-99212585D01*
X111063489Y-98887729D01*
X110490000Y-98773655D01*
X109916511Y-98887729D01*
X109430330Y-99212585D01*
X109415500Y-99234780D01*
X109351927Y-99081302D01*
X109173299Y-98902673D01*
X108939910Y-98806000D01*
X108235750Y-98806000D01*
X108077000Y-98964750D01*
X108077000Y-100330000D01*
X108097000Y-100330000D01*
X108097000Y-100584000D01*
X108077000Y-100584000D01*
X108077000Y-101949250D01*
X108235750Y-102108000D01*
X108939910Y-102108000D01*
X109173299Y-102011327D01*
X109351927Y-101832698D01*
X109415500Y-101679220D01*
X109430330Y-101701415D01*
X109916511Y-102026271D01*
X110490000Y-102140345D01*
X111063489Y-102026271D01*
X111549670Y-101701415D01*
X111760000Y-101386634D01*
X111970330Y-101701415D01*
X112456511Y-102026271D01*
X113030000Y-102140345D01*
X113603489Y-102026271D01*
X114089670Y-101701415D01*
X114300000Y-101386634D01*
X114510330Y-101701415D01*
X114996511Y-102026271D01*
X115570000Y-102140345D01*
X116143489Y-102026271D01*
X116629670Y-101701415D01*
X116840000Y-101386634D01*
X117050330Y-101701415D01*
X117536511Y-102026271D01*
X118110000Y-102140345D01*
X118683489Y-102026271D01*
X119169670Y-101701415D01*
X119380000Y-101386634D01*
X119590330Y-101701415D01*
X120076511Y-102026271D01*
X120650000Y-102140345D01*
X121223489Y-102026271D01*
X121709670Y-101701415D01*
X121920000Y-101386634D01*
X122130330Y-101701415D01*
X122616511Y-102026271D01*
X123190000Y-102140345D01*
X123700000Y-102038900D01*
X123700000Y-118717391D01*
X123619560Y-118701390D01*
X119667310Y-118701390D01*
X119679271Y-118683489D01*
X119793345Y-118110000D01*
X119679271Y-117536511D01*
X119354415Y-117050330D01*
X119039634Y-116840000D01*
X119354415Y-116629670D01*
X119679271Y-116143489D01*
X119793345Y-115570000D01*
X119679271Y-114996511D01*
X119354415Y-114510330D01*
X119039634Y-114300000D01*
X119354415Y-114089670D01*
X119679271Y-113603489D01*
X119793345Y-113030000D01*
X119679271Y-112456511D01*
X119354415Y-111970330D01*
X119039634Y-111760000D01*
X119354415Y-111549670D01*
X119679271Y-111063489D01*
X119793345Y-110490000D01*
X119679271Y-109916511D01*
X119354415Y-109430330D01*
X119332220Y-109415500D01*
X119485698Y-109351927D01*
X119664327Y-109173299D01*
X119761000Y-108939910D01*
X119761000Y-108235750D01*
X119602250Y-108077000D01*
X118237000Y-108077000D01*
X118237000Y-108097000D01*
X117983000Y-108097000D01*
X117983000Y-108077000D01*
X116617750Y-108077000D01*
X116459000Y-108235750D01*
X116459000Y-108939910D01*
X116555673Y-109173299D01*
X116734302Y-109351927D01*
X116887780Y-109415500D01*
X116865585Y-109430330D01*
X116540729Y-109916511D01*
X116426655Y-110490000D01*
X116540729Y-111063489D01*
X116865585Y-111549670D01*
X117180366Y-111760000D01*
X116865585Y-111970330D01*
X116540729Y-112456511D01*
X116426655Y-113030000D01*
X116540729Y-113603489D01*
X116865585Y-114089670D01*
X117180366Y-114300000D01*
X116865585Y-114510330D01*
X116540729Y-114996511D01*
X116426655Y-115570000D01*
X116540729Y-116143489D01*
X116865585Y-116629670D01*
X117180366Y-116840000D01*
X116865585Y-117050330D01*
X116540729Y-117536511D01*
X116426655Y-118110000D01*
X116540729Y-118683489D01*
X116552690Y-118701390D01*
X105697310Y-118701390D01*
X105709271Y-118683489D01*
X105823345Y-118110000D01*
X105709271Y-117536511D01*
X105384415Y-117050330D01*
X105069634Y-116840000D01*
X105384415Y-116629670D01*
X105709271Y-116143489D01*
X105823345Y-115570000D01*
X105709271Y-114996511D01*
X105384415Y-114510330D01*
X105069634Y-114300000D01*
X105384415Y-114089670D01*
X105709271Y-113603489D01*
X105823345Y-113030000D01*
X105709271Y-112456511D01*
X105384415Y-111970330D01*
X105069634Y-111760000D01*
X105384415Y-111549670D01*
X105709271Y-111063489D01*
X105823345Y-110490000D01*
X105709271Y-109916511D01*
X105384415Y-109430330D01*
X105362220Y-109415500D01*
X105515698Y-109351927D01*
X105694327Y-109173299D01*
X105791000Y-108939910D01*
X105791000Y-108235750D01*
X105632250Y-108077000D01*
X104267000Y-108077000D01*
X104267000Y-108097000D01*
X104013000Y-108097000D01*
X104013000Y-108077000D01*
X102647750Y-108077000D01*
X102489000Y-108235750D01*
X102489000Y-108939910D01*
X102585673Y-109173299D01*
X102764302Y-109351927D01*
X102917780Y-109415500D01*
X102895585Y-109430330D01*
X102570729Y-109916511D01*
X102456655Y-110490000D01*
X102570729Y-111063489D01*
X102895585Y-111549670D01*
X103210366Y-111760000D01*
X102895585Y-111970330D01*
X102570729Y-112456511D01*
X102456655Y-113030000D01*
X102570729Y-113603489D01*
X102895585Y-114089670D01*
X103210366Y-114300000D01*
X102895585Y-114510330D01*
X102570729Y-114996511D01*
X102456655Y-115570000D01*
X102570729Y-116143489D01*
X102895585Y-116629670D01*
X103210366Y-116840000D01*
X102895585Y-117050330D01*
X102570729Y-117536511D01*
X102456655Y-118110000D01*
X102570729Y-118683489D01*
X102582690Y-118701390D01*
X97360440Y-118701390D01*
X97266689Y-118720038D01*
X97171940Y-118655299D01*
X96920050Y-118604290D01*
X96119950Y-118604290D01*
X95884633Y-118648568D01*
X95668509Y-118787640D01*
X95523519Y-118999840D01*
X95499179Y-119120035D01*
X92398343Y-116019199D01*
X92151781Y-115854452D01*
X91860942Y-115796600D01*
X91783010Y-115796600D01*
X91853345Y-115443000D01*
X91739271Y-114869511D01*
X91414415Y-114383330D01*
X91099634Y-114173000D01*
X91414415Y-113962670D01*
X91739271Y-113476489D01*
X91853345Y-112903000D01*
X91739271Y-112329511D01*
X91414415Y-111843330D01*
X91099634Y-111633000D01*
X91414415Y-111422670D01*
X91739271Y-110936489D01*
X91853345Y-110363000D01*
X91739271Y-109789511D01*
X91414415Y-109303330D01*
X91392220Y-109288500D01*
X91545698Y-109224927D01*
X91724327Y-109046299D01*
X91821000Y-108812910D01*
X91821000Y-108108750D01*
X91662250Y-107950000D01*
X90297000Y-107950000D01*
X90297000Y-107970000D01*
X90043000Y-107970000D01*
X90043000Y-107950000D01*
X88677750Y-107950000D01*
X88519000Y-108108750D01*
X88519000Y-108812910D01*
X88615673Y-109046299D01*
X88794302Y-109224927D01*
X88947780Y-109288500D01*
X88925585Y-109303330D01*
X88600729Y-109789511D01*
X88486655Y-110363000D01*
X88600729Y-110936489D01*
X88925585Y-111422670D01*
X89240366Y-111633000D01*
X88925585Y-111843330D01*
X88600729Y-112329511D01*
X88486655Y-112903000D01*
X88600729Y-113476489D01*
X88925585Y-113962670D01*
X89240366Y-114173000D01*
X88925585Y-114383330D01*
X88600729Y-114869511D01*
X88486655Y-115443000D01*
X88600729Y-116016489D01*
X88925585Y-116502670D01*
X89240366Y-116713000D01*
X88925585Y-116923330D01*
X88600729Y-117409511D01*
X88486655Y-117983000D01*
X88600729Y-118556489D01*
X88925585Y-119042670D01*
X89240366Y-119253000D01*
X88925585Y-119463330D01*
X88600729Y-119949511D01*
X88486655Y-120523000D01*
X88600729Y-121096489D01*
X88925585Y-121582670D01*
X89240366Y-121793000D01*
X88925585Y-122003330D01*
X88600729Y-122489511D01*
X88486655Y-123063000D01*
X88562334Y-123443464D01*
X88291589Y-123714209D01*
X88126842Y-123960771D01*
X88068990Y-124251610D01*
X79525000Y-124251610D01*
X79525000Y-106833090D01*
X88519000Y-106833090D01*
X88519000Y-107537250D01*
X88677750Y-107696000D01*
X90043000Y-107696000D01*
X90043000Y-106483150D01*
X90297000Y-106483150D01*
X90297000Y-107696000D01*
X91662250Y-107696000D01*
X91821000Y-107537250D01*
X91821000Y-106960090D01*
X102489000Y-106960090D01*
X102489000Y-107664250D01*
X102647750Y-107823000D01*
X104013000Y-107823000D01*
X104013000Y-106610150D01*
X104267000Y-106610150D01*
X104267000Y-107823000D01*
X105632250Y-107823000D01*
X105791000Y-107664250D01*
X105791000Y-106960090D01*
X116459000Y-106960090D01*
X116459000Y-107664250D01*
X116617750Y-107823000D01*
X117983000Y-107823000D01*
X117983000Y-106610150D01*
X118237000Y-106610150D01*
X118237000Y-107823000D01*
X119602250Y-107823000D01*
X119761000Y-107664250D01*
X119761000Y-106960090D01*
X119664327Y-106726701D01*
X119485698Y-106548073D01*
X119252309Y-106451400D01*
X118395750Y-106451400D01*
X118237000Y-106610150D01*
X117983000Y-106610150D01*
X117824250Y-106451400D01*
X116967691Y-106451400D01*
X116734302Y-106548073D01*
X116555673Y-106726701D01*
X116459000Y-106960090D01*
X105791000Y-106960090D01*
X105694327Y-106726701D01*
X105515698Y-106548073D01*
X105282309Y-106451400D01*
X104425750Y-106451400D01*
X104267000Y-106610150D01*
X104013000Y-106610150D01*
X103854250Y-106451400D01*
X102997691Y-106451400D01*
X102764302Y-106548073D01*
X102585673Y-106726701D01*
X102489000Y-106960090D01*
X91821000Y-106960090D01*
X91821000Y-106833090D01*
X91724327Y-106599701D01*
X91545698Y-106421073D01*
X91312309Y-106324400D01*
X90455750Y-106324400D01*
X90297000Y-106483150D01*
X90043000Y-106483150D01*
X89884250Y-106324400D01*
X89027691Y-106324400D01*
X88794302Y-106421073D01*
X88615673Y-106599701D01*
X88519000Y-106833090D01*
X79525000Y-106833090D01*
X79525000Y-102024528D01*
X81035077Y-102024528D01*
X81225364Y-102369271D01*
X82106591Y-102720956D01*
X83055323Y-102708641D01*
X83874636Y-102369271D01*
X84064923Y-102024528D01*
X82550000Y-100509605D01*
X81035077Y-102024528D01*
X79525000Y-102024528D01*
X79525000Y-100407314D01*
X79628578Y-99886591D01*
X80159044Y-99886591D01*
X80171359Y-100835323D01*
X80510729Y-101654636D01*
X80855472Y-101844923D01*
X82370395Y-100330000D01*
X82729605Y-100330000D01*
X84244528Y-101844923D01*
X84589271Y-101654636D01*
X84940956Y-100773409D01*
X84940559Y-100742750D01*
X106451400Y-100742750D01*
X106451400Y-101599309D01*
X106548073Y-101832698D01*
X106726701Y-102011327D01*
X106960090Y-102108000D01*
X107664250Y-102108000D01*
X107823000Y-101949250D01*
X107823000Y-100584000D01*
X106610150Y-100584000D01*
X106451400Y-100742750D01*
X84940559Y-100742750D01*
X84928641Y-99824677D01*
X84717399Y-99314691D01*
X106451400Y-99314691D01*
X106451400Y-100171250D01*
X106610150Y-100330000D01*
X107823000Y-100330000D01*
X107823000Y-98964750D01*
X107664250Y-98806000D01*
X106960090Y-98806000D01*
X106726701Y-98902673D01*
X106548073Y-99081302D01*
X106451400Y-99314691D01*
X84717399Y-99314691D01*
X84589271Y-99005364D01*
X84244528Y-98815077D01*
X82729605Y-100330000D01*
X82370395Y-100330000D01*
X80855472Y-98815077D01*
X80510729Y-99005364D01*
X80159044Y-99886591D01*
X79628578Y-99886591D01*
X79769472Y-99178270D01*
X80132158Y-98635472D01*
X81035077Y-98635472D01*
X82550000Y-100150395D01*
X84064923Y-98635472D01*
X168665077Y-98635472D01*
X170180000Y-100150395D01*
X171694923Y-98635472D01*
X171504636Y-98290729D01*
X170623409Y-97939044D01*
X169674677Y-97951359D01*
X168855364Y-98290729D01*
X168665077Y-98635472D01*
X84064923Y-98635472D01*
X83874636Y-98290729D01*
X82993409Y-97939044D01*
X82044677Y-97951359D01*
X81225364Y-98290729D01*
X81035077Y-98635472D01*
X80132158Y-98635472D01*
X80421877Y-98201877D01*
X81398268Y-97549472D01*
X82627318Y-97305000D01*
X170102686Y-97305000D01*
X171331730Y-97549472D01*
X171331730Y-97549472D01*
G37*
X171331730Y-97549472D02*
X172308123Y-98201877D01*
X172960528Y-99178268D01*
X173205000Y-100407318D01*
X173205000Y-143432682D01*
X172960528Y-144661732D01*
X172308123Y-145638123D01*
X171331730Y-146290528D01*
X170102686Y-146535000D01*
X82627318Y-146535000D01*
X81398268Y-146290528D01*
X80421877Y-145638123D01*
X80132159Y-145204528D01*
X81035077Y-145204528D01*
X81225364Y-145549271D01*
X82106591Y-145900956D01*
X83055323Y-145888641D01*
X83874636Y-145549271D01*
X84064923Y-145204528D01*
X83937923Y-145077528D01*
X168665077Y-145077528D01*
X168855364Y-145422271D01*
X169736591Y-145773956D01*
X170685323Y-145761641D01*
X171504636Y-145422271D01*
X171694923Y-145077528D01*
X170180000Y-143562605D01*
X168665077Y-145077528D01*
X83937923Y-145077528D01*
X82550000Y-143689605D01*
X81035077Y-145204528D01*
X80132159Y-145204528D01*
X79769472Y-144661730D01*
X79525000Y-143432686D01*
X79525000Y-143066591D01*
X80159044Y-143066591D01*
X80171359Y-144015323D01*
X80510729Y-144834636D01*
X80855472Y-145024923D01*
X82370395Y-143510000D01*
X82729605Y-143510000D01*
X84244528Y-145024923D01*
X84589271Y-144834636D01*
X84940956Y-143953409D01*
X84928641Y-143004677D01*
X84589271Y-142185364D01*
X84244528Y-141995077D01*
X82729605Y-143510000D01*
X82370395Y-143510000D01*
X80855472Y-141995077D01*
X80510729Y-142185364D01*
X80159044Y-143066591D01*
X79525000Y-143066591D01*
X79525000Y-141815472D01*
X81035077Y-141815472D01*
X82550000Y-143330395D01*
X84064923Y-141815472D01*
X83874636Y-141470729D01*
X82993409Y-141119044D01*
X82044677Y-141131359D01*
X81225364Y-141470729D01*
X81035077Y-141815472D01*
X79525000Y-141815472D01*
X79525000Y-124251610D01*
X88068990Y-124251610D01*
X88068990Y-136255338D01*
X88126842Y-136546177D01*
X88291589Y-136792739D01*
X88987861Y-137489011D01*
X89234422Y-137653758D01*
X89525262Y-137711610D01*
X94686143Y-137711610D01*
X94705860Y-137742251D01*
X94918060Y-137887241D01*
X95169950Y-137938250D01*
X95970050Y-137938250D01*
X96205367Y-137893972D01*
X96421491Y-137754900D01*
X96520632Y-137609803D01*
X96605860Y-137742251D01*
X96818060Y-137887241D01*
X97069950Y-137938250D01*
X97870050Y-137938250D01*
X98105367Y-137893972D01*
X98321491Y-137754900D01*
X98392647Y-137650760D01*
X102708208Y-137650760D01*
X102570729Y-137856511D01*
X102456655Y-138430000D01*
X102570729Y-139003489D01*
X102895585Y-139489670D01*
X103210366Y-139700000D01*
X102895585Y-139910330D01*
X102570729Y-140396511D01*
X102456655Y-140970000D01*
X102570729Y-141543489D01*
X102895585Y-142029670D01*
X103210366Y-142240000D01*
X102895585Y-142450330D01*
X102570729Y-142936511D01*
X102456655Y-143510000D01*
X102570729Y-144083489D01*
X102895585Y-144569670D01*
X103381766Y-144894526D01*
X103955255Y-145008600D01*
X104324745Y-145008600D01*
X104898234Y-144894526D01*
X105384415Y-144569670D01*
X105709271Y-144083489D01*
X105823345Y-143510000D01*
X105709271Y-142936511D01*
X105384415Y-142450330D01*
X105069634Y-142240000D01*
X105384415Y-142029670D01*
X105709271Y-141543489D01*
X105823345Y-140970000D01*
X105709271Y-140396511D01*
X105384415Y-139910330D01*
X105069634Y-139700000D01*
X105384415Y-139489670D01*
X105709271Y-139003489D01*
X105823345Y-138430000D01*
X105709271Y-137856511D01*
X105384415Y-137370330D01*
X105069634Y-137160000D01*
X105384415Y-136949670D01*
X105709271Y-136463489D01*
X105823345Y-135890000D01*
X105738089Y-135461390D01*
X116511911Y-135461390D01*
X116426655Y-135890000D01*
X116540729Y-136463489D01*
X116865585Y-136949670D01*
X117180366Y-137160000D01*
X116865585Y-137370330D01*
X116540729Y-137856511D01*
X116426655Y-138430000D01*
X116540729Y-139003489D01*
X116865585Y-139489670D01*
X117180366Y-139700000D01*
X116865585Y-139910330D01*
X116540729Y-140396511D01*
X116426655Y-140970000D01*
X116540729Y-141543489D01*
X116865585Y-142029670D01*
X117180366Y-142240000D01*
X116865585Y-142450330D01*
X116540729Y-142936511D01*
X116426655Y-143510000D01*
X116540729Y-144083489D01*
X116865585Y-144569670D01*
X117351766Y-144894526D01*
X117925255Y-145008600D01*
X118294745Y-145008600D01*
X118868234Y-144894526D01*
X119354415Y-144569670D01*
X119679271Y-144083489D01*
X119793345Y-143510000D01*
X119679271Y-142936511D01*
X119354415Y-142450330D01*
X119039634Y-142240000D01*
X119354415Y-142029670D01*
X119679271Y-141543489D01*
X119793345Y-140970000D01*
X119679271Y-140396511D01*
X119354415Y-139910330D01*
X119039634Y-139700000D01*
X119354415Y-139489670D01*
X119679271Y-139003489D01*
X119793345Y-138430000D01*
X119679271Y-137856511D01*
X119541792Y-137650760D01*
X122586987Y-137650760D01*
X122645860Y-137742251D01*
X122858060Y-137887241D01*
X123109950Y-137938250D01*
X123910050Y-137938250D01*
X124145367Y-137893972D01*
X124361491Y-137754900D01*
X124460632Y-137609803D01*
X124545860Y-137742251D01*
X124758060Y-137887241D01*
X125009950Y-137938250D01*
X125810050Y-137938250D01*
X126045367Y-137893972D01*
X126261491Y-137754900D01*
X126332647Y-137650760D01*
X130648208Y-137650760D01*
X130510729Y-137856511D01*
X130396655Y-138430000D01*
X130510729Y-139003489D01*
X130835585Y-139489670D01*
X131150366Y-139700000D01*
X130835585Y-139910330D01*
X130510729Y-140396511D01*
X130396655Y-140970000D01*
X130510729Y-141543489D01*
X130835585Y-142029670D01*
X131150366Y-142240000D01*
X130835585Y-142450330D01*
X130510729Y-142936511D01*
X130396655Y-143510000D01*
X130510729Y-144083489D01*
X130835585Y-144569670D01*
X131321766Y-144894526D01*
X131895255Y-145008600D01*
X132264745Y-145008600D01*
X132838234Y-144894526D01*
X133324415Y-144569670D01*
X133649271Y-144083489D01*
X133763345Y-143510000D01*
X133649271Y-142936511D01*
X133324415Y-142450330D01*
X133009634Y-142240000D01*
X133324415Y-142029670D01*
X133649271Y-141543489D01*
X133763345Y-140970000D01*
X133649271Y-140396511D01*
X133324415Y-139910330D01*
X133009634Y-139700000D01*
X133324415Y-139489670D01*
X133649271Y-139003489D01*
X133665727Y-138920760D01*
X136556987Y-138920760D01*
X136615860Y-139012251D01*
X136828060Y-139157241D01*
X137079950Y-139208250D01*
X137621789Y-139208250D01*
X137495162Y-139513201D01*
X137494838Y-139885167D01*
X137636883Y-140228943D01*
X137899673Y-140492192D01*
X138243201Y-140634838D01*
X138615167Y-140635162D01*
X138958943Y-140493117D01*
X139143755Y-140308628D01*
X139161909Y-140320758D01*
X139452748Y-140378610D01*
X144492690Y-140378610D01*
X144480729Y-140396511D01*
X144366655Y-140970000D01*
X144480729Y-141543489D01*
X144805585Y-142029670D01*
X145120366Y-142240000D01*
X144805585Y-142450330D01*
X144480729Y-142936511D01*
X144366655Y-143510000D01*
X144480729Y-144083489D01*
X144805585Y-144569670D01*
X145291766Y-144894526D01*
X145865255Y-145008600D01*
X146234745Y-145008600D01*
X146808234Y-144894526D01*
X147294415Y-144569670D01*
X147619271Y-144083489D01*
X147733345Y-143510000D01*
X147619271Y-142936511D01*
X147294415Y-142450330D01*
X146979634Y-142240000D01*
X147294415Y-142029670D01*
X147619271Y-141543489D01*
X147733345Y-140970000D01*
X147619271Y-140396511D01*
X147607310Y-140378610D01*
X158462690Y-140378610D01*
X158450729Y-140396511D01*
X158336655Y-140970000D01*
X158450729Y-141543489D01*
X158775585Y-142029670D01*
X159090366Y-142240000D01*
X158775585Y-142450330D01*
X158450729Y-142936511D01*
X158336655Y-143510000D01*
X158450729Y-144083489D01*
X158775585Y-144569670D01*
X159261766Y-144894526D01*
X159835255Y-145008600D01*
X160204745Y-145008600D01*
X160778234Y-144894526D01*
X161264415Y-144569670D01*
X161589271Y-144083489D01*
X161703345Y-143510000D01*
X161589884Y-142939591D01*
X167789044Y-142939591D01*
X167801359Y-143888323D01*
X168140729Y-144707636D01*
X168485472Y-144897923D01*
X170000395Y-143383000D01*
X170359605Y-143383000D01*
X171874528Y-144897923D01*
X172219271Y-144707636D01*
X172570956Y-143826409D01*
X172558641Y-142877677D01*
X172219271Y-142058364D01*
X171874528Y-141868077D01*
X170359605Y-143383000D01*
X170000395Y-143383000D01*
X168485472Y-141868077D01*
X168140729Y-142058364D01*
X167789044Y-142939591D01*
X161589884Y-142939591D01*
X161589271Y-142936511D01*
X161264415Y-142450330D01*
X160949634Y-142240000D01*
X161264415Y-142029670D01*
X161492396Y-141688472D01*
X168665077Y-141688472D01*
X170180000Y-143203395D01*
X171694923Y-141688472D01*
X171504636Y-141343729D01*
X170623409Y-140992044D01*
X169674677Y-141004359D01*
X168855364Y-141343729D01*
X168665077Y-141688472D01*
X161492396Y-141688472D01*
X161589271Y-141543489D01*
X161703345Y-140970000D01*
X161589271Y-140396511D01*
X161577310Y-140378610D01*
X164126392Y-140378610D01*
X164417231Y-140320758D01*
X164663793Y-140156011D01*
X165577122Y-139242682D01*
X165650000Y-139257440D01*
X166450000Y-139257440D01*
X166685317Y-139213162D01*
X166901441Y-139074090D01*
X167046431Y-138861890D01*
X167097440Y-138610000D01*
X167097440Y-137710000D01*
X167053162Y-137474683D01*
X166914090Y-137258559D01*
X166701890Y-137113569D01*
X166450000Y-137062560D01*
X165959319Y-137062560D01*
X166096431Y-136861890D01*
X166147440Y-136610000D01*
X166147440Y-135710000D01*
X166103162Y-135474683D01*
X165964090Y-135258559D01*
X165751890Y-135113569D01*
X165500000Y-135062560D01*
X164700000Y-135062560D01*
X164464683Y-135106838D01*
X164248559Y-135245910D01*
X164103569Y-135458110D01*
X164052560Y-135710000D01*
X164052560Y-136610000D01*
X164096838Y-136845317D01*
X164235910Y-137061441D01*
X164237548Y-137062560D01*
X163750000Y-137062560D01*
X163514683Y-137106838D01*
X163298559Y-137245910D01*
X163153569Y-137458110D01*
X163110660Y-137670000D01*
X161464648Y-137670000D01*
X161264415Y-137370330D01*
X160949634Y-137160000D01*
X161264415Y-136949670D01*
X161589271Y-136463489D01*
X161703345Y-135890000D01*
X161589271Y-135316511D01*
X161264415Y-134830330D01*
X160949634Y-134620000D01*
X161264415Y-134409670D01*
X161589271Y-133923489D01*
X161703345Y-133350000D01*
X161589271Y-132776511D01*
X161264415Y-132290330D01*
X160949634Y-132080000D01*
X161264415Y-131869670D01*
X161589271Y-131383489D01*
X161703345Y-130810000D01*
X161589271Y-130236511D01*
X161264415Y-129750330D01*
X160949634Y-129540000D01*
X161264415Y-129329670D01*
X161589271Y-128843489D01*
X161605878Y-128760000D01*
X163194895Y-128760000D01*
X163285910Y-128901441D01*
X163498110Y-129046431D01*
X163750000Y-129097440D01*
X164550000Y-129097440D01*
X164785317Y-129053162D01*
X165001441Y-128914090D01*
X165100633Y-128768917D01*
X165185910Y-128901441D01*
X165398110Y-129046431D01*
X165650000Y-129097440D01*
X166450000Y-129097440D01*
X166685317Y-129053162D01*
X166901441Y-128914090D01*
X167046431Y-128701890D01*
X167097440Y-128450000D01*
X167097440Y-127550000D01*
X167053162Y-127314683D01*
X166914090Y-127098559D01*
X166701890Y-126953569D01*
X166450000Y-126902560D01*
X165959319Y-126902560D01*
X166096431Y-126701890D01*
X166147440Y-126450000D01*
X166147440Y-125550000D01*
X166103162Y-125314683D01*
X165964090Y-125098559D01*
X165751890Y-124953569D01*
X165500000Y-124902560D01*
X164700000Y-124902560D01*
X164464683Y-124946838D01*
X164248559Y-125085910D01*
X164103569Y-125298110D01*
X164094930Y-125340769D01*
X163912599Y-125462599D01*
X163053808Y-126321390D01*
X161577310Y-126321390D01*
X161589271Y-126303489D01*
X161703345Y-125730000D01*
X161589271Y-125156511D01*
X161264415Y-124670330D01*
X160949634Y-124460000D01*
X161264415Y-124249670D01*
X161589271Y-123763489D01*
X161703345Y-123190000D01*
X161589271Y-122616511D01*
X161264415Y-122130330D01*
X160949634Y-121920000D01*
X161264415Y-121709670D01*
X161589271Y-121223489D01*
X161703345Y-120650000D01*
X161589271Y-120076511D01*
X161264415Y-119590330D01*
X160949634Y-119380000D01*
X161264415Y-119169670D01*
X161589271Y-118683489D01*
X161703345Y-118110000D01*
X161589271Y-117536511D01*
X161264415Y-117050330D01*
X160949634Y-116840000D01*
X161264415Y-116629670D01*
X161589271Y-116143489D01*
X161703345Y-115570000D01*
X161589271Y-114996511D01*
X161264415Y-114510330D01*
X160949634Y-114300000D01*
X161264415Y-114089670D01*
X161589271Y-113603489D01*
X161703345Y-113030000D01*
X161589271Y-112456511D01*
X161264415Y-111970330D01*
X160949634Y-111760000D01*
X161264415Y-111549670D01*
X161589271Y-111063489D01*
X161703345Y-110490000D01*
X161589271Y-109916511D01*
X161264415Y-109430330D01*
X161242220Y-109415500D01*
X161395698Y-109351927D01*
X161574327Y-109173299D01*
X161671000Y-108939910D01*
X161671000Y-108235750D01*
X161512250Y-108077000D01*
X160147000Y-108077000D01*
X160147000Y-108097000D01*
X159893000Y-108097000D01*
X159893000Y-108077000D01*
X158527750Y-108077000D01*
X158369000Y-108235750D01*
X158369000Y-108939910D01*
X158465673Y-109173299D01*
X158644302Y-109351927D01*
X158797780Y-109415500D01*
X158775585Y-109430330D01*
X158450729Y-109916511D01*
X158336655Y-110490000D01*
X158450729Y-111063489D01*
X158775585Y-111549670D01*
X159090366Y-111760000D01*
X158775585Y-111970330D01*
X158450729Y-112456511D01*
X158336655Y-113030000D01*
X158450729Y-113603489D01*
X158775585Y-114089670D01*
X159090366Y-114300000D01*
X158775585Y-114510330D01*
X158450729Y-114996511D01*
X158336655Y-115570000D01*
X158450729Y-116143489D01*
X158775585Y-116629670D01*
X159090366Y-116840000D01*
X158775585Y-117050330D01*
X158450729Y-117536511D01*
X158336655Y-118110000D01*
X158450729Y-118683489D01*
X158775585Y-119169670D01*
X159090366Y-119380000D01*
X158775585Y-119590330D01*
X158450729Y-120076511D01*
X158336655Y-120650000D01*
X158384545Y-120890760D01*
X154273013Y-120890760D01*
X154214140Y-120799269D01*
X154001940Y-120654279D01*
X153750050Y-120603270D01*
X153115745Y-120603270D01*
X153251491Y-120515920D01*
X153396481Y-120303720D01*
X153447490Y-120051830D01*
X153447490Y-119251730D01*
X153403212Y-119016413D01*
X153264140Y-118800289D01*
X153051940Y-118655299D01*
X152800050Y-118604290D01*
X151999950Y-118604290D01*
X151764633Y-118648568D01*
X151653505Y-118720077D01*
X151559560Y-118701390D01*
X147607310Y-118701390D01*
X147619271Y-118683489D01*
X147733345Y-118110000D01*
X147619271Y-117536511D01*
X147294415Y-117050330D01*
X146979634Y-116840000D01*
X147294415Y-116629670D01*
X147619271Y-116143489D01*
X147733345Y-115570000D01*
X147619271Y-114996511D01*
X147294415Y-114510330D01*
X146979634Y-114300000D01*
X147294415Y-114089670D01*
X147619271Y-113603489D01*
X147733345Y-113030000D01*
X147619271Y-112456511D01*
X147294415Y-111970330D01*
X146979634Y-111760000D01*
X147294415Y-111549670D01*
X147619271Y-111063489D01*
X147733345Y-110490000D01*
X147619271Y-109916511D01*
X147294415Y-109430330D01*
X147272220Y-109415500D01*
X147425698Y-109351927D01*
X147604327Y-109173299D01*
X147701000Y-108939910D01*
X147701000Y-108235750D01*
X147542250Y-108077000D01*
X146177000Y-108077000D01*
X146177000Y-108097000D01*
X145923000Y-108097000D01*
X145923000Y-108077000D01*
X144557750Y-108077000D01*
X144399000Y-108235750D01*
X144399000Y-108939910D01*
X144495673Y-109173299D01*
X144674302Y-109351927D01*
X144827780Y-109415500D01*
X144805585Y-109430330D01*
X144480729Y-109916511D01*
X144366655Y-110490000D01*
X144480729Y-111063489D01*
X144805585Y-111549670D01*
X145120366Y-111760000D01*
X144805585Y-111970330D01*
X144480729Y-112456511D01*
X144366655Y-113030000D01*
X144480729Y-113603489D01*
X144805585Y-114089670D01*
X145120366Y-114300000D01*
X144805585Y-114510330D01*
X144480729Y-114996511D01*
X144366655Y-115570000D01*
X144480729Y-116143489D01*
X144805585Y-116629670D01*
X145120366Y-116840000D01*
X144805585Y-117050330D01*
X144480729Y-117536511D01*
X144366655Y-118110000D01*
X144480729Y-118683489D01*
X144492690Y-118701390D01*
X139161022Y-118701390D01*
X139222192Y-118640327D01*
X139364838Y-118296799D01*
X139365162Y-117924833D01*
X139223117Y-117581057D01*
X139190000Y-117547882D01*
X139190000Y-106960090D01*
X144399000Y-106960090D01*
X144399000Y-107664250D01*
X144557750Y-107823000D01*
X145923000Y-107823000D01*
X145923000Y-106610150D01*
X146177000Y-106610150D01*
X146177000Y-107823000D01*
X147542250Y-107823000D01*
X147701000Y-107664250D01*
X147701000Y-106960090D01*
X158369000Y-106960090D01*
X158369000Y-107664250D01*
X158527750Y-107823000D01*
X159893000Y-107823000D01*
X159893000Y-106610150D01*
X160147000Y-106610150D01*
X160147000Y-107823000D01*
X161512250Y-107823000D01*
X161671000Y-107664250D01*
X161671000Y-106960090D01*
X161574327Y-106726701D01*
X161395698Y-106548073D01*
X161162309Y-106451400D01*
X160305750Y-106451400D01*
X160147000Y-106610150D01*
X159893000Y-106610150D01*
X159734250Y-106451400D01*
X158877691Y-106451400D01*
X158644302Y-106548073D01*
X158465673Y-106726701D01*
X158369000Y-106960090D01*
X147701000Y-106960090D01*
X147604327Y-106726701D01*
X147425698Y-106548073D01*
X147192309Y-106451400D01*
X146335750Y-106451400D01*
X146177000Y-106610150D01*
X145923000Y-106610150D01*
X145764250Y-106451400D01*
X144907691Y-106451400D01*
X144674302Y-106548073D01*
X144495673Y-106726701D01*
X144399000Y-106960090D01*
X139190000Y-106960090D01*
X139190000Y-101901648D01*
X139489670Y-101701415D01*
X139700000Y-101386634D01*
X139910330Y-101701415D01*
X140396511Y-102026271D01*
X140970000Y-102140345D01*
X141543489Y-102026271D01*
X142029670Y-101701415D01*
X142240000Y-101386634D01*
X142450330Y-101701415D01*
X142936511Y-102026271D01*
X143510000Y-102140345D01*
X144083489Y-102026271D01*
X144086097Y-102024528D01*
X168665077Y-102024528D01*
X168855364Y-102369271D01*
X169736591Y-102720956D01*
X170685323Y-102708641D01*
X171504636Y-102369271D01*
X171694923Y-102024528D01*
X170180000Y-100509605D01*
X168665077Y-102024528D01*
X144086097Y-102024528D01*
X144569670Y-101701415D01*
X144894526Y-101215234D01*
X145008600Y-100641745D01*
X145008600Y-100272255D01*
X144931887Y-99886591D01*
X167789044Y-99886591D01*
X167801359Y-100835323D01*
X168140729Y-101654636D01*
X168485472Y-101844923D01*
X170000395Y-100330000D01*
X170359605Y-100330000D01*
X171874528Y-101844923D01*
X172219271Y-101654636D01*
X172570956Y-100773409D01*
X172558641Y-99824677D01*
X172219271Y-99005364D01*
X171874528Y-98815077D01*
X170359605Y-100330000D01*
X170000395Y-100330000D01*
X168485472Y-98815077D01*
X168140729Y-99005364D01*
X167789044Y-99886591D01*
X144931887Y-99886591D01*
X144894526Y-99698766D01*
X144569670Y-99212585D01*
X144083489Y-98887729D01*
X143510000Y-98773655D01*
X142936511Y-98887729D01*
X142450330Y-99212585D01*
X142240000Y-99527366D01*
X142029670Y-99212585D01*
X141543489Y-98887729D01*
X140970000Y-98773655D01*
X140396511Y-98887729D01*
X139910330Y-99212585D01*
X139700000Y-99527366D01*
X139489670Y-99212585D01*
X139003489Y-98887729D01*
X138430000Y-98773655D01*
X137856511Y-98887729D01*
X137370330Y-99212585D01*
X137160000Y-99527366D01*
X136949670Y-99212585D01*
X136463489Y-98887729D01*
X135890000Y-98773655D01*
X135316511Y-98887729D01*
X134830330Y-99212585D01*
X134620000Y-99527366D01*
X134409670Y-99212585D01*
X133923489Y-98887729D01*
X133350000Y-98773655D01*
X132776511Y-98887729D01*
X132290330Y-99212585D01*
X132080000Y-99527366D01*
X131869670Y-99212585D01*
X131383489Y-98887729D01*
X130810000Y-98773655D01*
X130236511Y-98887729D01*
X129750330Y-99212585D01*
X129540000Y-99527366D01*
X129329670Y-99212585D01*
X128843489Y-98887729D01*
X128270000Y-98773655D01*
X127696511Y-98887729D01*
X127210330Y-99212585D01*
X127000000Y-99527366D01*
X126789670Y-99212585D01*
X126303489Y-98887729D01*
X125730000Y-98773655D01*
X125156511Y-98887729D01*
X124670330Y-99212585D01*
X124460000Y-99527366D01*
X124249670Y-99212585D01*
X123763489Y-98887729D01*
X123190000Y-98773655D01*
X122616511Y-98887729D01*
X122130330Y-99212585D01*
X121920000Y-99527366D01*
X121709670Y-99212585D01*
X121223489Y-98887729D01*
X120650000Y-98773655D01*
X120076511Y-98887729D01*
X119590330Y-99212585D01*
X119380000Y-99527366D01*
X119169670Y-99212585D01*
X118683489Y-98887729D01*
X118110000Y-98773655D01*
X117536511Y-98887729D01*
X117050330Y-99212585D01*
X116840000Y-99527366D01*
X116629670Y-99212585D01*
X116143489Y-98887729D01*
X115570000Y-98773655D01*
X114996511Y-98887729D01*
X114510330Y-99212585D01*
X114300000Y-99527366D01*
X114089670Y-99212585D01*
X113603489Y-98887729D01*
X113030000Y-98773655D01*
X112456511Y-98887729D01*
X111970330Y-99212585D01*
X111760000Y-99527366D01*
X111549670Y-99212585D01*
X111063489Y-98887729D01*
X110490000Y-98773655D01*
X109916511Y-98887729D01*
X109430330Y-99212585D01*
X109415500Y-99234780D01*
X109351927Y-99081302D01*
X109173299Y-98902673D01*
X108939910Y-98806000D01*
X108235750Y-98806000D01*
X108077000Y-98964750D01*
X108077000Y-100330000D01*
X108097000Y-100330000D01*
X108097000Y-100584000D01*
X108077000Y-100584000D01*
X108077000Y-101949250D01*
X108235750Y-102108000D01*
X108939910Y-102108000D01*
X109173299Y-102011327D01*
X109351927Y-101832698D01*
X109415500Y-101679220D01*
X109430330Y-101701415D01*
X109916511Y-102026271D01*
X110490000Y-102140345D01*
X111063489Y-102026271D01*
X111549670Y-101701415D01*
X111760000Y-101386634D01*
X111970330Y-101701415D01*
X112456511Y-102026271D01*
X113030000Y-102140345D01*
X113603489Y-102026271D01*
X114089670Y-101701415D01*
X114300000Y-101386634D01*
X114510330Y-101701415D01*
X114996511Y-102026271D01*
X115570000Y-102140345D01*
X116143489Y-102026271D01*
X116629670Y-101701415D01*
X116840000Y-101386634D01*
X117050330Y-101701415D01*
X117536511Y-102026271D01*
X118110000Y-102140345D01*
X118683489Y-102026271D01*
X119169670Y-101701415D01*
X119380000Y-101386634D01*
X119590330Y-101701415D01*
X120076511Y-102026271D01*
X120650000Y-102140345D01*
X121223489Y-102026271D01*
X121709670Y-101701415D01*
X121920000Y-101386634D01*
X122130330Y-101701415D01*
X122616511Y-102026271D01*
X123190000Y-102140345D01*
X123700000Y-102038900D01*
X123700000Y-118717391D01*
X123619560Y-118701390D01*
X119667310Y-118701390D01*
X119679271Y-118683489D01*
X119793345Y-118110000D01*
X119679271Y-117536511D01*
X119354415Y-117050330D01*
X119039634Y-116840000D01*
X119354415Y-116629670D01*
X119679271Y-116143489D01*
X119793345Y-115570000D01*
X119679271Y-114996511D01*
X119354415Y-114510330D01*
X119039634Y-114300000D01*
X119354415Y-114089670D01*
X119679271Y-113603489D01*
X119793345Y-113030000D01*
X119679271Y-112456511D01*
X119354415Y-111970330D01*
X119039634Y-111760000D01*
X119354415Y-111549670D01*
X119679271Y-111063489D01*
X119793345Y-110490000D01*
X119679271Y-109916511D01*
X119354415Y-109430330D01*
X119332220Y-109415500D01*
X119485698Y-109351927D01*
X119664327Y-109173299D01*
X119761000Y-108939910D01*
X119761000Y-108235750D01*
X119602250Y-108077000D01*
X118237000Y-108077000D01*
X118237000Y-108097000D01*
X117983000Y-108097000D01*
X117983000Y-108077000D01*
X116617750Y-108077000D01*
X116459000Y-108235750D01*
X116459000Y-108939910D01*
X116555673Y-109173299D01*
X116734302Y-109351927D01*
X116887780Y-109415500D01*
X116865585Y-109430330D01*
X116540729Y-109916511D01*
X116426655Y-110490000D01*
X116540729Y-111063489D01*
X116865585Y-111549670D01*
X117180366Y-111760000D01*
X116865585Y-111970330D01*
X116540729Y-112456511D01*
X116426655Y-113030000D01*
X116540729Y-113603489D01*
X116865585Y-114089670D01*
X117180366Y-114300000D01*
X116865585Y-114510330D01*
X116540729Y-114996511D01*
X116426655Y-115570000D01*
X116540729Y-116143489D01*
X116865585Y-116629670D01*
X117180366Y-116840000D01*
X116865585Y-117050330D01*
X116540729Y-117536511D01*
X116426655Y-118110000D01*
X116540729Y-118683489D01*
X116552690Y-118701390D01*
X105697310Y-118701390D01*
X105709271Y-118683489D01*
X105823345Y-118110000D01*
X105709271Y-117536511D01*
X105384415Y-117050330D01*
X105069634Y-116840000D01*
X105384415Y-116629670D01*
X105709271Y-116143489D01*
X105823345Y-115570000D01*
X105709271Y-114996511D01*
X105384415Y-114510330D01*
X105069634Y-114300000D01*
X105384415Y-114089670D01*
X105709271Y-113603489D01*
X105823345Y-113030000D01*
X105709271Y-112456511D01*
X105384415Y-111970330D01*
X105069634Y-111760000D01*
X105384415Y-111549670D01*
X105709271Y-111063489D01*
X105823345Y-110490000D01*
X105709271Y-109916511D01*
X105384415Y-109430330D01*
X105362220Y-109415500D01*
X105515698Y-109351927D01*
X105694327Y-109173299D01*
X105791000Y-108939910D01*
X105791000Y-108235750D01*
X105632250Y-108077000D01*
X104267000Y-108077000D01*
X104267000Y-108097000D01*
X104013000Y-108097000D01*
X104013000Y-108077000D01*
X102647750Y-108077000D01*
X102489000Y-108235750D01*
X102489000Y-108939910D01*
X102585673Y-109173299D01*
X102764302Y-109351927D01*
X102917780Y-109415500D01*
X102895585Y-109430330D01*
X102570729Y-109916511D01*
X102456655Y-110490000D01*
X102570729Y-111063489D01*
X102895585Y-111549670D01*
X103210366Y-111760000D01*
X102895585Y-111970330D01*
X102570729Y-112456511D01*
X102456655Y-113030000D01*
X102570729Y-113603489D01*
X102895585Y-114089670D01*
X103210366Y-114300000D01*
X102895585Y-114510330D01*
X102570729Y-114996511D01*
X102456655Y-115570000D01*
X102570729Y-116143489D01*
X102895585Y-116629670D01*
X103210366Y-116840000D01*
X102895585Y-117050330D01*
X102570729Y-117536511D01*
X102456655Y-118110000D01*
X102570729Y-118683489D01*
X102582690Y-118701390D01*
X97360440Y-118701390D01*
X97266689Y-118720038D01*
X97171940Y-118655299D01*
X96920050Y-118604290D01*
X96119950Y-118604290D01*
X95884633Y-118648568D01*
X95668509Y-118787640D01*
X95523519Y-118999840D01*
X95499179Y-119120035D01*
X92398343Y-116019199D01*
X92151781Y-115854452D01*
X91860942Y-115796600D01*
X91783010Y-115796600D01*
X91853345Y-115443000D01*
X91739271Y-114869511D01*
X91414415Y-114383330D01*
X91099634Y-114173000D01*
X91414415Y-113962670D01*
X91739271Y-113476489D01*
X91853345Y-112903000D01*
X91739271Y-112329511D01*
X91414415Y-111843330D01*
X91099634Y-111633000D01*
X91414415Y-111422670D01*
X91739271Y-110936489D01*
X91853345Y-110363000D01*
X91739271Y-109789511D01*
X91414415Y-109303330D01*
X91392220Y-109288500D01*
X91545698Y-109224927D01*
X91724327Y-109046299D01*
X91821000Y-108812910D01*
X91821000Y-108108750D01*
X91662250Y-107950000D01*
X90297000Y-107950000D01*
X90297000Y-107970000D01*
X90043000Y-107970000D01*
X90043000Y-107950000D01*
X88677750Y-107950000D01*
X88519000Y-108108750D01*
X88519000Y-108812910D01*
X88615673Y-109046299D01*
X88794302Y-109224927D01*
X88947780Y-109288500D01*
X88925585Y-109303330D01*
X88600729Y-109789511D01*
X88486655Y-110363000D01*
X88600729Y-110936489D01*
X88925585Y-111422670D01*
X89240366Y-111633000D01*
X88925585Y-111843330D01*
X88600729Y-112329511D01*
X88486655Y-112903000D01*
X88600729Y-113476489D01*
X88925585Y-113962670D01*
X89240366Y-114173000D01*
X88925585Y-114383330D01*
X88600729Y-114869511D01*
X88486655Y-115443000D01*
X88600729Y-116016489D01*
X88925585Y-116502670D01*
X89240366Y-116713000D01*
X88925585Y-116923330D01*
X88600729Y-117409511D01*
X88486655Y-117983000D01*
X88600729Y-118556489D01*
X88925585Y-119042670D01*
X89240366Y-119253000D01*
X88925585Y-119463330D01*
X88600729Y-119949511D01*
X88486655Y-120523000D01*
X88600729Y-121096489D01*
X88925585Y-121582670D01*
X89240366Y-121793000D01*
X88925585Y-122003330D01*
X88600729Y-122489511D01*
X88486655Y-123063000D01*
X88562334Y-123443464D01*
X88291589Y-123714209D01*
X88126842Y-123960771D01*
X88068990Y-124251610D01*
X79525000Y-124251610D01*
X79525000Y-106833090D01*
X88519000Y-106833090D01*
X88519000Y-107537250D01*
X88677750Y-107696000D01*
X90043000Y-107696000D01*
X90043000Y-106483150D01*
X90297000Y-106483150D01*
X90297000Y-107696000D01*
X91662250Y-107696000D01*
X91821000Y-107537250D01*
X91821000Y-106960090D01*
X102489000Y-106960090D01*
X102489000Y-107664250D01*
X102647750Y-107823000D01*
X104013000Y-107823000D01*
X104013000Y-106610150D01*
X104267000Y-106610150D01*
X104267000Y-107823000D01*
X105632250Y-107823000D01*
X105791000Y-107664250D01*
X105791000Y-106960090D01*
X116459000Y-106960090D01*
X116459000Y-107664250D01*
X116617750Y-107823000D01*
X117983000Y-107823000D01*
X117983000Y-106610150D01*
X118237000Y-106610150D01*
X118237000Y-107823000D01*
X119602250Y-107823000D01*
X119761000Y-107664250D01*
X119761000Y-106960090D01*
X119664327Y-106726701D01*
X119485698Y-106548073D01*
X119252309Y-106451400D01*
X118395750Y-106451400D01*
X118237000Y-106610150D01*
X117983000Y-106610150D01*
X117824250Y-106451400D01*
X116967691Y-106451400D01*
X116734302Y-106548073D01*
X116555673Y-106726701D01*
X116459000Y-106960090D01*
X105791000Y-106960090D01*
X105694327Y-106726701D01*
X105515698Y-106548073D01*
X105282309Y-106451400D01*
X104425750Y-106451400D01*
X104267000Y-106610150D01*
X104013000Y-106610150D01*
X103854250Y-106451400D01*
X102997691Y-106451400D01*
X102764302Y-106548073D01*
X102585673Y-106726701D01*
X102489000Y-106960090D01*
X91821000Y-106960090D01*
X91821000Y-106833090D01*
X91724327Y-106599701D01*
X91545698Y-106421073D01*
X91312309Y-106324400D01*
X90455750Y-106324400D01*
X90297000Y-106483150D01*
X90043000Y-106483150D01*
X89884250Y-106324400D01*
X89027691Y-106324400D01*
X88794302Y-106421073D01*
X88615673Y-106599701D01*
X88519000Y-106833090D01*
X79525000Y-106833090D01*
X79525000Y-102024528D01*
X81035077Y-102024528D01*
X81225364Y-102369271D01*
X82106591Y-102720956D01*
X83055323Y-102708641D01*
X83874636Y-102369271D01*
X84064923Y-102024528D01*
X82550000Y-100509605D01*
X81035077Y-102024528D01*
X79525000Y-102024528D01*
X79525000Y-100407314D01*
X79628578Y-99886591D01*
X80159044Y-99886591D01*
X80171359Y-100835323D01*
X80510729Y-101654636D01*
X80855472Y-101844923D01*
X82370395Y-100330000D01*
X82729605Y-100330000D01*
X84244528Y-101844923D01*
X84589271Y-101654636D01*
X84940956Y-100773409D01*
X84940559Y-100742750D01*
X106451400Y-100742750D01*
X106451400Y-101599309D01*
X106548073Y-101832698D01*
X106726701Y-102011327D01*
X106960090Y-102108000D01*
X107664250Y-102108000D01*
X107823000Y-101949250D01*
X107823000Y-100584000D01*
X106610150Y-100584000D01*
X106451400Y-100742750D01*
X84940559Y-100742750D01*
X84928641Y-99824677D01*
X84717399Y-99314691D01*
X106451400Y-99314691D01*
X106451400Y-100171250D01*
X106610150Y-100330000D01*
X107823000Y-100330000D01*
X107823000Y-98964750D01*
X107664250Y-98806000D01*
X106960090Y-98806000D01*
X106726701Y-98902673D01*
X106548073Y-99081302D01*
X106451400Y-99314691D01*
X84717399Y-99314691D01*
X84589271Y-99005364D01*
X84244528Y-98815077D01*
X82729605Y-100330000D01*
X82370395Y-100330000D01*
X80855472Y-98815077D01*
X80510729Y-99005364D01*
X80159044Y-99886591D01*
X79628578Y-99886591D01*
X79769472Y-99178270D01*
X80132158Y-98635472D01*
X81035077Y-98635472D01*
X82550000Y-100150395D01*
X84064923Y-98635472D01*
X168665077Y-98635472D01*
X170180000Y-100150395D01*
X171694923Y-98635472D01*
X171504636Y-98290729D01*
X170623409Y-97939044D01*
X169674677Y-97951359D01*
X168855364Y-98290729D01*
X168665077Y-98635472D01*
X84064923Y-98635472D01*
X83874636Y-98290729D01*
X82993409Y-97939044D01*
X82044677Y-97951359D01*
X81225364Y-98290729D01*
X81035077Y-98635472D01*
X80132158Y-98635472D01*
X80421877Y-98201877D01*
X81398268Y-97549472D01*
X82627318Y-97305000D01*
X170102686Y-97305000D01*
X171331730Y-97549472D01*
G36*
X137370330Y-101701415D02*
X137670000Y-101901648D01*
X137670000Y-117547537D01*
X137637808Y-117579673D01*
X137495162Y-117923201D01*
X137494838Y-118295167D01*
X137636883Y-118638943D01*
X137699221Y-118701390D01*
X133637310Y-118701390D01*
X133649271Y-118683489D01*
X133763345Y-118110000D01*
X133649271Y-117536511D01*
X133324415Y-117050330D01*
X133009634Y-116840000D01*
X133324415Y-116629670D01*
X133649271Y-116143489D01*
X133763345Y-115570000D01*
X133649271Y-114996511D01*
X133324415Y-114510330D01*
X133009634Y-114300000D01*
X133324415Y-114089670D01*
X133649271Y-113603489D01*
X133763345Y-113030000D01*
X133649271Y-112456511D01*
X133324415Y-111970330D01*
X133009634Y-111760000D01*
X133324415Y-111549670D01*
X133649271Y-111063489D01*
X133763345Y-110490000D01*
X133649271Y-109916511D01*
X133324415Y-109430330D01*
X133302220Y-109415500D01*
X133455698Y-109351927D01*
X133634327Y-109173299D01*
X133731000Y-108939910D01*
X133731000Y-108235750D01*
X133572250Y-108077000D01*
X132207000Y-108077000D01*
X132207000Y-108097000D01*
X131953000Y-108097000D01*
X131953000Y-108077000D01*
X130587750Y-108077000D01*
X130429000Y-108235750D01*
X130429000Y-108939910D01*
X130525673Y-109173299D01*
X130704302Y-109351927D01*
X130857780Y-109415500D01*
X130835585Y-109430330D01*
X130510729Y-109916511D01*
X130396655Y-110490000D01*
X130510729Y-111063489D01*
X130835585Y-111549670D01*
X131150366Y-111760000D01*
X130835585Y-111970330D01*
X130510729Y-112456511D01*
X130396655Y-113030000D01*
X130510729Y-113603489D01*
X130835585Y-114089670D01*
X131150366Y-114300000D01*
X130835585Y-114510330D01*
X130510729Y-114996511D01*
X130396655Y-115570000D01*
X130510729Y-116143489D01*
X130835585Y-116629670D01*
X131150366Y-116840000D01*
X130835585Y-117050330D01*
X130510729Y-117536511D01*
X130396655Y-118110000D01*
X130510729Y-118683489D01*
X130522690Y-118701390D01*
X126461022Y-118701390D01*
X126522192Y-118640327D01*
X126664838Y-118296799D01*
X126665162Y-117924833D01*
X126523117Y-117581057D01*
X126490000Y-117547882D01*
X126490000Y-106960090D01*
X130429000Y-106960090D01*
X130429000Y-107664250D01*
X130587750Y-107823000D01*
X131953000Y-107823000D01*
X131953000Y-106610150D01*
X132207000Y-106610150D01*
X132207000Y-107823000D01*
X133572250Y-107823000D01*
X133731000Y-107664250D01*
X133731000Y-106960090D01*
X133634327Y-106726701D01*
X133455698Y-106548073D01*
X133222309Y-106451400D01*
X132365750Y-106451400D01*
X132207000Y-106610150D01*
X131953000Y-106610150D01*
X131794250Y-106451400D01*
X130937691Y-106451400D01*
X130704302Y-106548073D01*
X130525673Y-106726701D01*
X130429000Y-106960090D01*
X126490000Y-106960090D01*
X126490000Y-101901648D01*
X126789670Y-101701415D01*
X127000000Y-101386634D01*
X127210330Y-101701415D01*
X127696511Y-102026271D01*
X128270000Y-102140345D01*
X128843489Y-102026271D01*
X129329670Y-101701415D01*
X129540000Y-101386634D01*
X129750330Y-101701415D01*
X130236511Y-102026271D01*
X130810000Y-102140345D01*
X131383489Y-102026271D01*
X131869670Y-101701415D01*
X132080000Y-101386634D01*
X132290330Y-101701415D01*
X132776511Y-102026271D01*
X133350000Y-102140345D01*
X133923489Y-102026271D01*
X134409670Y-101701415D01*
X134620000Y-101386634D01*
X134830330Y-101701415D01*
X135316511Y-102026271D01*
X135890000Y-102140345D01*
X136463489Y-102026271D01*
X136949670Y-101701415D01*
X137160000Y-101386634D01*
X137370330Y-101701415D01*
X137370330Y-101701415D01*
G37*
X137370330Y-101701415D02*
X137670000Y-101901648D01*
X137670000Y-117547537D01*
X137637808Y-117579673D01*
X137495162Y-117923201D01*
X137494838Y-118295167D01*
X137636883Y-118638943D01*
X137699221Y-118701390D01*
X133637310Y-118701390D01*
X133649271Y-118683489D01*
X133763345Y-118110000D01*
X133649271Y-117536511D01*
X133324415Y-117050330D01*
X133009634Y-116840000D01*
X133324415Y-116629670D01*
X133649271Y-116143489D01*
X133763345Y-115570000D01*
X133649271Y-114996511D01*
X133324415Y-114510330D01*
X133009634Y-114300000D01*
X133324415Y-114089670D01*
X133649271Y-113603489D01*
X133763345Y-113030000D01*
X133649271Y-112456511D01*
X133324415Y-111970330D01*
X133009634Y-111760000D01*
X133324415Y-111549670D01*
X133649271Y-111063489D01*
X133763345Y-110490000D01*
X133649271Y-109916511D01*
X133324415Y-109430330D01*
X133302220Y-109415500D01*
X133455698Y-109351927D01*
X133634327Y-109173299D01*
X133731000Y-108939910D01*
X133731000Y-108235750D01*
X133572250Y-108077000D01*
X132207000Y-108077000D01*
X132207000Y-108097000D01*
X131953000Y-108097000D01*
X131953000Y-108077000D01*
X130587750Y-108077000D01*
X130429000Y-108235750D01*
X130429000Y-108939910D01*
X130525673Y-109173299D01*
X130704302Y-109351927D01*
X130857780Y-109415500D01*
X130835585Y-109430330D01*
X130510729Y-109916511D01*
X130396655Y-110490000D01*
X130510729Y-111063489D01*
X130835585Y-111549670D01*
X131150366Y-111760000D01*
X130835585Y-111970330D01*
X130510729Y-112456511D01*
X130396655Y-113030000D01*
X130510729Y-113603489D01*
X130835585Y-114089670D01*
X131150366Y-114300000D01*
X130835585Y-114510330D01*
X130510729Y-114996511D01*
X130396655Y-115570000D01*
X130510729Y-116143489D01*
X130835585Y-116629670D01*
X131150366Y-116840000D01*
X130835585Y-117050330D01*
X130510729Y-117536511D01*
X130396655Y-118110000D01*
X130510729Y-118683489D01*
X130522690Y-118701390D01*
X126461022Y-118701390D01*
X126522192Y-118640327D01*
X126664838Y-118296799D01*
X126665162Y-117924833D01*
X126523117Y-117581057D01*
X126490000Y-117547882D01*
X126490000Y-106960090D01*
X130429000Y-106960090D01*
X130429000Y-107664250D01*
X130587750Y-107823000D01*
X131953000Y-107823000D01*
X131953000Y-106610150D01*
X132207000Y-106610150D01*
X132207000Y-107823000D01*
X133572250Y-107823000D01*
X133731000Y-107664250D01*
X133731000Y-106960090D01*
X133634327Y-106726701D01*
X133455698Y-106548073D01*
X133222309Y-106451400D01*
X132365750Y-106451400D01*
X132207000Y-106610150D01*
X131953000Y-106610150D01*
X131794250Y-106451400D01*
X130937691Y-106451400D01*
X130704302Y-106548073D01*
X130525673Y-106726701D01*
X130429000Y-106960090D01*
X126490000Y-106960090D01*
X126490000Y-101901648D01*
X126789670Y-101701415D01*
X127000000Y-101386634D01*
X127210330Y-101701415D01*
X127696511Y-102026271D01*
X128270000Y-102140345D01*
X128843489Y-102026271D01*
X129329670Y-101701415D01*
X129540000Y-101386634D01*
X129750330Y-101701415D01*
X130236511Y-102026271D01*
X130810000Y-102140345D01*
X131383489Y-102026271D01*
X131869670Y-101701415D01*
X132080000Y-101386634D01*
X132290330Y-101701415D01*
X132776511Y-102026271D01*
X133350000Y-102140345D01*
X133923489Y-102026271D01*
X134409670Y-101701415D01*
X134620000Y-101386634D01*
X134830330Y-101701415D01*
X135316511Y-102026271D01*
X135890000Y-102140345D01*
X136463489Y-102026271D01*
X136949670Y-101701415D01*
X137160000Y-101386634D01*
X137370330Y-101701415D01*
M02*
