M48
INCH,TZ
T1C0.040
T2C0.138
%
G90
G05
T1
X34500Y-42500
X34500Y-43500
X34500Y-44500
X34500Y-45500
X34500Y-46500
X34500Y-47500
X34500Y-48500
X34500Y-49500
X34500Y-50500
X34500Y-51500
X34500Y-52500
X34500Y-53500
X39500Y-42500
X39500Y-43500
X39500Y-44500
X39500Y-45500
X39500Y-46500
X39500Y-47500
X39500Y-48500
X39500Y-49500
X39500Y-50500
X39500Y-51500
X39500Y-52500
X39500Y-53500
X39500Y-54500
X39500Y-55500
X39500Y-56500
X41000Y-40000
X42000Y-40000
X43000Y-40000
X44000Y-40000
X44500Y-42500
X44500Y-43500
X44500Y-44500
X44500Y-45500
X44500Y-46500
X44500Y-47500
X44500Y-48500
X44500Y-49500
X44500Y-50500
X44500Y-51500
X44500Y-52500
X44500Y-53500
X44500Y-54500
X44500Y-55500
X44500Y-56500
X45000Y-40000
X46000Y-40000
X47000Y-40000
X48000Y-40000
X49000Y-40000
X49500Y-42500
X49500Y-43500
X49500Y-44500
X49500Y-45500
X49500Y-46500
X49500Y-47500
X49500Y-48500
X49500Y-49500
X49500Y-50500
X49500Y-51500
X49500Y-52500
X49500Y-53500
X49500Y-54500
X49500Y-55500
X49500Y-56500
X50000Y-40000
X51000Y-40000
X52000Y-40000
X53000Y-40000
X54000Y-40000
X54500Y-42500
X54500Y-43500
X54500Y-44500
X54500Y-45500
X54500Y-46500
X54500Y-47500
X54500Y-48500
X54500Y-49500
X54500Y-50500
X54500Y-51500
X54500Y-52500
X54500Y-53500
X54500Y-54500
X54500Y-55500
X54500Y-56500
X55000Y-40000
X59500Y-42500
X59500Y-43500
X59500Y-44500
X59500Y-45500
X59500Y-46500
X59500Y-47500
X59500Y-48500
X59500Y-49500
X59500Y-50500
X59500Y-51500
X59500Y-52500
X59500Y-53500
X59500Y-54500
X59500Y-55500
X59500Y-56500
T2
X33500Y-39500
X33500Y-56500
X63500Y-39500
X63500Y-56500
T0
M30
