G04 #@! TF.FileFunction,Soldermask,Top*
%FSLAX46Y46*%
G04 Gerber Fmt 4.6, Leading zero omitted, Abs format (unit mm)*
G04 Created by KiCad (PCBNEW 4.0.5) date 2017 January 24, Tuesday 22:14:05*
%MOMM*%
%LPD*%
G01*
G04 APERTURE LIST*
%ADD10C,0.020000*%
%ADD11R,2.032000X1.727200*%
%ADD12O,2.032000X1.727200*%
%ADD13R,0.800100X0.800100*%
%ADD14R,1.727200X2.032000*%
%ADD15O,1.727200X2.032000*%
%ADD16R,0.800000X0.900000*%
G04 APERTURE END LIST*
D10*
D11*
X132080000Y-107950000D03*
D12*
X132080000Y-110490000D03*
X132080000Y-113030000D03*
X132080000Y-115570000D03*
X132080000Y-118110000D03*
X132080000Y-120650000D03*
X132080000Y-123190000D03*
X132080000Y-125730000D03*
X132080000Y-128270000D03*
X132080000Y-130810000D03*
X132080000Y-133350000D03*
X132080000Y-135890000D03*
X132080000Y-138430000D03*
X132080000Y-140970000D03*
X132080000Y-143510000D03*
D11*
X146050000Y-107950000D03*
D12*
X146050000Y-110490000D03*
X146050000Y-113030000D03*
X146050000Y-115570000D03*
X146050000Y-118110000D03*
X146050000Y-120650000D03*
X146050000Y-123190000D03*
X146050000Y-125730000D03*
X146050000Y-128270000D03*
X146050000Y-130810000D03*
X146050000Y-133350000D03*
X146050000Y-135890000D03*
X146050000Y-138430000D03*
X146050000Y-140970000D03*
X146050000Y-143510000D03*
D11*
X104140000Y-107950000D03*
D12*
X104140000Y-110490000D03*
X104140000Y-113030000D03*
X104140000Y-115570000D03*
X104140000Y-118110000D03*
X104140000Y-120650000D03*
X104140000Y-123190000D03*
X104140000Y-125730000D03*
X104140000Y-128270000D03*
X104140000Y-130810000D03*
X104140000Y-133350000D03*
X104140000Y-135890000D03*
X104140000Y-138430000D03*
X104140000Y-140970000D03*
X104140000Y-143510000D03*
D11*
X90170000Y-107823000D03*
D12*
X90170000Y-110363000D03*
X90170000Y-112903000D03*
X90170000Y-115443000D03*
X90170000Y-117983000D03*
X90170000Y-120523000D03*
X90170000Y-123063000D03*
X90170000Y-125603000D03*
X90170000Y-128143000D03*
X90170000Y-130683000D03*
X90170000Y-133223000D03*
X90170000Y-135763000D03*
D11*
X118110000Y-107950000D03*
D12*
X118110000Y-110490000D03*
X118110000Y-113030000D03*
X118110000Y-115570000D03*
X118110000Y-118110000D03*
X118110000Y-120650000D03*
X118110000Y-123190000D03*
X118110000Y-125730000D03*
X118110000Y-128270000D03*
X118110000Y-130810000D03*
X118110000Y-133350000D03*
X118110000Y-135890000D03*
X118110000Y-138430000D03*
X118110000Y-140970000D03*
X118110000Y-143510000D03*
D11*
X160020000Y-107950000D03*
D12*
X160020000Y-110490000D03*
X160020000Y-113030000D03*
X160020000Y-115570000D03*
X160020000Y-118110000D03*
X160020000Y-120650000D03*
X160020000Y-123190000D03*
X160020000Y-125730000D03*
X160020000Y-128270000D03*
X160020000Y-130810000D03*
X160020000Y-133350000D03*
X160020000Y-135890000D03*
X160020000Y-138430000D03*
X160020000Y-140970000D03*
X160020000Y-143510000D03*
D13*
X95570000Y-131810760D03*
X97470000Y-131810760D03*
X96520000Y-129811780D03*
X123510000Y-131810760D03*
X125410000Y-131810760D03*
X124460000Y-129811780D03*
X151450000Y-131810760D03*
X153350000Y-131810760D03*
X152400000Y-129811780D03*
X95570000Y-136890760D03*
X97470000Y-136890760D03*
X96520000Y-134891780D03*
X123510000Y-136890760D03*
X125410000Y-136890760D03*
X124460000Y-134891780D03*
X95570000Y-126730760D03*
X97470000Y-126730760D03*
X96520000Y-124731780D03*
X95570000Y-121650760D03*
X97470000Y-121650760D03*
X96520000Y-119651780D03*
X123510000Y-121650760D03*
X125410000Y-121650760D03*
X124460000Y-119651780D03*
X151450000Y-121650760D03*
X153350000Y-121650760D03*
X152400000Y-119651780D03*
X137480000Y-128000760D03*
X139380000Y-128000760D03*
X138430000Y-126001780D03*
X123510000Y-126730760D03*
X125410000Y-126730760D03*
X124460000Y-124731780D03*
X137480000Y-138160760D03*
X139380000Y-138160760D03*
X138430000Y-136161780D03*
X151450000Y-126730760D03*
X153350000Y-126730760D03*
X152400000Y-124731780D03*
X151450000Y-136890760D03*
X153350000Y-136890760D03*
X152400000Y-134891780D03*
D14*
X107950000Y-100457000D03*
D15*
X110490000Y-100457000D03*
X113030000Y-100457000D03*
X115570000Y-100457000D03*
X118110000Y-100457000D03*
X120650000Y-100457000D03*
X123190000Y-100457000D03*
X125730000Y-100457000D03*
X128270000Y-100457000D03*
X130810000Y-100457000D03*
X133350000Y-100457000D03*
X135890000Y-100457000D03*
X138430000Y-100457000D03*
X140970000Y-100457000D03*
X143510000Y-100457000D03*
D16*
X164150000Y-128000000D03*
X166050000Y-128000000D03*
X165100000Y-126000000D03*
X164150000Y-138160000D03*
X166050000Y-138160000D03*
X165100000Y-136160000D03*
M02*
