G04 #@! TF.FileFunction,Soldermask,Top*
%FSLAX46Y46*%
G04 Gerber Fmt 4.6, Leading zero omitted, Abs format (unit mm)*
G04 Created by KiCad (PCBNEW 4.0.2-4+6225~38~ubuntu15.10.1-stable) date Sun 27 Mar 2016 09:59:08 PM MSK*
%MOMM*%
G01*
G04 APERTURE LIST*
%ADD10C,0.020000*%
%ADD11R,2.032000X1.727200*%
%ADD12O,2.032000X1.727200*%
%ADD13R,0.800100X0.800100*%
%ADD14R,1.699260X1.300480*%
%ADD15R,1.727200X2.032000*%
%ADD16O,1.727200X2.032000*%
G04 APERTURE END LIST*
D10*
D11*
X125730000Y-107950000D03*
D12*
X125730000Y-110490000D03*
X125730000Y-113030000D03*
X125730000Y-115570000D03*
X125730000Y-118110000D03*
X125730000Y-120650000D03*
X125730000Y-123190000D03*
X125730000Y-125730000D03*
X125730000Y-128270000D03*
X125730000Y-130810000D03*
X125730000Y-133350000D03*
X125730000Y-135890000D03*
X125730000Y-138430000D03*
X125730000Y-140970000D03*
X125730000Y-143510000D03*
D11*
X138430000Y-107950000D03*
D12*
X138430000Y-110490000D03*
X138430000Y-113030000D03*
X138430000Y-115570000D03*
X138430000Y-118110000D03*
X138430000Y-120650000D03*
X138430000Y-123190000D03*
X138430000Y-125730000D03*
X138430000Y-128270000D03*
X138430000Y-130810000D03*
X138430000Y-133350000D03*
X138430000Y-135890000D03*
X138430000Y-138430000D03*
X138430000Y-140970000D03*
X138430000Y-143510000D03*
D11*
X100330000Y-107950000D03*
D12*
X100330000Y-110490000D03*
X100330000Y-113030000D03*
X100330000Y-115570000D03*
X100330000Y-118110000D03*
X100330000Y-120650000D03*
X100330000Y-123190000D03*
X100330000Y-125730000D03*
X100330000Y-128270000D03*
X100330000Y-130810000D03*
X100330000Y-133350000D03*
X100330000Y-135890000D03*
X100330000Y-138430000D03*
X100330000Y-140970000D03*
X100330000Y-143510000D03*
D11*
X87630000Y-107950000D03*
D12*
X87630000Y-110490000D03*
X87630000Y-113030000D03*
X87630000Y-115570000D03*
X87630000Y-118110000D03*
X87630000Y-120650000D03*
X87630000Y-123190000D03*
X87630000Y-125730000D03*
X87630000Y-128270000D03*
X87630000Y-130810000D03*
X87630000Y-133350000D03*
X87630000Y-135890000D03*
D11*
X113030000Y-107950000D03*
D12*
X113030000Y-110490000D03*
X113030000Y-113030000D03*
X113030000Y-115570000D03*
X113030000Y-118110000D03*
X113030000Y-120650000D03*
X113030000Y-123190000D03*
X113030000Y-125730000D03*
X113030000Y-128270000D03*
X113030000Y-130810000D03*
X113030000Y-133350000D03*
X113030000Y-135890000D03*
X113030000Y-138430000D03*
X113030000Y-140970000D03*
X113030000Y-143510000D03*
D11*
X151130000Y-107950000D03*
D12*
X151130000Y-110490000D03*
X151130000Y-113030000D03*
X151130000Y-115570000D03*
X151130000Y-118110000D03*
X151130000Y-120650000D03*
X151130000Y-123190000D03*
X151130000Y-125730000D03*
X151130000Y-128270000D03*
X151130000Y-130810000D03*
X151130000Y-133350000D03*
X151130000Y-135890000D03*
X151130000Y-138430000D03*
X151130000Y-140970000D03*
X151130000Y-143510000D03*
D13*
X93030000Y-129270760D03*
X94930000Y-129270760D03*
X93980000Y-127271780D03*
X118430000Y-136890760D03*
X120330000Y-136890760D03*
X119380000Y-134891780D03*
X143830000Y-136890760D03*
X145730000Y-136890760D03*
X144780000Y-134891780D03*
X93030000Y-135620760D03*
X94930000Y-135620760D03*
X93980000Y-133621780D03*
X118430000Y-143240760D03*
X120330000Y-143240760D03*
X119380000Y-141241780D03*
X93030000Y-122920760D03*
X94930000Y-122920760D03*
X93980000Y-120921780D03*
X93030000Y-116570760D03*
X94930000Y-116570760D03*
X93980000Y-114571780D03*
X118430000Y-124190760D03*
X120330000Y-124190760D03*
X119380000Y-122191780D03*
X143830000Y-124190760D03*
X145730000Y-124190760D03*
X144780000Y-122191780D03*
X131130000Y-136890760D03*
X133030000Y-136890760D03*
X132080000Y-134891780D03*
X118430000Y-130540760D03*
X120330000Y-130540760D03*
X119380000Y-128541780D03*
X131130000Y-143240760D03*
X133030000Y-143240760D03*
X132080000Y-141241780D03*
X143830000Y-130540760D03*
X145730000Y-130540760D03*
X144780000Y-128541780D03*
X143830000Y-143240760D03*
X145730000Y-143240760D03*
X144780000Y-141241780D03*
D14*
X154940000Y-116359940D03*
X154940000Y-119860060D03*
X154940000Y-131599940D03*
X154940000Y-135100060D03*
D15*
X104140000Y-101600000D03*
D16*
X106680000Y-101600000D03*
X109220000Y-101600000D03*
X111760000Y-101600000D03*
X114300000Y-101600000D03*
X116840000Y-101600000D03*
X119380000Y-101600000D03*
X121920000Y-101600000D03*
X124460000Y-101600000D03*
X127000000Y-101600000D03*
X129540000Y-101600000D03*
X132080000Y-101600000D03*
X134620000Y-101600000D03*
X137160000Y-101600000D03*
X139700000Y-101600000D03*
M02*
