G04 #@! TF.FileFunction,Legend,Top*
%FSLAX46Y46*%
G04 Gerber Fmt 4.6, Leading zero omitted, Abs format (unit mm)*
G04 Created by KiCad (PCBNEW 4.0.1-3.201512221401+6198~38~ubuntu15.10.1-stable) date Вс. 24 янв. 2016 23:35:29*
%MOMM*%
G01*
G04 APERTURE LIST*
%ADD10C,0.020000*%
%ADD11C,0.200000*%
%ADD12C,0.250000*%
%ADD13C,0.150000*%
G04 APERTURE END LIST*
D10*
D11*
X141255715Y-108402381D02*
X140684286Y-108402381D01*
X140970000Y-108402381D02*
X140970000Y-107402381D01*
X140874762Y-107545238D01*
X140779524Y-107640476D01*
X140684286Y-107688095D01*
X128555715Y-108402381D02*
X127984286Y-108402381D01*
X128270000Y-108402381D02*
X128270000Y-107402381D01*
X128174762Y-107545238D01*
X128079524Y-107640476D01*
X127984286Y-107688095D01*
X140779524Y-143962381D02*
X140208095Y-143962381D01*
X140493809Y-143962381D02*
X140493809Y-142962381D01*
X140398571Y-143105238D01*
X140303333Y-143200476D01*
X140208095Y-143248095D01*
X141684286Y-142962381D02*
X141208095Y-142962381D01*
X141160476Y-143438571D01*
X141208095Y-143390952D01*
X141303333Y-143343333D01*
X141541429Y-143343333D01*
X141636667Y-143390952D01*
X141684286Y-143438571D01*
X141731905Y-143533810D01*
X141731905Y-143771905D01*
X141684286Y-143867143D01*
X141636667Y-143914762D01*
X141541429Y-143962381D01*
X141303333Y-143962381D01*
X141208095Y-143914762D01*
X141160476Y-143867143D01*
X128079524Y-143962381D02*
X127508095Y-143962381D01*
X127793809Y-143962381D02*
X127793809Y-142962381D01*
X127698571Y-143105238D01*
X127603333Y-143200476D01*
X127508095Y-143248095D01*
X128984286Y-142962381D02*
X128508095Y-142962381D01*
X128460476Y-143438571D01*
X128508095Y-143390952D01*
X128603333Y-143343333D01*
X128841429Y-143343333D01*
X128936667Y-143390952D01*
X128984286Y-143438571D01*
X129031905Y-143533810D01*
X129031905Y-143771905D01*
X128984286Y-143867143D01*
X128936667Y-143914762D01*
X128841429Y-143962381D01*
X128603333Y-143962381D01*
X128508095Y-143914762D01*
X128460476Y-143867143D01*
X142049524Y-102052381D02*
X141478095Y-102052381D01*
X141763809Y-102052381D02*
X141763809Y-101052381D01*
X141668571Y-101195238D01*
X141573333Y-101290476D01*
X141478095Y-101338095D01*
X142954286Y-101052381D02*
X142478095Y-101052381D01*
X142430476Y-101528571D01*
X142478095Y-101480952D01*
X142573333Y-101433333D01*
X142811429Y-101433333D01*
X142906667Y-101480952D01*
X142954286Y-101528571D01*
X143001905Y-101623810D01*
X143001905Y-101861905D01*
X142954286Y-101957143D01*
X142906667Y-102004762D01*
X142811429Y-102052381D01*
X142573333Y-102052381D01*
X142478095Y-102004762D01*
X142430476Y-101957143D01*
X101885715Y-102052381D02*
X101314286Y-102052381D01*
X101600000Y-102052381D02*
X101600000Y-101052381D01*
X101504762Y-101195238D01*
X101409524Y-101290476D01*
X101314286Y-101338095D01*
X153479524Y-143962381D02*
X152908095Y-143962381D01*
X153193809Y-143962381D02*
X153193809Y-142962381D01*
X153098571Y-143105238D01*
X153003333Y-143200476D01*
X152908095Y-143248095D01*
X154384286Y-142962381D02*
X153908095Y-142962381D01*
X153860476Y-143438571D01*
X153908095Y-143390952D01*
X154003333Y-143343333D01*
X154241429Y-143343333D01*
X154336667Y-143390952D01*
X154384286Y-143438571D01*
X154431905Y-143533810D01*
X154431905Y-143771905D01*
X154384286Y-143867143D01*
X154336667Y-143914762D01*
X154241429Y-143962381D01*
X154003333Y-143962381D01*
X153908095Y-143914762D01*
X153860476Y-143867143D01*
X138239524Y-143962381D02*
X137668095Y-143962381D01*
X137953809Y-143962381D02*
X137953809Y-142962381D01*
X137858571Y-143105238D01*
X137763333Y-143200476D01*
X137668095Y-143248095D01*
X139144286Y-142962381D02*
X138668095Y-142962381D01*
X138620476Y-143438571D01*
X138668095Y-143390952D01*
X138763333Y-143343333D01*
X139001429Y-143343333D01*
X139096667Y-143390952D01*
X139144286Y-143438571D01*
X139191905Y-143533810D01*
X139191905Y-143771905D01*
X139144286Y-143867143D01*
X139096667Y-143914762D01*
X139001429Y-143962381D01*
X138763333Y-143962381D01*
X138668095Y-143914762D01*
X138620476Y-143867143D01*
X125539524Y-143962381D02*
X124968095Y-143962381D01*
X125253809Y-143962381D02*
X125253809Y-142962381D01*
X125158571Y-143105238D01*
X125063333Y-143200476D01*
X124968095Y-143248095D01*
X126444286Y-142962381D02*
X125968095Y-142962381D01*
X125920476Y-143438571D01*
X125968095Y-143390952D01*
X126063333Y-143343333D01*
X126301429Y-143343333D01*
X126396667Y-143390952D01*
X126444286Y-143438571D01*
X126491905Y-143533810D01*
X126491905Y-143771905D01*
X126444286Y-143867143D01*
X126396667Y-143914762D01*
X126301429Y-143962381D01*
X126063333Y-143962381D01*
X125968095Y-143914762D01*
X125920476Y-143867143D01*
X115379524Y-143962381D02*
X114808095Y-143962381D01*
X115093809Y-143962381D02*
X115093809Y-142962381D01*
X114998571Y-143105238D01*
X114903333Y-143200476D01*
X114808095Y-143248095D01*
X116284286Y-142962381D02*
X115808095Y-142962381D01*
X115760476Y-143438571D01*
X115808095Y-143390952D01*
X115903333Y-143343333D01*
X116141429Y-143343333D01*
X116236667Y-143390952D01*
X116284286Y-143438571D01*
X116331905Y-143533810D01*
X116331905Y-143771905D01*
X116284286Y-143867143D01*
X116236667Y-143914762D01*
X116141429Y-143962381D01*
X115903333Y-143962381D01*
X115808095Y-143914762D01*
X115760476Y-143867143D01*
X153955715Y-108402381D02*
X153384286Y-108402381D01*
X153670000Y-108402381D02*
X153670000Y-107402381D01*
X153574762Y-107545238D01*
X153479524Y-107640476D01*
X153384286Y-107688095D01*
X138715715Y-108402381D02*
X138144286Y-108402381D01*
X138430000Y-108402381D02*
X138430000Y-107402381D01*
X138334762Y-107545238D01*
X138239524Y-107640476D01*
X138144286Y-107688095D01*
X126015715Y-108402381D02*
X125444286Y-108402381D01*
X125730000Y-108402381D02*
X125730000Y-107402381D01*
X125634762Y-107545238D01*
X125539524Y-107640476D01*
X125444286Y-107688095D01*
X115855715Y-108402381D02*
X115284286Y-108402381D01*
X115570000Y-108402381D02*
X115570000Y-107402381D01*
X115474762Y-107545238D01*
X115379524Y-107640476D01*
X115284286Y-107688095D01*
X102679524Y-143962381D02*
X102108095Y-143962381D01*
X102393809Y-143962381D02*
X102393809Y-142962381D01*
X102298571Y-143105238D01*
X102203333Y-143200476D01*
X102108095Y-143248095D01*
X103584286Y-142962381D02*
X103108095Y-142962381D01*
X103060476Y-143438571D01*
X103108095Y-143390952D01*
X103203333Y-143343333D01*
X103441429Y-143343333D01*
X103536667Y-143390952D01*
X103584286Y-143438571D01*
X103631905Y-143533810D01*
X103631905Y-143771905D01*
X103584286Y-143867143D01*
X103536667Y-143914762D01*
X103441429Y-143962381D01*
X103203333Y-143962381D01*
X103108095Y-143914762D01*
X103060476Y-143867143D01*
X103155715Y-108402381D02*
X102584286Y-108402381D01*
X102870000Y-108402381D02*
X102870000Y-107402381D01*
X102774762Y-107545238D01*
X102679524Y-107640476D01*
X102584286Y-107688095D01*
X89979524Y-136342381D02*
X89408095Y-136342381D01*
X89693809Y-136342381D02*
X89693809Y-135342381D01*
X89598571Y-135485238D01*
X89503333Y-135580476D01*
X89408095Y-135628095D01*
X90360476Y-135437619D02*
X90408095Y-135390000D01*
X90503333Y-135342381D01*
X90741429Y-135342381D01*
X90836667Y-135390000D01*
X90884286Y-135437619D01*
X90931905Y-135532857D01*
X90931905Y-135628095D01*
X90884286Y-135770952D01*
X90312857Y-136342381D01*
X90931905Y-136342381D01*
X90455715Y-108402381D02*
X89884286Y-108402381D01*
X90170000Y-108402381D02*
X90170000Y-107402381D01*
X90074762Y-107545238D01*
X89979524Y-107640476D01*
X89884286Y-107688095D01*
D12*
X107358571Y-139420478D02*
X105858571Y-139420478D01*
X105858571Y-139182383D01*
X105930000Y-139039525D01*
X106072857Y-138944287D01*
X106215714Y-138896668D01*
X106501429Y-138849049D01*
X106715714Y-138849049D01*
X107001429Y-138896668D01*
X107144286Y-138944287D01*
X107287143Y-139039525D01*
X107358571Y-139182383D01*
X107358571Y-139420478D01*
X107287143Y-138039525D02*
X107358571Y-138134763D01*
X107358571Y-138325240D01*
X107287143Y-138420478D01*
X107144286Y-138468097D01*
X106572857Y-138468097D01*
X106430000Y-138420478D01*
X106358571Y-138325240D01*
X106358571Y-138134763D01*
X106430000Y-138039525D01*
X106572857Y-137991906D01*
X106715714Y-137991906D01*
X106858571Y-138468097D01*
X107287143Y-137610954D02*
X107358571Y-137515716D01*
X107358571Y-137325240D01*
X107287143Y-137230001D01*
X107144286Y-137182382D01*
X107072857Y-137182382D01*
X106930000Y-137230001D01*
X106858571Y-137325240D01*
X106858571Y-137468097D01*
X106787143Y-137563335D01*
X106644286Y-137610954D01*
X106572857Y-137610954D01*
X106430000Y-137563335D01*
X106358571Y-137468097D01*
X106358571Y-137325240D01*
X106430000Y-137230001D01*
X107358571Y-136753811D02*
X106358571Y-136753811D01*
X105858571Y-136753811D02*
X105930000Y-136801430D01*
X106001429Y-136753811D01*
X105930000Y-136706192D01*
X105858571Y-136753811D01*
X106001429Y-136753811D01*
X106358571Y-135849049D02*
X107572857Y-135849049D01*
X107715714Y-135896668D01*
X107787143Y-135944287D01*
X107858571Y-136039526D01*
X107858571Y-136182383D01*
X107787143Y-136277621D01*
X107287143Y-135849049D02*
X107358571Y-135944287D01*
X107358571Y-136134764D01*
X107287143Y-136230002D01*
X107215714Y-136277621D01*
X107072857Y-136325240D01*
X106644286Y-136325240D01*
X106501429Y-136277621D01*
X106430000Y-136230002D01*
X106358571Y-136134764D01*
X106358571Y-135944287D01*
X106430000Y-135849049D01*
X106358571Y-135372859D02*
X107358571Y-135372859D01*
X106501429Y-135372859D02*
X106430000Y-135325240D01*
X106358571Y-135230002D01*
X106358571Y-135087144D01*
X106430000Y-134991906D01*
X106572857Y-134944287D01*
X107358571Y-134944287D01*
X107287143Y-134087144D02*
X107358571Y-134182382D01*
X107358571Y-134372859D01*
X107287143Y-134468097D01*
X107144286Y-134515716D01*
X106572857Y-134515716D01*
X106430000Y-134468097D01*
X106358571Y-134372859D01*
X106358571Y-134182382D01*
X106430000Y-134087144D01*
X106572857Y-134039525D01*
X106715714Y-134039525D01*
X106858571Y-134515716D01*
X107358571Y-133182382D02*
X105858571Y-133182382D01*
X107287143Y-133182382D02*
X107358571Y-133277620D01*
X107358571Y-133468097D01*
X107287143Y-133563335D01*
X107215714Y-133610954D01*
X107072857Y-133658573D01*
X106644286Y-133658573D01*
X106501429Y-133610954D01*
X106430000Y-133563335D01*
X106358571Y-133468097D01*
X106358571Y-133277620D01*
X106430000Y-133182382D01*
X107358571Y-131515715D02*
X106572857Y-131515715D01*
X106430000Y-131563334D01*
X106358571Y-131658572D01*
X106358571Y-131849049D01*
X106430000Y-131944287D01*
X107287143Y-131515715D02*
X107358571Y-131610953D01*
X107358571Y-131849049D01*
X107287143Y-131944287D01*
X107144286Y-131991906D01*
X107001429Y-131991906D01*
X106858571Y-131944287D01*
X106787143Y-131849049D01*
X106787143Y-131610953D01*
X106715714Y-131515715D01*
X106358571Y-131039525D02*
X107358571Y-131039525D01*
X106501429Y-131039525D02*
X106430000Y-130991906D01*
X106358571Y-130896668D01*
X106358571Y-130753810D01*
X106430000Y-130658572D01*
X106572857Y-130610953D01*
X107358571Y-130610953D01*
X107358571Y-129706191D02*
X105858571Y-129706191D01*
X107287143Y-129706191D02*
X107358571Y-129801429D01*
X107358571Y-129991906D01*
X107287143Y-130087144D01*
X107215714Y-130134763D01*
X107072857Y-130182382D01*
X106644286Y-130182382D01*
X106501429Y-130134763D01*
X106430000Y-130087144D01*
X106358571Y-129991906D01*
X106358571Y-129801429D01*
X106430000Y-129706191D01*
X107358571Y-128039524D02*
X106572857Y-128039524D01*
X106430000Y-128087143D01*
X106358571Y-128182381D01*
X106358571Y-128372858D01*
X106430000Y-128468096D01*
X107287143Y-128039524D02*
X107358571Y-128134762D01*
X107358571Y-128372858D01*
X107287143Y-128468096D01*
X107144286Y-128515715D01*
X107001429Y-128515715D01*
X106858571Y-128468096D01*
X106787143Y-128372858D01*
X106787143Y-128134762D01*
X106715714Y-128039524D01*
X107287143Y-127610953D02*
X107358571Y-127515715D01*
X107358571Y-127325239D01*
X107287143Y-127230000D01*
X107144286Y-127182381D01*
X107072857Y-127182381D01*
X106930000Y-127230000D01*
X106858571Y-127325239D01*
X106858571Y-127468096D01*
X106787143Y-127563334D01*
X106644286Y-127610953D01*
X106572857Y-127610953D01*
X106430000Y-127563334D01*
X106358571Y-127468096D01*
X106358571Y-127325239D01*
X106430000Y-127230000D01*
X107287143Y-126801429D02*
X107358571Y-126706191D01*
X107358571Y-126515715D01*
X107287143Y-126420476D01*
X107144286Y-126372857D01*
X107072857Y-126372857D01*
X106930000Y-126420476D01*
X106858571Y-126515715D01*
X106858571Y-126658572D01*
X106787143Y-126753810D01*
X106644286Y-126801429D01*
X106572857Y-126801429D01*
X106430000Y-126753810D01*
X106358571Y-126658572D01*
X106358571Y-126515715D01*
X106430000Y-126420476D01*
X107287143Y-125563333D02*
X107358571Y-125658571D01*
X107358571Y-125849048D01*
X107287143Y-125944286D01*
X107144286Y-125991905D01*
X106572857Y-125991905D01*
X106430000Y-125944286D01*
X106358571Y-125849048D01*
X106358571Y-125658571D01*
X106430000Y-125563333D01*
X106572857Y-125515714D01*
X106715714Y-125515714D01*
X106858571Y-125991905D01*
X107358571Y-125087143D02*
X106358571Y-125087143D01*
X106501429Y-125087143D02*
X106430000Y-125039524D01*
X106358571Y-124944286D01*
X106358571Y-124801428D01*
X106430000Y-124706190D01*
X106572857Y-124658571D01*
X107358571Y-124658571D01*
X106572857Y-124658571D02*
X106430000Y-124610952D01*
X106358571Y-124515714D01*
X106358571Y-124372857D01*
X106430000Y-124277619D01*
X106572857Y-124230000D01*
X107358571Y-124230000D01*
X107358571Y-123753810D02*
X105858571Y-123753810D01*
X106430000Y-123753810D02*
X106358571Y-123658572D01*
X106358571Y-123468095D01*
X106430000Y-123372857D01*
X106501429Y-123325238D01*
X106644286Y-123277619D01*
X107072857Y-123277619D01*
X107215714Y-123325238D01*
X107287143Y-123372857D01*
X107358571Y-123468095D01*
X107358571Y-123658572D01*
X107287143Y-123753810D01*
X107358571Y-122706191D02*
X107287143Y-122801429D01*
X107144286Y-122849048D01*
X105858571Y-122849048D01*
X107287143Y-121944285D02*
X107358571Y-122039523D01*
X107358571Y-122230000D01*
X107287143Y-122325238D01*
X107144286Y-122372857D01*
X106572857Y-122372857D01*
X106430000Y-122325238D01*
X106358571Y-122230000D01*
X106358571Y-122039523D01*
X106430000Y-121944285D01*
X106572857Y-121896666D01*
X106715714Y-121896666D01*
X106858571Y-122372857D01*
X107358571Y-121039523D02*
X105858571Y-121039523D01*
X107287143Y-121039523D02*
X107358571Y-121134761D01*
X107358571Y-121325238D01*
X107287143Y-121420476D01*
X107215714Y-121468095D01*
X107072857Y-121515714D01*
X106644286Y-121515714D01*
X106501429Y-121468095D01*
X106430000Y-121420476D01*
X106358571Y-121325238D01*
X106358571Y-121134761D01*
X106430000Y-121039523D01*
X107358571Y-119801428D02*
X105858571Y-119801428D01*
X106430000Y-119801428D02*
X106358571Y-119706190D01*
X106358571Y-119515713D01*
X106430000Y-119420475D01*
X106501429Y-119372856D01*
X106644286Y-119325237D01*
X107072857Y-119325237D01*
X107215714Y-119372856D01*
X107287143Y-119420475D01*
X107358571Y-119515713D01*
X107358571Y-119706190D01*
X107287143Y-119801428D01*
X106358571Y-118991904D02*
X107358571Y-118753809D01*
X106358571Y-118515713D02*
X107358571Y-118753809D01*
X107715714Y-118849047D01*
X107787143Y-118896666D01*
X107858571Y-118991904D01*
X107358571Y-116944284D02*
X105858571Y-116944284D01*
X107287143Y-116944284D02*
X107358571Y-117039522D01*
X107358571Y-117229999D01*
X107287143Y-117325237D01*
X107215714Y-117372856D01*
X107072857Y-117420475D01*
X106644286Y-117420475D01*
X106501429Y-117372856D01*
X106430000Y-117325237D01*
X106358571Y-117229999D01*
X106358571Y-117039522D01*
X106430000Y-116944284D01*
X107358571Y-116468094D02*
X106358571Y-116468094D01*
X106501429Y-116468094D02*
X106430000Y-116420475D01*
X106358571Y-116325237D01*
X106358571Y-116182379D01*
X106430000Y-116087141D01*
X106572857Y-116039522D01*
X107358571Y-116039522D01*
X106572857Y-116039522D02*
X106430000Y-115991903D01*
X106358571Y-115896665D01*
X106358571Y-115753808D01*
X106430000Y-115658570D01*
X106572857Y-115610951D01*
X107358571Y-115610951D01*
X107358571Y-115134761D02*
X105858571Y-115134761D01*
X106787143Y-115039523D02*
X107358571Y-114753808D01*
X106358571Y-114753808D02*
X106930000Y-115134761D01*
X106358571Y-114468094D02*
X106358571Y-114087142D01*
X107358571Y-114325237D02*
X106072857Y-114325237D01*
X105930000Y-114277618D01*
X105858571Y-114182380D01*
X105858571Y-114087142D01*
X107358571Y-113325236D02*
X106572857Y-113325236D01*
X106430000Y-113372855D01*
X106358571Y-113468093D01*
X106358571Y-113658570D01*
X106430000Y-113753808D01*
X107287143Y-113325236D02*
X107358571Y-113420474D01*
X107358571Y-113658570D01*
X107287143Y-113753808D01*
X107144286Y-113801427D01*
X107001429Y-113801427D01*
X106858571Y-113753808D01*
X106787143Y-113658570D01*
X106787143Y-113420474D01*
X106715714Y-113325236D01*
X107287143Y-112896665D02*
X107358571Y-112801427D01*
X107358571Y-112610951D01*
X107287143Y-112515712D01*
X107144286Y-112468093D01*
X107072857Y-112468093D01*
X106930000Y-112515712D01*
X106858571Y-112610951D01*
X106858571Y-112753808D01*
X106787143Y-112849046D01*
X106644286Y-112896665D01*
X106572857Y-112896665D01*
X106430000Y-112849046D01*
X106358571Y-112753808D01*
X106358571Y-112610951D01*
X106430000Y-112515712D01*
X107358571Y-112039522D02*
X106358571Y-112039522D01*
X105858571Y-112039522D02*
X105930000Y-112087141D01*
X106001429Y-112039522D01*
X105930000Y-111991903D01*
X105858571Y-112039522D01*
X106001429Y-112039522D01*
X162285238Y-139729520D02*
X160085238Y-139729520D01*
X161656667Y-139362854D01*
X160085238Y-138996187D01*
X162285238Y-138996187D01*
X160818571Y-138000949D02*
X162285238Y-138000949D01*
X160818571Y-138472377D02*
X161970952Y-138472377D01*
X162180476Y-138419996D01*
X162285238Y-138315234D01*
X162285238Y-138158092D01*
X162180476Y-138053330D01*
X162075714Y-138000949D01*
X162285238Y-137319996D02*
X162180476Y-137424758D01*
X161970952Y-137477139D01*
X160085238Y-137477139D01*
X160818571Y-137058092D02*
X160818571Y-136639044D01*
X160085238Y-136900949D02*
X161970952Y-136900949D01*
X162180476Y-136848568D01*
X162285238Y-136743806D01*
X162285238Y-136639044D01*
X162285238Y-136272378D02*
X160818571Y-136272378D01*
X160085238Y-136272378D02*
X160190000Y-136324759D01*
X160294762Y-136272378D01*
X160190000Y-136219997D01*
X160085238Y-136272378D01*
X160294762Y-136272378D01*
X162285238Y-134910473D02*
X160085238Y-134910473D01*
X161656667Y-134543807D01*
X160085238Y-134177140D01*
X162285238Y-134177140D01*
X162285238Y-133496187D02*
X162180476Y-133600949D01*
X162075714Y-133653330D01*
X161866190Y-133705711D01*
X161237619Y-133705711D01*
X161028095Y-133653330D01*
X160923333Y-133600949D01*
X160818571Y-133496187D01*
X160818571Y-133339045D01*
X160923333Y-133234283D01*
X161028095Y-133181902D01*
X161237619Y-133129521D01*
X161866190Y-133129521D01*
X162075714Y-133181902D01*
X162180476Y-133234283D01*
X162285238Y-133339045D01*
X162285238Y-133496187D01*
X162285238Y-132658092D02*
X160818571Y-132658092D01*
X161237619Y-132658092D02*
X161028095Y-132605711D01*
X160923333Y-132553330D01*
X160818571Y-132448568D01*
X160818571Y-132343807D01*
X160818571Y-132134283D02*
X160818571Y-131715235D01*
X160085238Y-131977140D02*
X161970952Y-131977140D01*
X162180476Y-131924759D01*
X162285238Y-131819997D01*
X162285238Y-131715235D01*
X162285238Y-130877141D02*
X161132857Y-130877141D01*
X160923333Y-130929522D01*
X160818571Y-131034284D01*
X160818571Y-131243807D01*
X160923333Y-131348569D01*
X162180476Y-130877141D02*
X162285238Y-130981903D01*
X162285238Y-131243807D01*
X162180476Y-131348569D01*
X161970952Y-131400950D01*
X161761429Y-131400950D01*
X161551905Y-131348569D01*
X161447143Y-131243807D01*
X161447143Y-130981903D01*
X161342381Y-130877141D01*
X162285238Y-130196188D02*
X162180476Y-130300950D01*
X161970952Y-130353331D01*
X160085238Y-130353331D01*
X162285238Y-128939046D02*
X160085238Y-128939046D01*
X162285238Y-128310475D02*
X161028095Y-128781903D01*
X160085238Y-128310475D02*
X161342381Y-128939046D01*
X162285238Y-127681903D02*
X162180476Y-127786665D01*
X162075714Y-127839046D01*
X161866190Y-127891427D01*
X161237619Y-127891427D01*
X161028095Y-127839046D01*
X160923333Y-127786665D01*
X160818571Y-127681903D01*
X160818571Y-127524761D01*
X160923333Y-127419999D01*
X161028095Y-127367618D01*
X161237619Y-127315237D01*
X161866190Y-127315237D01*
X162075714Y-127367618D01*
X162180476Y-127419999D01*
X162285238Y-127524761D01*
X162285238Y-127681903D01*
X162285238Y-126843808D02*
X160818571Y-126843808D01*
X161028095Y-126843808D02*
X160923333Y-126791427D01*
X160818571Y-126686665D01*
X160818571Y-126529523D01*
X160923333Y-126424761D01*
X161132857Y-126372380D01*
X162285238Y-126372380D01*
X161132857Y-126372380D02*
X160923333Y-126319999D01*
X160818571Y-126215237D01*
X160818571Y-126058094D01*
X160923333Y-125953332D01*
X161132857Y-125900951D01*
X162285238Y-125900951D01*
X162285238Y-125377141D02*
X160085238Y-125377141D01*
X160923333Y-125377141D02*
X160818571Y-125272379D01*
X160818571Y-125062856D01*
X160923333Y-124958094D01*
X161028095Y-124905713D01*
X161237619Y-124853332D01*
X161866190Y-124853332D01*
X162075714Y-124905713D01*
X162180476Y-124958094D01*
X162285238Y-125062856D01*
X162285238Y-125272379D01*
X162180476Y-125377141D01*
X162285238Y-123910475D02*
X161132857Y-123910475D01*
X160923333Y-123962856D01*
X160818571Y-124067618D01*
X160818571Y-124277141D01*
X160923333Y-124381903D01*
X162180476Y-123910475D02*
X162285238Y-124015237D01*
X162285238Y-124277141D01*
X162180476Y-124381903D01*
X161970952Y-124434284D01*
X161761429Y-124434284D01*
X161551905Y-124381903D01*
X161447143Y-124277141D01*
X161447143Y-124015237D01*
X161342381Y-123910475D01*
X160818571Y-123543808D02*
X160818571Y-123124760D01*
X160085238Y-123386665D02*
X161970952Y-123386665D01*
X162180476Y-123334284D01*
X162285238Y-123229522D01*
X162285238Y-123124760D01*
X162180476Y-121500952D02*
X162285238Y-121605714D01*
X162285238Y-121815237D01*
X162180476Y-121919999D01*
X161970952Y-121972380D01*
X161132857Y-121972380D01*
X160923333Y-121919999D01*
X160818571Y-121815237D01*
X160818571Y-121605714D01*
X160923333Y-121500952D01*
X161132857Y-121448571D01*
X161342381Y-121448571D01*
X161551905Y-121972380D01*
X162285238Y-121081904D02*
X160818571Y-120505714D01*
X160818571Y-121081904D02*
X162285238Y-120505714D01*
X160818571Y-120243809D02*
X160818571Y-119824761D01*
X160085238Y-120086666D02*
X161970952Y-120086666D01*
X162180476Y-120034285D01*
X162285238Y-119929523D01*
X162285238Y-119824761D01*
X162285238Y-119458095D02*
X160818571Y-119458095D01*
X161237619Y-119458095D02*
X161028095Y-119405714D01*
X160923333Y-119353333D01*
X160818571Y-119248571D01*
X160818571Y-119143810D01*
X162285238Y-118305715D02*
X161132857Y-118305715D01*
X160923333Y-118358096D01*
X160818571Y-118462858D01*
X160818571Y-118672381D01*
X160923333Y-118777143D01*
X162180476Y-118305715D02*
X162285238Y-118410477D01*
X162285238Y-118672381D01*
X162180476Y-118777143D01*
X161970952Y-118829524D01*
X161761429Y-118829524D01*
X161551905Y-118777143D01*
X161447143Y-118672381D01*
X161447143Y-118410477D01*
X161342381Y-118305715D01*
X162285238Y-116943810D02*
X160085238Y-116943810D01*
X160923333Y-116943810D02*
X160818571Y-116839048D01*
X160818571Y-116629525D01*
X160923333Y-116524763D01*
X161028095Y-116472382D01*
X161237619Y-116420001D01*
X161866190Y-116420001D01*
X162075714Y-116472382D01*
X162180476Y-116524763D01*
X162285238Y-116629525D01*
X162285238Y-116839048D01*
X162180476Y-116943810D01*
X160818571Y-115477144D02*
X162285238Y-115477144D01*
X160818571Y-115948572D02*
X161970952Y-115948572D01*
X162180476Y-115896191D01*
X162285238Y-115791429D01*
X162285238Y-115634287D01*
X162180476Y-115529525D01*
X162075714Y-115477144D01*
X160818571Y-115110477D02*
X160818571Y-114691429D01*
X160085238Y-114953334D02*
X161970952Y-114953334D01*
X162180476Y-114900953D01*
X162285238Y-114796191D01*
X162285238Y-114691429D01*
X160818571Y-114481906D02*
X160818571Y-114062858D01*
X160085238Y-114324763D02*
X161970952Y-114324763D01*
X162180476Y-114272382D01*
X162285238Y-114167620D01*
X162285238Y-114062858D01*
X162285238Y-113539049D02*
X162180476Y-113643811D01*
X162075714Y-113696192D01*
X161866190Y-113748573D01*
X161237619Y-113748573D01*
X161028095Y-113696192D01*
X160923333Y-113643811D01*
X160818571Y-113539049D01*
X160818571Y-113381907D01*
X160923333Y-113277145D01*
X161028095Y-113224764D01*
X161237619Y-113172383D01*
X161866190Y-113172383D01*
X162075714Y-113224764D01*
X162180476Y-113277145D01*
X162285238Y-113381907D01*
X162285238Y-113539049D01*
X160818571Y-112700954D02*
X162285238Y-112700954D01*
X161028095Y-112700954D02*
X160923333Y-112648573D01*
X160818571Y-112543811D01*
X160818571Y-112386669D01*
X160923333Y-112281907D01*
X161132857Y-112229526D01*
X162285238Y-112229526D01*
X162180476Y-111758097D02*
X162285238Y-111653335D01*
X162285238Y-111443811D01*
X162180476Y-111339050D01*
X161970952Y-111286669D01*
X161866190Y-111286669D01*
X161656667Y-111339050D01*
X161551905Y-111443811D01*
X161551905Y-111600954D01*
X161447143Y-111705716D01*
X161237619Y-111758097D01*
X161132857Y-111758097D01*
X160923333Y-111705716D01*
X160818571Y-111600954D01*
X160818571Y-111443811D01*
X160923333Y-111339050D01*
X162285238Y-109977145D02*
X160085238Y-109977145D01*
X162285238Y-109505717D02*
X161132857Y-109505717D01*
X160923333Y-109558098D01*
X160818571Y-109662860D01*
X160818571Y-109820002D01*
X160923333Y-109924764D01*
X161028095Y-109977145D01*
X162285238Y-108510479D02*
X161132857Y-108510479D01*
X160923333Y-108562860D01*
X160818571Y-108667622D01*
X160818571Y-108877145D01*
X160923333Y-108981907D01*
X162180476Y-108510479D02*
X162285238Y-108615241D01*
X162285238Y-108877145D01*
X162180476Y-108981907D01*
X161970952Y-109034288D01*
X161761429Y-109034288D01*
X161551905Y-108981907D01*
X161447143Y-108877145D01*
X161447143Y-108615241D01*
X161342381Y-108510479D01*
X162285238Y-107986669D02*
X160818571Y-107986669D01*
X161237619Y-107986669D02*
X161028095Y-107934288D01*
X160923333Y-107881907D01*
X160818571Y-107777145D01*
X160818571Y-107672384D01*
X160818571Y-107305717D02*
X162285238Y-107305717D01*
X161028095Y-107305717D02*
X160923333Y-107253336D01*
X160818571Y-107148574D01*
X160818571Y-106991432D01*
X160923333Y-106886670D01*
X161132857Y-106834289D01*
X162285238Y-106834289D01*
X162180476Y-105891432D02*
X162285238Y-105996194D01*
X162285238Y-106205717D01*
X162180476Y-106310479D01*
X161970952Y-106362860D01*
X161132857Y-106362860D01*
X160923333Y-106310479D01*
X160818571Y-106205717D01*
X160818571Y-105996194D01*
X160923333Y-105891432D01*
X161132857Y-105839051D01*
X161342381Y-105839051D01*
X161551905Y-106362860D01*
X162180476Y-105420003D02*
X162285238Y-105315241D01*
X162285238Y-105105717D01*
X162180476Y-105000956D01*
X161970952Y-104948575D01*
X161866190Y-104948575D01*
X161656667Y-105000956D01*
X161551905Y-105105717D01*
X161551905Y-105262860D01*
X161447143Y-105367622D01*
X161237619Y-105420003D01*
X161132857Y-105420003D01*
X160923333Y-105367622D01*
X160818571Y-105262860D01*
X160818571Y-105105717D01*
X160923333Y-105000956D01*
X162180476Y-104529527D02*
X162285238Y-104424765D01*
X162285238Y-104215241D01*
X162180476Y-104110480D01*
X161970952Y-104058099D01*
X161866190Y-104058099D01*
X161656667Y-104110480D01*
X161551905Y-104215241D01*
X161551905Y-104372384D01*
X161447143Y-104477146D01*
X161237619Y-104529527D01*
X161132857Y-104529527D01*
X160923333Y-104477146D01*
X160818571Y-104372384D01*
X160818571Y-104215241D01*
X160923333Y-104110480D01*
D13*
X124460000Y-109220000D02*
X124460000Y-144780000D01*
X124460000Y-144780000D02*
X127000000Y-144780000D01*
X127000000Y-144780000D02*
X127000000Y-109220000D01*
X127280000Y-106400000D02*
X127280000Y-107950000D01*
X127000000Y-109220000D02*
X124460000Y-109220000D01*
X124180000Y-107950000D02*
X124180000Y-106400000D01*
X124180000Y-106400000D02*
X127280000Y-106400000D01*
X137160000Y-109220000D02*
X137160000Y-144780000D01*
X137160000Y-144780000D02*
X139700000Y-144780000D01*
X139700000Y-144780000D02*
X139700000Y-109220000D01*
X139980000Y-106400000D02*
X139980000Y-107950000D01*
X139700000Y-109220000D02*
X137160000Y-109220000D01*
X136880000Y-107950000D02*
X136880000Y-106400000D01*
X136880000Y-106400000D02*
X139980000Y-106400000D01*
X99060000Y-109220000D02*
X99060000Y-144780000D01*
X99060000Y-144780000D02*
X101600000Y-144780000D01*
X101600000Y-144780000D02*
X101600000Y-109220000D01*
X101880000Y-106400000D02*
X101880000Y-107950000D01*
X101600000Y-109220000D02*
X99060000Y-109220000D01*
X98780000Y-107950000D02*
X98780000Y-106400000D01*
X98780000Y-106400000D02*
X101880000Y-106400000D01*
X88900000Y-109220000D02*
X88900000Y-137160000D01*
X88900000Y-137160000D02*
X86360000Y-137160000D01*
X86360000Y-137160000D02*
X86360000Y-109220000D01*
X89180000Y-106400000D02*
X89180000Y-107950000D01*
X88900000Y-109220000D02*
X86360000Y-109220000D01*
X86080000Y-107950000D02*
X86080000Y-106400000D01*
X86080000Y-106400000D02*
X89180000Y-106400000D01*
X111760000Y-109220000D02*
X111760000Y-144780000D01*
X111760000Y-144780000D02*
X114300000Y-144780000D01*
X114300000Y-144780000D02*
X114300000Y-109220000D01*
X114580000Y-106400000D02*
X114580000Y-107950000D01*
X114300000Y-109220000D02*
X111760000Y-109220000D01*
X111480000Y-107950000D02*
X111480000Y-106400000D01*
X111480000Y-106400000D02*
X114580000Y-106400000D01*
X149860000Y-109220000D02*
X149860000Y-144780000D01*
X149860000Y-144780000D02*
X152400000Y-144780000D01*
X152400000Y-144780000D02*
X152400000Y-109220000D01*
X152680000Y-106400000D02*
X152680000Y-107950000D01*
X152400000Y-109220000D02*
X149860000Y-109220000D01*
X149580000Y-107950000D02*
X149580000Y-106400000D01*
X149580000Y-106400000D02*
X152680000Y-106400000D01*
X95279160Y-127619760D02*
X95230900Y-127619760D01*
X92480180Y-128320800D02*
X92480180Y-127619760D01*
X92480180Y-127619760D02*
X92729100Y-127619760D01*
X95279160Y-127619760D02*
X95479820Y-127619760D01*
X95479820Y-127619760D02*
X95479820Y-128320800D01*
X120679160Y-135239760D02*
X120630900Y-135239760D01*
X117880180Y-135940800D02*
X117880180Y-135239760D01*
X117880180Y-135239760D02*
X118129100Y-135239760D01*
X120679160Y-135239760D02*
X120879820Y-135239760D01*
X120879820Y-135239760D02*
X120879820Y-135940800D01*
X146079160Y-135239760D02*
X146030900Y-135239760D01*
X143280180Y-135940800D02*
X143280180Y-135239760D01*
X143280180Y-135239760D02*
X143529100Y-135239760D01*
X146079160Y-135239760D02*
X146279820Y-135239760D01*
X146279820Y-135239760D02*
X146279820Y-135940800D01*
X95279160Y-133969760D02*
X95230900Y-133969760D01*
X92480180Y-134670800D02*
X92480180Y-133969760D01*
X92480180Y-133969760D02*
X92729100Y-133969760D01*
X95279160Y-133969760D02*
X95479820Y-133969760D01*
X95479820Y-133969760D02*
X95479820Y-134670800D01*
X120679160Y-141589760D02*
X120630900Y-141589760D01*
X117880180Y-142290800D02*
X117880180Y-141589760D01*
X117880180Y-141589760D02*
X118129100Y-141589760D01*
X120679160Y-141589760D02*
X120879820Y-141589760D01*
X120879820Y-141589760D02*
X120879820Y-142290800D01*
X95279160Y-121269760D02*
X95230900Y-121269760D01*
X92480180Y-121970800D02*
X92480180Y-121269760D01*
X92480180Y-121269760D02*
X92729100Y-121269760D01*
X95279160Y-121269760D02*
X95479820Y-121269760D01*
X95479820Y-121269760D02*
X95479820Y-121970800D01*
X95279160Y-114919760D02*
X95230900Y-114919760D01*
X92480180Y-115620800D02*
X92480180Y-114919760D01*
X92480180Y-114919760D02*
X92729100Y-114919760D01*
X95279160Y-114919760D02*
X95479820Y-114919760D01*
X95479820Y-114919760D02*
X95479820Y-115620800D01*
X120679160Y-122539760D02*
X120630900Y-122539760D01*
X117880180Y-123240800D02*
X117880180Y-122539760D01*
X117880180Y-122539760D02*
X118129100Y-122539760D01*
X120679160Y-122539760D02*
X120879820Y-122539760D01*
X120879820Y-122539760D02*
X120879820Y-123240800D01*
X146079160Y-122539760D02*
X146030900Y-122539760D01*
X143280180Y-123240800D02*
X143280180Y-122539760D01*
X143280180Y-122539760D02*
X143529100Y-122539760D01*
X146079160Y-122539760D02*
X146279820Y-122539760D01*
X146279820Y-122539760D02*
X146279820Y-123240800D01*
X133379160Y-135239760D02*
X133330900Y-135239760D01*
X130580180Y-135940800D02*
X130580180Y-135239760D01*
X130580180Y-135239760D02*
X130829100Y-135239760D01*
X133379160Y-135239760D02*
X133579820Y-135239760D01*
X133579820Y-135239760D02*
X133579820Y-135940800D01*
X120679160Y-128889760D02*
X120630900Y-128889760D01*
X117880180Y-129590800D02*
X117880180Y-128889760D01*
X117880180Y-128889760D02*
X118129100Y-128889760D01*
X120679160Y-128889760D02*
X120879820Y-128889760D01*
X120879820Y-128889760D02*
X120879820Y-129590800D01*
X133379160Y-141589760D02*
X133330900Y-141589760D01*
X130580180Y-142290800D02*
X130580180Y-141589760D01*
X130580180Y-141589760D02*
X130829100Y-141589760D01*
X133379160Y-141589760D02*
X133579820Y-141589760D01*
X133579820Y-141589760D02*
X133579820Y-142290800D01*
X146079160Y-128889760D02*
X146030900Y-128889760D01*
X143280180Y-129590800D02*
X143280180Y-128889760D01*
X143280180Y-128889760D02*
X143529100Y-128889760D01*
X146079160Y-128889760D02*
X146279820Y-128889760D01*
X146279820Y-128889760D02*
X146279820Y-129590800D01*
X146079160Y-141589760D02*
X146030900Y-141589760D01*
X143280180Y-142290800D02*
X143280180Y-141589760D01*
X143280180Y-141589760D02*
X143529100Y-141589760D01*
X146079160Y-141589760D02*
X146279820Y-141589760D01*
X146279820Y-141589760D02*
X146279820Y-142290800D01*
X154889200Y-117709760D02*
X155790000Y-118710520D01*
X155790000Y-118710520D02*
X154090000Y-118710520D01*
X154090000Y-118710520D02*
X154940000Y-117709760D01*
X155790000Y-117709760D02*
X154090000Y-117709760D01*
X154889200Y-132949760D02*
X155790000Y-133950520D01*
X155790000Y-133950520D02*
X154090000Y-133950520D01*
X154090000Y-133950520D02*
X154940000Y-132949760D01*
X155790000Y-132949760D02*
X154090000Y-132949760D01*
X105410000Y-102870000D02*
X140970000Y-102870000D01*
X140970000Y-102870000D02*
X140970000Y-100330000D01*
X140970000Y-100330000D02*
X105410000Y-100330000D01*
X102590000Y-100050000D02*
X104140000Y-100050000D01*
X105410000Y-100330000D02*
X105410000Y-102870000D01*
X104140000Y-103150000D02*
X102590000Y-103150000D01*
X102590000Y-103150000D02*
X102590000Y-100050000D01*
D11*
X122642381Y-143843333D02*
X123356667Y-143843333D01*
X123499524Y-143890953D01*
X123594762Y-143986191D01*
X123642381Y-144129048D01*
X123642381Y-144224286D01*
X122975714Y-142938571D02*
X123642381Y-142938571D01*
X122594762Y-143176667D02*
X123309048Y-143414762D01*
X123309048Y-142795714D01*
X123642381Y-119172858D02*
X122642381Y-119172858D01*
X123356667Y-118839524D01*
X122642381Y-118506191D01*
X123642381Y-118506191D01*
X123642381Y-117887144D02*
X123594762Y-117982382D01*
X123547143Y-118030001D01*
X123451905Y-118077620D01*
X123166190Y-118077620D01*
X123070952Y-118030001D01*
X123023333Y-117982382D01*
X122975714Y-117887144D01*
X122975714Y-117744286D01*
X123023333Y-117649048D01*
X123070952Y-117601429D01*
X123166190Y-117553810D01*
X123451905Y-117553810D01*
X123547143Y-117601429D01*
X123594762Y-117649048D01*
X123642381Y-117744286D01*
X123642381Y-117887144D01*
X123642381Y-117125239D02*
X122975714Y-117125239D01*
X123166190Y-117125239D02*
X123070952Y-117077620D01*
X123023333Y-117030001D01*
X122975714Y-116934763D01*
X122975714Y-116839524D01*
X122975714Y-116649048D02*
X122975714Y-116268096D01*
X122642381Y-116506191D02*
X123499524Y-116506191D01*
X123594762Y-116458572D01*
X123642381Y-116363334D01*
X123642381Y-116268096D01*
X123642381Y-115506190D02*
X123118571Y-115506190D01*
X123023333Y-115553809D01*
X122975714Y-115649047D01*
X122975714Y-115839524D01*
X123023333Y-115934762D01*
X123594762Y-115506190D02*
X123642381Y-115601428D01*
X123642381Y-115839524D01*
X123594762Y-115934762D01*
X123499524Y-115982381D01*
X123404286Y-115982381D01*
X123309048Y-115934762D01*
X123261429Y-115839524D01*
X123261429Y-115601428D01*
X123213810Y-115506190D01*
X123642381Y-114887143D02*
X123594762Y-114982381D01*
X123499524Y-115030000D01*
X122642381Y-115030000D01*
X123642381Y-113744285D02*
X122642381Y-113744285D01*
X123642381Y-113172856D02*
X123070952Y-113601428D01*
X122642381Y-113172856D02*
X123213810Y-113744285D01*
X123642381Y-112601428D02*
X123594762Y-112696666D01*
X123547143Y-112744285D01*
X123451905Y-112791904D01*
X123166190Y-112791904D01*
X123070952Y-112744285D01*
X123023333Y-112696666D01*
X122975714Y-112601428D01*
X122975714Y-112458570D01*
X123023333Y-112363332D01*
X123070952Y-112315713D01*
X123166190Y-112268094D01*
X123451905Y-112268094D01*
X123547143Y-112315713D01*
X123594762Y-112363332D01*
X123642381Y-112458570D01*
X123642381Y-112601428D01*
X123642381Y-111839523D02*
X122975714Y-111839523D01*
X123070952Y-111839523D02*
X123023333Y-111791904D01*
X122975714Y-111696666D01*
X122975714Y-111553808D01*
X123023333Y-111458570D01*
X123118571Y-111410951D01*
X123642381Y-111410951D01*
X123118571Y-111410951D02*
X123023333Y-111363332D01*
X122975714Y-111268094D01*
X122975714Y-111125237D01*
X123023333Y-111029999D01*
X123118571Y-110982380D01*
X123642381Y-110982380D01*
X123642381Y-110506190D02*
X122642381Y-110506190D01*
X123023333Y-110506190D02*
X122975714Y-110410952D01*
X122975714Y-110220475D01*
X123023333Y-110125237D01*
X123070952Y-110077618D01*
X123166190Y-110029999D01*
X123451905Y-110029999D01*
X123547143Y-110077618D01*
X123594762Y-110125237D01*
X123642381Y-110220475D01*
X123642381Y-110410952D01*
X123594762Y-110506190D01*
X123642381Y-109172856D02*
X123118571Y-109172856D01*
X123023333Y-109220475D01*
X122975714Y-109315713D01*
X122975714Y-109506190D01*
X123023333Y-109601428D01*
X123594762Y-109172856D02*
X123642381Y-109268094D01*
X123642381Y-109506190D01*
X123594762Y-109601428D01*
X123499524Y-109649047D01*
X123404286Y-109649047D01*
X123309048Y-109601428D01*
X123261429Y-109506190D01*
X123261429Y-109268094D01*
X123213810Y-109172856D01*
X122975714Y-108839523D02*
X122975714Y-108458571D01*
X122642381Y-108696666D02*
X123499524Y-108696666D01*
X123594762Y-108649047D01*
X123642381Y-108553809D01*
X123642381Y-108458571D01*
X122642381Y-107458570D02*
X122642381Y-106839522D01*
X123023333Y-107172856D01*
X123023333Y-107029998D01*
X123070952Y-106934760D01*
X123118571Y-106887141D01*
X123213810Y-106839522D01*
X123451905Y-106839522D01*
X123547143Y-106887141D01*
X123594762Y-106934760D01*
X123642381Y-107029998D01*
X123642381Y-107315713D01*
X123594762Y-107410951D01*
X123547143Y-107458570D01*
X135342381Y-143843333D02*
X136056667Y-143843333D01*
X136199524Y-143890953D01*
X136294762Y-143986191D01*
X136342381Y-144129048D01*
X136342381Y-144224286D01*
X135342381Y-142890952D02*
X135342381Y-143367143D01*
X135818571Y-143414762D01*
X135770952Y-143367143D01*
X135723333Y-143271905D01*
X135723333Y-143033809D01*
X135770952Y-142938571D01*
X135818571Y-142890952D01*
X135913810Y-142843333D01*
X136151905Y-142843333D01*
X136247143Y-142890952D01*
X136294762Y-142938571D01*
X136342381Y-143033809D01*
X136342381Y-143271905D01*
X136294762Y-143367143D01*
X136247143Y-143414762D01*
X135342381Y-126506668D02*
X136151905Y-126506668D01*
X136247143Y-126459049D01*
X136294762Y-126411430D01*
X136342381Y-126316192D01*
X136342381Y-126125715D01*
X136294762Y-126030477D01*
X136247143Y-125982858D01*
X136151905Y-125935239D01*
X135342381Y-125935239D01*
X136342381Y-125316192D02*
X136294762Y-125411430D01*
X136199524Y-125459049D01*
X135342381Y-125459049D01*
X135675714Y-125078096D02*
X135675714Y-124697144D01*
X135342381Y-124935239D02*
X136199524Y-124935239D01*
X136294762Y-124887620D01*
X136342381Y-124792382D01*
X136342381Y-124697144D01*
X136342381Y-124363810D02*
X135675714Y-124363810D01*
X135342381Y-124363810D02*
X135390000Y-124411429D01*
X135437619Y-124363810D01*
X135390000Y-124316191D01*
X135342381Y-124363810D01*
X135437619Y-124363810D01*
X136342381Y-123887620D02*
X135675714Y-123887620D01*
X135770952Y-123887620D02*
X135723333Y-123840001D01*
X135675714Y-123744763D01*
X135675714Y-123601905D01*
X135723333Y-123506667D01*
X135818571Y-123459048D01*
X136342381Y-123459048D01*
X135818571Y-123459048D02*
X135723333Y-123411429D01*
X135675714Y-123316191D01*
X135675714Y-123173334D01*
X135723333Y-123078096D01*
X135818571Y-123030477D01*
X136342381Y-123030477D01*
X136342381Y-122125715D02*
X135818571Y-122125715D01*
X135723333Y-122173334D01*
X135675714Y-122268572D01*
X135675714Y-122459049D01*
X135723333Y-122554287D01*
X136294762Y-122125715D02*
X136342381Y-122220953D01*
X136342381Y-122459049D01*
X136294762Y-122554287D01*
X136199524Y-122601906D01*
X136104286Y-122601906D01*
X136009048Y-122554287D01*
X135961429Y-122459049D01*
X135961429Y-122220953D01*
X135913810Y-122125715D01*
X135675714Y-121792382D02*
X135675714Y-121411430D01*
X135342381Y-121649525D02*
X136199524Y-121649525D01*
X136294762Y-121601906D01*
X136342381Y-121506668D01*
X136342381Y-121411430D01*
X136294762Y-120697143D02*
X136342381Y-120792381D01*
X136342381Y-120982858D01*
X136294762Y-121078096D01*
X136199524Y-121125715D01*
X135818571Y-121125715D01*
X135723333Y-121078096D01*
X135675714Y-120982858D01*
X135675714Y-120792381D01*
X135723333Y-120697143D01*
X135818571Y-120649524D01*
X135913810Y-120649524D01*
X136009048Y-121125715D01*
X136342381Y-119459048D02*
X135342381Y-119459048D01*
X136056667Y-119125714D01*
X135342381Y-118792381D01*
X136342381Y-118792381D01*
X136342381Y-118173334D02*
X136294762Y-118268572D01*
X136247143Y-118316191D01*
X136151905Y-118363810D01*
X135866190Y-118363810D01*
X135770952Y-118316191D01*
X135723333Y-118268572D01*
X135675714Y-118173334D01*
X135675714Y-118030476D01*
X135723333Y-117935238D01*
X135770952Y-117887619D01*
X135866190Y-117840000D01*
X136151905Y-117840000D01*
X136247143Y-117887619D01*
X136294762Y-117935238D01*
X136342381Y-118030476D01*
X136342381Y-118173334D01*
X136342381Y-117411429D02*
X135675714Y-117411429D01*
X135866190Y-117411429D02*
X135770952Y-117363810D01*
X135723333Y-117316191D01*
X135675714Y-117220953D01*
X135675714Y-117125714D01*
X135675714Y-116935238D02*
X135675714Y-116554286D01*
X135342381Y-116792381D02*
X136199524Y-116792381D01*
X136294762Y-116744762D01*
X136342381Y-116649524D01*
X136342381Y-116554286D01*
X136342381Y-115792380D02*
X135818571Y-115792380D01*
X135723333Y-115839999D01*
X135675714Y-115935237D01*
X135675714Y-116125714D01*
X135723333Y-116220952D01*
X136294762Y-115792380D02*
X136342381Y-115887618D01*
X136342381Y-116125714D01*
X136294762Y-116220952D01*
X136199524Y-116268571D01*
X136104286Y-116268571D01*
X136009048Y-116220952D01*
X135961429Y-116125714D01*
X135961429Y-115887618D01*
X135913810Y-115792380D01*
X136342381Y-115173333D02*
X136294762Y-115268571D01*
X136199524Y-115316190D01*
X135342381Y-115316190D01*
X136342381Y-114030475D02*
X135342381Y-114030475D01*
X136342381Y-113459046D02*
X135770952Y-113887618D01*
X135342381Y-113459046D02*
X135913810Y-114030475D01*
X136342381Y-112887618D02*
X136294762Y-112982856D01*
X136247143Y-113030475D01*
X136151905Y-113078094D01*
X135866190Y-113078094D01*
X135770952Y-113030475D01*
X135723333Y-112982856D01*
X135675714Y-112887618D01*
X135675714Y-112744760D01*
X135723333Y-112649522D01*
X135770952Y-112601903D01*
X135866190Y-112554284D01*
X136151905Y-112554284D01*
X136247143Y-112601903D01*
X136294762Y-112649522D01*
X136342381Y-112744760D01*
X136342381Y-112887618D01*
X136342381Y-112125713D02*
X135675714Y-112125713D01*
X135770952Y-112125713D02*
X135723333Y-112078094D01*
X135675714Y-111982856D01*
X135675714Y-111839998D01*
X135723333Y-111744760D01*
X135818571Y-111697141D01*
X136342381Y-111697141D01*
X135818571Y-111697141D02*
X135723333Y-111649522D01*
X135675714Y-111554284D01*
X135675714Y-111411427D01*
X135723333Y-111316189D01*
X135818571Y-111268570D01*
X136342381Y-111268570D01*
X136342381Y-110792380D02*
X135342381Y-110792380D01*
X135723333Y-110792380D02*
X135675714Y-110697142D01*
X135675714Y-110506665D01*
X135723333Y-110411427D01*
X135770952Y-110363808D01*
X135866190Y-110316189D01*
X136151905Y-110316189D01*
X136247143Y-110363808D01*
X136294762Y-110411427D01*
X136342381Y-110506665D01*
X136342381Y-110697142D01*
X136294762Y-110792380D01*
X136342381Y-109459046D02*
X135818571Y-109459046D01*
X135723333Y-109506665D01*
X135675714Y-109601903D01*
X135675714Y-109792380D01*
X135723333Y-109887618D01*
X136294762Y-109459046D02*
X136342381Y-109554284D01*
X136342381Y-109792380D01*
X136294762Y-109887618D01*
X136199524Y-109935237D01*
X136104286Y-109935237D01*
X136009048Y-109887618D01*
X135961429Y-109792380D01*
X135961429Y-109554284D01*
X135913810Y-109459046D01*
X135675714Y-109125713D02*
X135675714Y-108744761D01*
X135342381Y-108982856D02*
X136199524Y-108982856D01*
X136294762Y-108935237D01*
X136342381Y-108839999D01*
X136342381Y-108744761D01*
X135342381Y-107744760D02*
X135342381Y-107125712D01*
X135723333Y-107459046D01*
X135723333Y-107316188D01*
X135770952Y-107220950D01*
X135818571Y-107173331D01*
X135913810Y-107125712D01*
X136151905Y-107125712D01*
X136247143Y-107173331D01*
X136294762Y-107220950D01*
X136342381Y-107316188D01*
X136342381Y-107601903D01*
X136294762Y-107697141D01*
X136247143Y-107744760D01*
X97242381Y-143843333D02*
X97956667Y-143843333D01*
X98099524Y-143890953D01*
X98194762Y-143986191D01*
X98242381Y-144129048D01*
X98242381Y-144224286D01*
X97337619Y-143414762D02*
X97290000Y-143367143D01*
X97242381Y-143271905D01*
X97242381Y-143033809D01*
X97290000Y-142938571D01*
X97337619Y-142890952D01*
X97432857Y-142843333D01*
X97528095Y-142843333D01*
X97670952Y-142890952D01*
X98242381Y-143462381D01*
X98242381Y-142843333D01*
X98242381Y-124593811D02*
X97242381Y-124593811D01*
X97956667Y-124260477D01*
X97242381Y-123927144D01*
X98242381Y-123927144D01*
X98242381Y-123308097D02*
X98194762Y-123403335D01*
X98147143Y-123450954D01*
X98051905Y-123498573D01*
X97766190Y-123498573D01*
X97670952Y-123450954D01*
X97623333Y-123403335D01*
X97575714Y-123308097D01*
X97575714Y-123165239D01*
X97623333Y-123070001D01*
X97670952Y-123022382D01*
X97766190Y-122974763D01*
X98051905Y-122974763D01*
X98147143Y-123022382D01*
X98194762Y-123070001D01*
X98242381Y-123165239D01*
X98242381Y-123308097D01*
X98242381Y-122546192D02*
X97575714Y-122546192D01*
X97766190Y-122546192D02*
X97670952Y-122498573D01*
X97623333Y-122450954D01*
X97575714Y-122355716D01*
X97575714Y-122260477D01*
X97575714Y-122070001D02*
X97575714Y-121689049D01*
X97242381Y-121927144D02*
X98099524Y-121927144D01*
X98194762Y-121879525D01*
X98242381Y-121784287D01*
X98242381Y-121689049D01*
X98242381Y-120927143D02*
X97718571Y-120927143D01*
X97623333Y-120974762D01*
X97575714Y-121070000D01*
X97575714Y-121260477D01*
X97623333Y-121355715D01*
X98194762Y-120927143D02*
X98242381Y-121022381D01*
X98242381Y-121260477D01*
X98194762Y-121355715D01*
X98099524Y-121403334D01*
X98004286Y-121403334D01*
X97909048Y-121355715D01*
X97861429Y-121260477D01*
X97861429Y-121022381D01*
X97813810Y-120927143D01*
X98242381Y-120308096D02*
X98194762Y-120403334D01*
X98099524Y-120450953D01*
X97242381Y-120450953D01*
X98242381Y-119165238D02*
X97242381Y-119165238D01*
X98242381Y-118593809D02*
X97670952Y-119022381D01*
X97242381Y-118593809D02*
X97813810Y-119165238D01*
X98242381Y-118022381D02*
X98194762Y-118117619D01*
X98147143Y-118165238D01*
X98051905Y-118212857D01*
X97766190Y-118212857D01*
X97670952Y-118165238D01*
X97623333Y-118117619D01*
X97575714Y-118022381D01*
X97575714Y-117879523D01*
X97623333Y-117784285D01*
X97670952Y-117736666D01*
X97766190Y-117689047D01*
X98051905Y-117689047D01*
X98147143Y-117736666D01*
X98194762Y-117784285D01*
X98242381Y-117879523D01*
X98242381Y-118022381D01*
X98242381Y-117260476D02*
X97575714Y-117260476D01*
X97670952Y-117260476D02*
X97623333Y-117212857D01*
X97575714Y-117117619D01*
X97575714Y-116974761D01*
X97623333Y-116879523D01*
X97718571Y-116831904D01*
X98242381Y-116831904D01*
X97718571Y-116831904D02*
X97623333Y-116784285D01*
X97575714Y-116689047D01*
X97575714Y-116546190D01*
X97623333Y-116450952D01*
X97718571Y-116403333D01*
X98242381Y-116403333D01*
X98242381Y-115927143D02*
X97242381Y-115927143D01*
X97623333Y-115927143D02*
X97575714Y-115831905D01*
X97575714Y-115641428D01*
X97623333Y-115546190D01*
X97670952Y-115498571D01*
X97766190Y-115450952D01*
X98051905Y-115450952D01*
X98147143Y-115498571D01*
X98194762Y-115546190D01*
X98242381Y-115641428D01*
X98242381Y-115831905D01*
X98194762Y-115927143D01*
X98242381Y-114593809D02*
X97718571Y-114593809D01*
X97623333Y-114641428D01*
X97575714Y-114736666D01*
X97575714Y-114927143D01*
X97623333Y-115022381D01*
X98194762Y-114593809D02*
X98242381Y-114689047D01*
X98242381Y-114927143D01*
X98194762Y-115022381D01*
X98099524Y-115070000D01*
X98004286Y-115070000D01*
X97909048Y-115022381D01*
X97861429Y-114927143D01*
X97861429Y-114689047D01*
X97813810Y-114593809D01*
X97575714Y-114260476D02*
X97575714Y-113879524D01*
X97242381Y-114117619D02*
X98099524Y-114117619D01*
X98194762Y-114070000D01*
X98242381Y-113974762D01*
X98242381Y-113879524D01*
X98242381Y-112260475D02*
X98242381Y-112831904D01*
X98242381Y-112546190D02*
X97242381Y-112546190D01*
X97385238Y-112641428D01*
X97480476Y-112736666D01*
X97528095Y-112831904D01*
X97242381Y-111212856D02*
X97242381Y-110641427D01*
X98242381Y-110927142D02*
X97242381Y-110927142D01*
X97861429Y-110308094D02*
X97861429Y-109546189D01*
X97242381Y-109069999D02*
X98051905Y-109069999D01*
X98147143Y-109022380D01*
X98194762Y-108974761D01*
X98242381Y-108879523D01*
X98242381Y-108689046D01*
X98194762Y-108593808D01*
X98147143Y-108546189D01*
X98051905Y-108498570D01*
X97242381Y-108498570D01*
X97575714Y-108022380D02*
X98242381Y-108022380D01*
X97670952Y-108022380D02*
X97623333Y-107974761D01*
X97575714Y-107879523D01*
X97575714Y-107736665D01*
X97623333Y-107641427D01*
X97718571Y-107593808D01*
X98242381Y-107593808D01*
X98242381Y-107117618D02*
X97575714Y-107117618D01*
X97242381Y-107117618D02*
X97290000Y-107165237D01*
X97337619Y-107117618D01*
X97290000Y-107069999D01*
X97242381Y-107117618D01*
X97337619Y-107117618D01*
X97575714Y-106784285D02*
X97575714Y-106403333D01*
X97242381Y-106641428D02*
X98099524Y-106641428D01*
X98194762Y-106593809D01*
X98242381Y-106498571D01*
X98242381Y-106403333D01*
X84542381Y-136223333D02*
X85256667Y-136223333D01*
X85399524Y-136270953D01*
X85494762Y-136366191D01*
X85542381Y-136509048D01*
X85542381Y-136604286D01*
X85542381Y-135223333D02*
X85542381Y-135794762D01*
X85542381Y-135509048D02*
X84542381Y-135509048D01*
X84685238Y-135604286D01*
X84780476Y-135699524D01*
X84828095Y-135794762D01*
X85542381Y-124641430D02*
X84542381Y-124641430D01*
X85256667Y-124308096D01*
X84542381Y-123974763D01*
X85542381Y-123974763D01*
X85542381Y-123355716D02*
X85494762Y-123450954D01*
X85447143Y-123498573D01*
X85351905Y-123546192D01*
X85066190Y-123546192D01*
X84970952Y-123498573D01*
X84923333Y-123450954D01*
X84875714Y-123355716D01*
X84875714Y-123212858D01*
X84923333Y-123117620D01*
X84970952Y-123070001D01*
X85066190Y-123022382D01*
X85351905Y-123022382D01*
X85447143Y-123070001D01*
X85494762Y-123117620D01*
X85542381Y-123212858D01*
X85542381Y-123355716D01*
X85542381Y-122593811D02*
X84875714Y-122593811D01*
X85066190Y-122593811D02*
X84970952Y-122546192D01*
X84923333Y-122498573D01*
X84875714Y-122403335D01*
X84875714Y-122308096D01*
X84875714Y-122117620D02*
X84875714Y-121736668D01*
X84542381Y-121974763D02*
X85399524Y-121974763D01*
X85494762Y-121927144D01*
X85542381Y-121831906D01*
X85542381Y-121736668D01*
X85542381Y-120974762D02*
X85018571Y-120974762D01*
X84923333Y-121022381D01*
X84875714Y-121117619D01*
X84875714Y-121308096D01*
X84923333Y-121403334D01*
X85494762Y-120974762D02*
X85542381Y-121070000D01*
X85542381Y-121308096D01*
X85494762Y-121403334D01*
X85399524Y-121450953D01*
X85304286Y-121450953D01*
X85209048Y-121403334D01*
X85161429Y-121308096D01*
X85161429Y-121070000D01*
X85113810Y-120974762D01*
X85542381Y-120355715D02*
X85494762Y-120450953D01*
X85399524Y-120498572D01*
X84542381Y-120498572D01*
X85542381Y-119212857D02*
X84542381Y-119212857D01*
X85542381Y-118641428D02*
X84970952Y-119070000D01*
X84542381Y-118641428D02*
X85113810Y-119212857D01*
X85542381Y-118070000D02*
X85494762Y-118165238D01*
X85447143Y-118212857D01*
X85351905Y-118260476D01*
X85066190Y-118260476D01*
X84970952Y-118212857D01*
X84923333Y-118165238D01*
X84875714Y-118070000D01*
X84875714Y-117927142D01*
X84923333Y-117831904D01*
X84970952Y-117784285D01*
X85066190Y-117736666D01*
X85351905Y-117736666D01*
X85447143Y-117784285D01*
X85494762Y-117831904D01*
X85542381Y-117927142D01*
X85542381Y-118070000D01*
X85542381Y-117308095D02*
X84875714Y-117308095D01*
X84970952Y-117308095D02*
X84923333Y-117260476D01*
X84875714Y-117165238D01*
X84875714Y-117022380D01*
X84923333Y-116927142D01*
X85018571Y-116879523D01*
X85542381Y-116879523D01*
X85018571Y-116879523D02*
X84923333Y-116831904D01*
X84875714Y-116736666D01*
X84875714Y-116593809D01*
X84923333Y-116498571D01*
X85018571Y-116450952D01*
X85542381Y-116450952D01*
X85542381Y-115974762D02*
X84542381Y-115974762D01*
X84923333Y-115974762D02*
X84875714Y-115879524D01*
X84875714Y-115689047D01*
X84923333Y-115593809D01*
X84970952Y-115546190D01*
X85066190Y-115498571D01*
X85351905Y-115498571D01*
X85447143Y-115546190D01*
X85494762Y-115593809D01*
X85542381Y-115689047D01*
X85542381Y-115879524D01*
X85494762Y-115974762D01*
X85542381Y-114641428D02*
X85018571Y-114641428D01*
X84923333Y-114689047D01*
X84875714Y-114784285D01*
X84875714Y-114974762D01*
X84923333Y-115070000D01*
X85494762Y-114641428D02*
X85542381Y-114736666D01*
X85542381Y-114974762D01*
X85494762Y-115070000D01*
X85399524Y-115117619D01*
X85304286Y-115117619D01*
X85209048Y-115070000D01*
X85161429Y-114974762D01*
X85161429Y-114736666D01*
X85113810Y-114641428D01*
X84875714Y-114308095D02*
X84875714Y-113927143D01*
X84542381Y-114165238D02*
X85399524Y-114165238D01*
X85494762Y-114117619D01*
X85542381Y-114022381D01*
X85542381Y-113927143D01*
X85542381Y-112308094D02*
X85542381Y-112879523D01*
X85542381Y-112593809D02*
X84542381Y-112593809D01*
X84685238Y-112689047D01*
X84780476Y-112784285D01*
X84828095Y-112879523D01*
X85066190Y-110927142D02*
X85542381Y-110927142D01*
X84542381Y-111260475D02*
X85066190Y-110927142D01*
X84542381Y-110593808D01*
X85161429Y-110260475D02*
X85161429Y-109498570D01*
X84542381Y-109022380D02*
X85351905Y-109022380D01*
X85447143Y-108974761D01*
X85494762Y-108927142D01*
X85542381Y-108831904D01*
X85542381Y-108641427D01*
X85494762Y-108546189D01*
X85447143Y-108498570D01*
X85351905Y-108450951D01*
X84542381Y-108450951D01*
X84875714Y-107974761D02*
X85542381Y-107974761D01*
X84970952Y-107974761D02*
X84923333Y-107927142D01*
X84875714Y-107831904D01*
X84875714Y-107689046D01*
X84923333Y-107593808D01*
X85018571Y-107546189D01*
X85542381Y-107546189D01*
X85542381Y-107069999D02*
X84875714Y-107069999D01*
X84542381Y-107069999D02*
X84590000Y-107117618D01*
X84637619Y-107069999D01*
X84590000Y-107022380D01*
X84542381Y-107069999D01*
X84637619Y-107069999D01*
X84875714Y-106736666D02*
X84875714Y-106355714D01*
X84542381Y-106593809D02*
X85399524Y-106593809D01*
X85494762Y-106546190D01*
X85542381Y-106450952D01*
X85542381Y-106355714D01*
X109942381Y-143843333D02*
X110656667Y-143843333D01*
X110799524Y-143890953D01*
X110894762Y-143986191D01*
X110942381Y-144129048D01*
X110942381Y-144224286D01*
X109942381Y-143462381D02*
X109942381Y-142843333D01*
X110323333Y-143176667D01*
X110323333Y-143033809D01*
X110370952Y-142938571D01*
X110418571Y-142890952D01*
X110513810Y-142843333D01*
X110751905Y-142843333D01*
X110847143Y-142890952D01*
X110894762Y-142938571D01*
X110942381Y-143033809D01*
X110942381Y-143319524D01*
X110894762Y-143414762D01*
X110847143Y-143462381D01*
X110942381Y-119172858D02*
X109942381Y-119172858D01*
X110656667Y-118839524D01*
X109942381Y-118506191D01*
X110942381Y-118506191D01*
X110942381Y-117887144D02*
X110894762Y-117982382D01*
X110847143Y-118030001D01*
X110751905Y-118077620D01*
X110466190Y-118077620D01*
X110370952Y-118030001D01*
X110323333Y-117982382D01*
X110275714Y-117887144D01*
X110275714Y-117744286D01*
X110323333Y-117649048D01*
X110370952Y-117601429D01*
X110466190Y-117553810D01*
X110751905Y-117553810D01*
X110847143Y-117601429D01*
X110894762Y-117649048D01*
X110942381Y-117744286D01*
X110942381Y-117887144D01*
X110942381Y-117125239D02*
X110275714Y-117125239D01*
X110466190Y-117125239D02*
X110370952Y-117077620D01*
X110323333Y-117030001D01*
X110275714Y-116934763D01*
X110275714Y-116839524D01*
X110275714Y-116649048D02*
X110275714Y-116268096D01*
X109942381Y-116506191D02*
X110799524Y-116506191D01*
X110894762Y-116458572D01*
X110942381Y-116363334D01*
X110942381Y-116268096D01*
X110942381Y-115506190D02*
X110418571Y-115506190D01*
X110323333Y-115553809D01*
X110275714Y-115649047D01*
X110275714Y-115839524D01*
X110323333Y-115934762D01*
X110894762Y-115506190D02*
X110942381Y-115601428D01*
X110942381Y-115839524D01*
X110894762Y-115934762D01*
X110799524Y-115982381D01*
X110704286Y-115982381D01*
X110609048Y-115934762D01*
X110561429Y-115839524D01*
X110561429Y-115601428D01*
X110513810Y-115506190D01*
X110942381Y-114887143D02*
X110894762Y-114982381D01*
X110799524Y-115030000D01*
X109942381Y-115030000D01*
X110942381Y-113744285D02*
X109942381Y-113744285D01*
X110942381Y-113172856D02*
X110370952Y-113601428D01*
X109942381Y-113172856D02*
X110513810Y-113744285D01*
X110942381Y-112601428D02*
X110894762Y-112696666D01*
X110847143Y-112744285D01*
X110751905Y-112791904D01*
X110466190Y-112791904D01*
X110370952Y-112744285D01*
X110323333Y-112696666D01*
X110275714Y-112601428D01*
X110275714Y-112458570D01*
X110323333Y-112363332D01*
X110370952Y-112315713D01*
X110466190Y-112268094D01*
X110751905Y-112268094D01*
X110847143Y-112315713D01*
X110894762Y-112363332D01*
X110942381Y-112458570D01*
X110942381Y-112601428D01*
X110942381Y-111839523D02*
X110275714Y-111839523D01*
X110370952Y-111839523D02*
X110323333Y-111791904D01*
X110275714Y-111696666D01*
X110275714Y-111553808D01*
X110323333Y-111458570D01*
X110418571Y-111410951D01*
X110942381Y-111410951D01*
X110418571Y-111410951D02*
X110323333Y-111363332D01*
X110275714Y-111268094D01*
X110275714Y-111125237D01*
X110323333Y-111029999D01*
X110418571Y-110982380D01*
X110942381Y-110982380D01*
X110942381Y-110506190D02*
X109942381Y-110506190D01*
X110323333Y-110506190D02*
X110275714Y-110410952D01*
X110275714Y-110220475D01*
X110323333Y-110125237D01*
X110370952Y-110077618D01*
X110466190Y-110029999D01*
X110751905Y-110029999D01*
X110847143Y-110077618D01*
X110894762Y-110125237D01*
X110942381Y-110220475D01*
X110942381Y-110410952D01*
X110894762Y-110506190D01*
X110942381Y-109172856D02*
X110418571Y-109172856D01*
X110323333Y-109220475D01*
X110275714Y-109315713D01*
X110275714Y-109506190D01*
X110323333Y-109601428D01*
X110894762Y-109172856D02*
X110942381Y-109268094D01*
X110942381Y-109506190D01*
X110894762Y-109601428D01*
X110799524Y-109649047D01*
X110704286Y-109649047D01*
X110609048Y-109601428D01*
X110561429Y-109506190D01*
X110561429Y-109268094D01*
X110513810Y-109172856D01*
X110275714Y-108839523D02*
X110275714Y-108458571D01*
X109942381Y-108696666D02*
X110799524Y-108696666D01*
X110894762Y-108649047D01*
X110942381Y-108553809D01*
X110942381Y-108458571D01*
X110037619Y-107410951D02*
X109990000Y-107363332D01*
X109942381Y-107268094D01*
X109942381Y-107029998D01*
X109990000Y-106934760D01*
X110037619Y-106887141D01*
X110132857Y-106839522D01*
X110228095Y-106839522D01*
X110370952Y-106887141D01*
X110942381Y-107458570D01*
X110942381Y-106839522D01*
X148042381Y-143843333D02*
X148756667Y-143843333D01*
X148899524Y-143890953D01*
X148994762Y-143986191D01*
X149042381Y-144129048D01*
X149042381Y-144224286D01*
X148042381Y-142938571D02*
X148042381Y-143129048D01*
X148090000Y-143224286D01*
X148137619Y-143271905D01*
X148280476Y-143367143D01*
X148470952Y-143414762D01*
X148851905Y-143414762D01*
X148947143Y-143367143D01*
X148994762Y-143319524D01*
X149042381Y-143224286D01*
X149042381Y-143033809D01*
X148994762Y-142938571D01*
X148947143Y-142890952D01*
X148851905Y-142843333D01*
X148613810Y-142843333D01*
X148518571Y-142890952D01*
X148470952Y-142938571D01*
X148423333Y-143033809D01*
X148423333Y-143224286D01*
X148470952Y-143319524D01*
X148518571Y-143367143D01*
X148613810Y-143414762D01*
X149042381Y-119172858D02*
X148042381Y-119172858D01*
X148756667Y-118839524D01*
X148042381Y-118506191D01*
X149042381Y-118506191D01*
X149042381Y-117887144D02*
X148994762Y-117982382D01*
X148947143Y-118030001D01*
X148851905Y-118077620D01*
X148566190Y-118077620D01*
X148470952Y-118030001D01*
X148423333Y-117982382D01*
X148375714Y-117887144D01*
X148375714Y-117744286D01*
X148423333Y-117649048D01*
X148470952Y-117601429D01*
X148566190Y-117553810D01*
X148851905Y-117553810D01*
X148947143Y-117601429D01*
X148994762Y-117649048D01*
X149042381Y-117744286D01*
X149042381Y-117887144D01*
X149042381Y-117125239D02*
X148375714Y-117125239D01*
X148566190Y-117125239D02*
X148470952Y-117077620D01*
X148423333Y-117030001D01*
X148375714Y-116934763D01*
X148375714Y-116839524D01*
X148375714Y-116649048D02*
X148375714Y-116268096D01*
X148042381Y-116506191D02*
X148899524Y-116506191D01*
X148994762Y-116458572D01*
X149042381Y-116363334D01*
X149042381Y-116268096D01*
X149042381Y-115506190D02*
X148518571Y-115506190D01*
X148423333Y-115553809D01*
X148375714Y-115649047D01*
X148375714Y-115839524D01*
X148423333Y-115934762D01*
X148994762Y-115506190D02*
X149042381Y-115601428D01*
X149042381Y-115839524D01*
X148994762Y-115934762D01*
X148899524Y-115982381D01*
X148804286Y-115982381D01*
X148709048Y-115934762D01*
X148661429Y-115839524D01*
X148661429Y-115601428D01*
X148613810Y-115506190D01*
X149042381Y-114887143D02*
X148994762Y-114982381D01*
X148899524Y-115030000D01*
X148042381Y-115030000D01*
X149042381Y-113744285D02*
X148042381Y-113744285D01*
X149042381Y-113172856D02*
X148470952Y-113601428D01*
X148042381Y-113172856D02*
X148613810Y-113744285D01*
X149042381Y-112601428D02*
X148994762Y-112696666D01*
X148947143Y-112744285D01*
X148851905Y-112791904D01*
X148566190Y-112791904D01*
X148470952Y-112744285D01*
X148423333Y-112696666D01*
X148375714Y-112601428D01*
X148375714Y-112458570D01*
X148423333Y-112363332D01*
X148470952Y-112315713D01*
X148566190Y-112268094D01*
X148851905Y-112268094D01*
X148947143Y-112315713D01*
X148994762Y-112363332D01*
X149042381Y-112458570D01*
X149042381Y-112601428D01*
X149042381Y-111839523D02*
X148375714Y-111839523D01*
X148470952Y-111839523D02*
X148423333Y-111791904D01*
X148375714Y-111696666D01*
X148375714Y-111553808D01*
X148423333Y-111458570D01*
X148518571Y-111410951D01*
X149042381Y-111410951D01*
X148518571Y-111410951D02*
X148423333Y-111363332D01*
X148375714Y-111268094D01*
X148375714Y-111125237D01*
X148423333Y-111029999D01*
X148518571Y-110982380D01*
X149042381Y-110982380D01*
X149042381Y-110506190D02*
X148042381Y-110506190D01*
X148423333Y-110506190D02*
X148375714Y-110410952D01*
X148375714Y-110220475D01*
X148423333Y-110125237D01*
X148470952Y-110077618D01*
X148566190Y-110029999D01*
X148851905Y-110029999D01*
X148947143Y-110077618D01*
X148994762Y-110125237D01*
X149042381Y-110220475D01*
X149042381Y-110410952D01*
X148994762Y-110506190D01*
X149042381Y-109172856D02*
X148518571Y-109172856D01*
X148423333Y-109220475D01*
X148375714Y-109315713D01*
X148375714Y-109506190D01*
X148423333Y-109601428D01*
X148994762Y-109172856D02*
X149042381Y-109268094D01*
X149042381Y-109506190D01*
X148994762Y-109601428D01*
X148899524Y-109649047D01*
X148804286Y-109649047D01*
X148709048Y-109601428D01*
X148661429Y-109506190D01*
X148661429Y-109268094D01*
X148613810Y-109172856D01*
X148375714Y-108839523D02*
X148375714Y-108458571D01*
X148042381Y-108696666D02*
X148899524Y-108696666D01*
X148994762Y-108649047D01*
X149042381Y-108553809D01*
X149042381Y-108458571D01*
X148375714Y-106934760D02*
X149042381Y-106934760D01*
X147994762Y-107172856D02*
X148709048Y-107410951D01*
X148709048Y-106791903D01*
D13*
X93241905Y-126472381D02*
X93241905Y-125472381D01*
X93480000Y-125472381D01*
X93622858Y-125520000D01*
X93718096Y-125615238D01*
X93765715Y-125710476D01*
X93813334Y-125900952D01*
X93813334Y-126043810D01*
X93765715Y-126234286D01*
X93718096Y-126329524D01*
X93622858Y-126424762D01*
X93480000Y-126472381D01*
X93241905Y-126472381D01*
X94765715Y-126472381D02*
X94194286Y-126472381D01*
X94480000Y-126472381D02*
X94480000Y-125472381D01*
X94384762Y-125615238D01*
X94289524Y-125710476D01*
X94194286Y-125758095D01*
X118641905Y-134092381D02*
X118641905Y-133092381D01*
X118880000Y-133092381D01*
X119022858Y-133140000D01*
X119118096Y-133235238D01*
X119165715Y-133330476D01*
X119213334Y-133520952D01*
X119213334Y-133663810D01*
X119165715Y-133854286D01*
X119118096Y-133949524D01*
X119022858Y-134044762D01*
X118880000Y-134092381D01*
X118641905Y-134092381D01*
X119594286Y-133187619D02*
X119641905Y-133140000D01*
X119737143Y-133092381D01*
X119975239Y-133092381D01*
X120070477Y-133140000D01*
X120118096Y-133187619D01*
X120165715Y-133282857D01*
X120165715Y-133378095D01*
X120118096Y-133520952D01*
X119546667Y-134092381D01*
X120165715Y-134092381D01*
X144041905Y-134092381D02*
X144041905Y-133092381D01*
X144280000Y-133092381D01*
X144422858Y-133140000D01*
X144518096Y-133235238D01*
X144565715Y-133330476D01*
X144613334Y-133520952D01*
X144613334Y-133663810D01*
X144565715Y-133854286D01*
X144518096Y-133949524D01*
X144422858Y-134044762D01*
X144280000Y-134092381D01*
X144041905Y-134092381D01*
X144946667Y-133092381D02*
X145565715Y-133092381D01*
X145232381Y-133473333D01*
X145375239Y-133473333D01*
X145470477Y-133520952D01*
X145518096Y-133568571D01*
X145565715Y-133663810D01*
X145565715Y-133901905D01*
X145518096Y-133997143D01*
X145470477Y-134044762D01*
X145375239Y-134092381D01*
X145089524Y-134092381D01*
X144994286Y-134044762D01*
X144946667Y-133997143D01*
X93241905Y-132822381D02*
X93241905Y-131822381D01*
X93480000Y-131822381D01*
X93622858Y-131870000D01*
X93718096Y-131965238D01*
X93765715Y-132060476D01*
X93813334Y-132250952D01*
X93813334Y-132393810D01*
X93765715Y-132584286D01*
X93718096Y-132679524D01*
X93622858Y-132774762D01*
X93480000Y-132822381D01*
X93241905Y-132822381D01*
X94670477Y-132155714D02*
X94670477Y-132822381D01*
X94432381Y-131774762D02*
X94194286Y-132489048D01*
X94813334Y-132489048D01*
X118641905Y-140442381D02*
X118641905Y-139442381D01*
X118880000Y-139442381D01*
X119022858Y-139490000D01*
X119118096Y-139585238D01*
X119165715Y-139680476D01*
X119213334Y-139870952D01*
X119213334Y-140013810D01*
X119165715Y-140204286D01*
X119118096Y-140299524D01*
X119022858Y-140394762D01*
X118880000Y-140442381D01*
X118641905Y-140442381D01*
X120118096Y-139442381D02*
X119641905Y-139442381D01*
X119594286Y-139918571D01*
X119641905Y-139870952D01*
X119737143Y-139823333D01*
X119975239Y-139823333D01*
X120070477Y-139870952D01*
X120118096Y-139918571D01*
X120165715Y-140013810D01*
X120165715Y-140251905D01*
X120118096Y-140347143D01*
X120070477Y-140394762D01*
X119975239Y-140442381D01*
X119737143Y-140442381D01*
X119641905Y-140394762D01*
X119594286Y-140347143D01*
X93241905Y-120122381D02*
X93241905Y-119122381D01*
X93480000Y-119122381D01*
X93622858Y-119170000D01*
X93718096Y-119265238D01*
X93765715Y-119360476D01*
X93813334Y-119550952D01*
X93813334Y-119693810D01*
X93765715Y-119884286D01*
X93718096Y-119979524D01*
X93622858Y-120074762D01*
X93480000Y-120122381D01*
X93241905Y-120122381D01*
X94670477Y-119122381D02*
X94480000Y-119122381D01*
X94384762Y-119170000D01*
X94337143Y-119217619D01*
X94241905Y-119360476D01*
X94194286Y-119550952D01*
X94194286Y-119931905D01*
X94241905Y-120027143D01*
X94289524Y-120074762D01*
X94384762Y-120122381D01*
X94575239Y-120122381D01*
X94670477Y-120074762D01*
X94718096Y-120027143D01*
X94765715Y-119931905D01*
X94765715Y-119693810D01*
X94718096Y-119598571D01*
X94670477Y-119550952D01*
X94575239Y-119503333D01*
X94384762Y-119503333D01*
X94289524Y-119550952D01*
X94241905Y-119598571D01*
X94194286Y-119693810D01*
X93241905Y-113772381D02*
X93241905Y-112772381D01*
X93480000Y-112772381D01*
X93622858Y-112820000D01*
X93718096Y-112915238D01*
X93765715Y-113010476D01*
X93813334Y-113200952D01*
X93813334Y-113343810D01*
X93765715Y-113534286D01*
X93718096Y-113629524D01*
X93622858Y-113724762D01*
X93480000Y-113772381D01*
X93241905Y-113772381D01*
X94146667Y-112772381D02*
X94813334Y-112772381D01*
X94384762Y-113772381D01*
X118641905Y-121392381D02*
X118641905Y-120392381D01*
X118880000Y-120392381D01*
X119022858Y-120440000D01*
X119118096Y-120535238D01*
X119165715Y-120630476D01*
X119213334Y-120820952D01*
X119213334Y-120963810D01*
X119165715Y-121154286D01*
X119118096Y-121249524D01*
X119022858Y-121344762D01*
X118880000Y-121392381D01*
X118641905Y-121392381D01*
X119784762Y-120820952D02*
X119689524Y-120773333D01*
X119641905Y-120725714D01*
X119594286Y-120630476D01*
X119594286Y-120582857D01*
X119641905Y-120487619D01*
X119689524Y-120440000D01*
X119784762Y-120392381D01*
X119975239Y-120392381D01*
X120070477Y-120440000D01*
X120118096Y-120487619D01*
X120165715Y-120582857D01*
X120165715Y-120630476D01*
X120118096Y-120725714D01*
X120070477Y-120773333D01*
X119975239Y-120820952D01*
X119784762Y-120820952D01*
X119689524Y-120868571D01*
X119641905Y-120916190D01*
X119594286Y-121011429D01*
X119594286Y-121201905D01*
X119641905Y-121297143D01*
X119689524Y-121344762D01*
X119784762Y-121392381D01*
X119975239Y-121392381D01*
X120070477Y-121344762D01*
X120118096Y-121297143D01*
X120165715Y-121201905D01*
X120165715Y-121011429D01*
X120118096Y-120916190D01*
X120070477Y-120868571D01*
X119975239Y-120820952D01*
X144041905Y-121392381D02*
X144041905Y-120392381D01*
X144280000Y-120392381D01*
X144422858Y-120440000D01*
X144518096Y-120535238D01*
X144565715Y-120630476D01*
X144613334Y-120820952D01*
X144613334Y-120963810D01*
X144565715Y-121154286D01*
X144518096Y-121249524D01*
X144422858Y-121344762D01*
X144280000Y-121392381D01*
X144041905Y-121392381D01*
X145089524Y-121392381D02*
X145280000Y-121392381D01*
X145375239Y-121344762D01*
X145422858Y-121297143D01*
X145518096Y-121154286D01*
X145565715Y-120963810D01*
X145565715Y-120582857D01*
X145518096Y-120487619D01*
X145470477Y-120440000D01*
X145375239Y-120392381D01*
X145184762Y-120392381D01*
X145089524Y-120440000D01*
X145041905Y-120487619D01*
X144994286Y-120582857D01*
X144994286Y-120820952D01*
X145041905Y-120916190D01*
X145089524Y-120963810D01*
X145184762Y-121011429D01*
X145375239Y-121011429D01*
X145470477Y-120963810D01*
X145518096Y-120916190D01*
X145565715Y-120820952D01*
X130865714Y-134092381D02*
X130865714Y-133092381D01*
X131103809Y-133092381D01*
X131246667Y-133140000D01*
X131341905Y-133235238D01*
X131389524Y-133330476D01*
X131437143Y-133520952D01*
X131437143Y-133663810D01*
X131389524Y-133854286D01*
X131341905Y-133949524D01*
X131246667Y-134044762D01*
X131103809Y-134092381D01*
X130865714Y-134092381D01*
X132389524Y-134092381D02*
X131818095Y-134092381D01*
X132103809Y-134092381D02*
X132103809Y-133092381D01*
X132008571Y-133235238D01*
X131913333Y-133330476D01*
X131818095Y-133378095D01*
X133008571Y-133092381D02*
X133103810Y-133092381D01*
X133199048Y-133140000D01*
X133246667Y-133187619D01*
X133294286Y-133282857D01*
X133341905Y-133473333D01*
X133341905Y-133711429D01*
X133294286Y-133901905D01*
X133246667Y-133997143D01*
X133199048Y-134044762D01*
X133103810Y-134092381D01*
X133008571Y-134092381D01*
X132913333Y-134044762D01*
X132865714Y-133997143D01*
X132818095Y-133901905D01*
X132770476Y-133711429D01*
X132770476Y-133473333D01*
X132818095Y-133282857D01*
X132865714Y-133187619D01*
X132913333Y-133140000D01*
X133008571Y-133092381D01*
X118165714Y-127742381D02*
X118165714Y-126742381D01*
X118403809Y-126742381D01*
X118546667Y-126790000D01*
X118641905Y-126885238D01*
X118689524Y-126980476D01*
X118737143Y-127170952D01*
X118737143Y-127313810D01*
X118689524Y-127504286D01*
X118641905Y-127599524D01*
X118546667Y-127694762D01*
X118403809Y-127742381D01*
X118165714Y-127742381D01*
X119689524Y-127742381D02*
X119118095Y-127742381D01*
X119403809Y-127742381D02*
X119403809Y-126742381D01*
X119308571Y-126885238D01*
X119213333Y-126980476D01*
X119118095Y-127028095D01*
X120641905Y-127742381D02*
X120070476Y-127742381D01*
X120356190Y-127742381D02*
X120356190Y-126742381D01*
X120260952Y-126885238D01*
X120165714Y-126980476D01*
X120070476Y-127028095D01*
X130865714Y-140442381D02*
X130865714Y-139442381D01*
X131103809Y-139442381D01*
X131246667Y-139490000D01*
X131341905Y-139585238D01*
X131389524Y-139680476D01*
X131437143Y-139870952D01*
X131437143Y-140013810D01*
X131389524Y-140204286D01*
X131341905Y-140299524D01*
X131246667Y-140394762D01*
X131103809Y-140442381D01*
X130865714Y-140442381D01*
X132389524Y-140442381D02*
X131818095Y-140442381D01*
X132103809Y-140442381D02*
X132103809Y-139442381D01*
X132008571Y-139585238D01*
X131913333Y-139680476D01*
X131818095Y-139728095D01*
X132770476Y-139537619D02*
X132818095Y-139490000D01*
X132913333Y-139442381D01*
X133151429Y-139442381D01*
X133246667Y-139490000D01*
X133294286Y-139537619D01*
X133341905Y-139632857D01*
X133341905Y-139728095D01*
X133294286Y-139870952D01*
X132722857Y-140442381D01*
X133341905Y-140442381D01*
X143565714Y-127742381D02*
X143565714Y-126742381D01*
X143803809Y-126742381D01*
X143946667Y-126790000D01*
X144041905Y-126885238D01*
X144089524Y-126980476D01*
X144137143Y-127170952D01*
X144137143Y-127313810D01*
X144089524Y-127504286D01*
X144041905Y-127599524D01*
X143946667Y-127694762D01*
X143803809Y-127742381D01*
X143565714Y-127742381D01*
X145089524Y-127742381D02*
X144518095Y-127742381D01*
X144803809Y-127742381D02*
X144803809Y-126742381D01*
X144708571Y-126885238D01*
X144613333Y-126980476D01*
X144518095Y-127028095D01*
X145422857Y-126742381D02*
X146041905Y-126742381D01*
X145708571Y-127123333D01*
X145851429Y-127123333D01*
X145946667Y-127170952D01*
X145994286Y-127218571D01*
X146041905Y-127313810D01*
X146041905Y-127551905D01*
X145994286Y-127647143D01*
X145946667Y-127694762D01*
X145851429Y-127742381D01*
X145565714Y-127742381D01*
X145470476Y-127694762D01*
X145422857Y-127647143D01*
X143565714Y-140442381D02*
X143565714Y-139442381D01*
X143803809Y-139442381D01*
X143946667Y-139490000D01*
X144041905Y-139585238D01*
X144089524Y-139680476D01*
X144137143Y-139870952D01*
X144137143Y-140013810D01*
X144089524Y-140204286D01*
X144041905Y-140299524D01*
X143946667Y-140394762D01*
X143803809Y-140442381D01*
X143565714Y-140442381D01*
X145089524Y-140442381D02*
X144518095Y-140442381D01*
X144803809Y-140442381D02*
X144803809Y-139442381D01*
X144708571Y-139585238D01*
X144613333Y-139680476D01*
X144518095Y-139728095D01*
X145946667Y-139775714D02*
X145946667Y-140442381D01*
X145708571Y-139394762D02*
X145470476Y-140109048D01*
X146089524Y-140109048D01*
X156342381Y-119419523D02*
X157056667Y-119419523D01*
X157199524Y-119467143D01*
X157294762Y-119562381D01*
X157342381Y-119705238D01*
X157342381Y-119800476D01*
X156342381Y-118514761D02*
X156342381Y-118705238D01*
X156390000Y-118800476D01*
X156437619Y-118848095D01*
X156580476Y-118943333D01*
X156770952Y-118990952D01*
X157151905Y-118990952D01*
X157247143Y-118943333D01*
X157294762Y-118895714D01*
X157342381Y-118800476D01*
X157342381Y-118609999D01*
X157294762Y-118514761D01*
X157247143Y-118467142D01*
X157151905Y-118419523D01*
X156913810Y-118419523D01*
X156818571Y-118467142D01*
X156770952Y-118514761D01*
X156723333Y-118609999D01*
X156723333Y-118800476D01*
X156770952Y-118895714D01*
X156818571Y-118943333D01*
X156913810Y-118990952D01*
X157342381Y-117990952D02*
X156342381Y-117990952D01*
X156342381Y-117752857D01*
X156390000Y-117609999D01*
X156485238Y-117514761D01*
X156580476Y-117467142D01*
X156770952Y-117419523D01*
X156913810Y-117419523D01*
X157104286Y-117467142D01*
X157199524Y-117514761D01*
X157294762Y-117609999D01*
X157342381Y-117752857D01*
X157342381Y-117990952D01*
X156342381Y-117086190D02*
X156342381Y-116467142D01*
X156723333Y-116800476D01*
X156723333Y-116657618D01*
X156770952Y-116562380D01*
X156818571Y-116514761D01*
X156913810Y-116467142D01*
X157151905Y-116467142D01*
X157247143Y-116514761D01*
X157294762Y-116562380D01*
X157342381Y-116657618D01*
X157342381Y-116943333D01*
X157294762Y-117038571D01*
X157247143Y-117086190D01*
X156342381Y-134659523D02*
X157056667Y-134659523D01*
X157199524Y-134707143D01*
X157294762Y-134802381D01*
X157342381Y-134945238D01*
X157342381Y-135040476D01*
X156342381Y-133754761D02*
X156342381Y-133945238D01*
X156390000Y-134040476D01*
X156437619Y-134088095D01*
X156580476Y-134183333D01*
X156770952Y-134230952D01*
X157151905Y-134230952D01*
X157247143Y-134183333D01*
X157294762Y-134135714D01*
X157342381Y-134040476D01*
X157342381Y-133849999D01*
X157294762Y-133754761D01*
X157247143Y-133707142D01*
X157151905Y-133659523D01*
X156913810Y-133659523D01*
X156818571Y-133707142D01*
X156770952Y-133754761D01*
X156723333Y-133849999D01*
X156723333Y-134040476D01*
X156770952Y-134135714D01*
X156818571Y-134183333D01*
X156913810Y-134230952D01*
X157342381Y-133230952D02*
X156342381Y-133230952D01*
X156342381Y-132992857D01*
X156390000Y-132849999D01*
X156485238Y-132754761D01*
X156580476Y-132707142D01*
X156770952Y-132659523D01*
X156913810Y-132659523D01*
X157104286Y-132707142D01*
X157199524Y-132754761D01*
X157294762Y-132849999D01*
X157342381Y-132992857D01*
X157342381Y-133230952D01*
X156342381Y-131802380D02*
X156342381Y-131992857D01*
X156390000Y-132088095D01*
X156437619Y-132135714D01*
X156580476Y-132230952D01*
X156770952Y-132278571D01*
X157151905Y-132278571D01*
X157247143Y-132230952D01*
X157294762Y-132183333D01*
X157342381Y-132088095D01*
X157342381Y-131897618D01*
X157294762Y-131802380D01*
X157247143Y-131754761D01*
X157151905Y-131707142D01*
X156913810Y-131707142D01*
X156818571Y-131754761D01*
X156770952Y-131802380D01*
X156723333Y-131897618D01*
X156723333Y-132088095D01*
X156770952Y-132183333D01*
X156818571Y-132230952D01*
X156913810Y-132278571D01*
X103401905Y-99512381D02*
X103401905Y-98512381D01*
X103782858Y-98512381D01*
X103878096Y-98560000D01*
X103925715Y-98607619D01*
X103973334Y-98702857D01*
X103973334Y-98845714D01*
X103925715Y-98940952D01*
X103878096Y-98988571D01*
X103782858Y-99036190D01*
X103401905Y-99036190D01*
X104925715Y-99512381D02*
X104354286Y-99512381D01*
X104640000Y-99512381D02*
X104640000Y-98512381D01*
X104544762Y-98655238D01*
X104449524Y-98750476D01*
X104354286Y-98798095D01*
D11*
X126111904Y-98512381D02*
X126683333Y-98512381D01*
X126397618Y-99512381D02*
X126397618Y-98512381D01*
X127207142Y-98512381D02*
X127397619Y-98512381D01*
X127492857Y-98560000D01*
X127588095Y-98655238D01*
X127635714Y-98845714D01*
X127635714Y-99179048D01*
X127588095Y-99369524D01*
X127492857Y-99464762D01*
X127397619Y-99512381D01*
X127207142Y-99512381D01*
X127111904Y-99464762D01*
X127016666Y-99369524D01*
X126969047Y-99179048D01*
X126969047Y-98845714D01*
X127016666Y-98655238D01*
X127111904Y-98560000D01*
X127207142Y-98512381D01*
X129397619Y-99417143D02*
X129350000Y-99464762D01*
X129207143Y-99512381D01*
X129111905Y-99512381D01*
X128969047Y-99464762D01*
X128873809Y-99369524D01*
X128826190Y-99274286D01*
X128778571Y-99083810D01*
X128778571Y-98940952D01*
X128826190Y-98750476D01*
X128873809Y-98655238D01*
X128969047Y-98560000D01*
X129111905Y-98512381D01*
X129207143Y-98512381D01*
X129350000Y-98560000D01*
X129397619Y-98607619D01*
X130016666Y-98512381D02*
X130207143Y-98512381D01*
X130302381Y-98560000D01*
X130397619Y-98655238D01*
X130445238Y-98845714D01*
X130445238Y-99179048D01*
X130397619Y-99369524D01*
X130302381Y-99464762D01*
X130207143Y-99512381D01*
X130016666Y-99512381D01*
X129921428Y-99464762D01*
X129826190Y-99369524D01*
X129778571Y-99179048D01*
X129778571Y-98845714D01*
X129826190Y-98655238D01*
X129921428Y-98560000D01*
X130016666Y-98512381D01*
X130873809Y-99512381D02*
X130873809Y-98512381D01*
X131445238Y-99512381D01*
X131445238Y-98512381D01*
X131778571Y-98512381D02*
X132350000Y-98512381D01*
X132064285Y-99512381D02*
X132064285Y-98512381D01*
X133254762Y-99512381D02*
X132921428Y-99036190D01*
X132683333Y-99512381D02*
X132683333Y-98512381D01*
X133064286Y-98512381D01*
X133159524Y-98560000D01*
X133207143Y-98607619D01*
X133254762Y-98702857D01*
X133254762Y-98845714D01*
X133207143Y-98940952D01*
X133159524Y-98988571D01*
X133064286Y-99036190D01*
X132683333Y-99036190D01*
X133873809Y-98512381D02*
X134064286Y-98512381D01*
X134159524Y-98560000D01*
X134254762Y-98655238D01*
X134302381Y-98845714D01*
X134302381Y-99179048D01*
X134254762Y-99369524D01*
X134159524Y-99464762D01*
X134064286Y-99512381D01*
X133873809Y-99512381D01*
X133778571Y-99464762D01*
X133683333Y-99369524D01*
X133635714Y-99179048D01*
X133635714Y-98845714D01*
X133683333Y-98655238D01*
X133778571Y-98560000D01*
X133873809Y-98512381D01*
X135207143Y-99512381D02*
X134730952Y-99512381D01*
X134730952Y-98512381D01*
X136302381Y-99512381D02*
X136302381Y-98512381D01*
X136683334Y-98512381D01*
X136778572Y-98560000D01*
X136826191Y-98607619D01*
X136873810Y-98702857D01*
X136873810Y-98845714D01*
X136826191Y-98940952D01*
X136778572Y-98988571D01*
X136683334Y-99036190D01*
X136302381Y-99036190D01*
X137254762Y-99226667D02*
X137730953Y-99226667D01*
X137159524Y-99512381D02*
X137492857Y-98512381D01*
X137826191Y-99512381D01*
X138159524Y-99512381D02*
X138159524Y-98512381D01*
X138730953Y-99512381D01*
X138730953Y-98512381D01*
X139207143Y-98988571D02*
X139540477Y-98988571D01*
X139683334Y-99512381D02*
X139207143Y-99512381D01*
X139207143Y-98512381D01*
X139683334Y-98512381D01*
X140588096Y-99512381D02*
X140111905Y-99512381D01*
X140111905Y-98512381D01*
M02*
