G04 #@! TF.FileFunction,Legend,Bot*
%FSLAX46Y46*%
G04 Gerber Fmt 4.6, Leading zero omitted, Abs format (unit mm)*
G04 Created by KiCad (PCBNEW 4.0.5) date 2017 January 23, Monday 23:43:52*
%MOMM*%
%LPD*%
G01*
G04 APERTURE LIST*
%ADD10C,0.020000*%
%ADD11C,0.300000*%
%ADD12C,0.250000*%
%ADD13C,0.150000*%
G04 APERTURE END LIST*
D10*
D11*
X153078571Y-119154144D02*
X152364286Y-118654144D01*
X153078571Y-118297001D02*
X151578571Y-118297001D01*
X151578571Y-118868429D01*
X151650000Y-119011287D01*
X151721429Y-119082715D01*
X151864286Y-119154144D01*
X152078571Y-119154144D01*
X152221429Y-119082715D01*
X152292857Y-119011287D01*
X152364286Y-118868429D01*
X152364286Y-118297001D01*
X153007143Y-120368429D02*
X153078571Y-120225572D01*
X153078571Y-119939858D01*
X153007143Y-119797001D01*
X152864286Y-119725572D01*
X152292857Y-119725572D01*
X152150000Y-119797001D01*
X152078571Y-119939858D01*
X152078571Y-120225572D01*
X152150000Y-120368429D01*
X152292857Y-120439858D01*
X152435714Y-120439858D01*
X152578571Y-119725572D01*
X152078571Y-120939858D02*
X153078571Y-121297001D01*
X152078571Y-121654143D01*
X152935714Y-122225572D02*
X153007143Y-122297000D01*
X153078571Y-122225572D01*
X153007143Y-122154143D01*
X152935714Y-122225572D01*
X153078571Y-122225572D01*
X151721429Y-122868429D02*
X151650000Y-122939858D01*
X151578571Y-123082715D01*
X151578571Y-123439858D01*
X151650000Y-123582715D01*
X151721429Y-123654144D01*
X151864286Y-123725572D01*
X152007143Y-123725572D01*
X152221429Y-123654144D01*
X153078571Y-122797001D01*
X153078571Y-123725572D01*
X152935714Y-124368429D02*
X153007143Y-124439857D01*
X153078571Y-124368429D01*
X153007143Y-124297000D01*
X152935714Y-124368429D01*
X153078571Y-124368429D01*
X153078571Y-125868429D02*
X153078571Y-125011286D01*
X153078571Y-125439858D02*
X151578571Y-125439858D01*
X151792857Y-125297001D01*
X151935714Y-125154143D01*
X152007143Y-125011286D01*
D12*
X112438571Y-108356522D02*
X110938571Y-108356522D01*
X110938571Y-108594617D01*
X111010000Y-108737475D01*
X111152857Y-108832713D01*
X111295714Y-108880332D01*
X111581429Y-108927951D01*
X111795714Y-108927951D01*
X112081429Y-108880332D01*
X112224286Y-108832713D01*
X112367143Y-108737475D01*
X112438571Y-108594617D01*
X112438571Y-108356522D01*
X112367143Y-109737475D02*
X112438571Y-109642237D01*
X112438571Y-109451760D01*
X112367143Y-109356522D01*
X112224286Y-109308903D01*
X111652857Y-109308903D01*
X111510000Y-109356522D01*
X111438571Y-109451760D01*
X111438571Y-109642237D01*
X111510000Y-109737475D01*
X111652857Y-109785094D01*
X111795714Y-109785094D01*
X111938571Y-109308903D01*
X112367143Y-110166046D02*
X112438571Y-110261284D01*
X112438571Y-110451760D01*
X112367143Y-110546999D01*
X112224286Y-110594618D01*
X112152857Y-110594618D01*
X112010000Y-110546999D01*
X111938571Y-110451760D01*
X111938571Y-110308903D01*
X111867143Y-110213665D01*
X111724286Y-110166046D01*
X111652857Y-110166046D01*
X111510000Y-110213665D01*
X111438571Y-110308903D01*
X111438571Y-110451760D01*
X111510000Y-110546999D01*
X112438571Y-111023189D02*
X111438571Y-111023189D01*
X110938571Y-111023189D02*
X111010000Y-110975570D01*
X111081429Y-111023189D01*
X111010000Y-111070808D01*
X110938571Y-111023189D01*
X111081429Y-111023189D01*
X111438571Y-111927951D02*
X112652857Y-111927951D01*
X112795714Y-111880332D01*
X112867143Y-111832713D01*
X112938571Y-111737474D01*
X112938571Y-111594617D01*
X112867143Y-111499379D01*
X112367143Y-111927951D02*
X112438571Y-111832713D01*
X112438571Y-111642236D01*
X112367143Y-111546998D01*
X112295714Y-111499379D01*
X112152857Y-111451760D01*
X111724286Y-111451760D01*
X111581429Y-111499379D01*
X111510000Y-111546998D01*
X111438571Y-111642236D01*
X111438571Y-111832713D01*
X111510000Y-111927951D01*
X111438571Y-112404141D02*
X112438571Y-112404141D01*
X111581429Y-112404141D02*
X111510000Y-112451760D01*
X111438571Y-112546998D01*
X111438571Y-112689856D01*
X111510000Y-112785094D01*
X111652857Y-112832713D01*
X112438571Y-112832713D01*
X112367143Y-113689856D02*
X112438571Y-113594618D01*
X112438571Y-113404141D01*
X112367143Y-113308903D01*
X112224286Y-113261284D01*
X111652857Y-113261284D01*
X111510000Y-113308903D01*
X111438571Y-113404141D01*
X111438571Y-113594618D01*
X111510000Y-113689856D01*
X111652857Y-113737475D01*
X111795714Y-113737475D01*
X111938571Y-113261284D01*
X112438571Y-114594618D02*
X110938571Y-114594618D01*
X112367143Y-114594618D02*
X112438571Y-114499380D01*
X112438571Y-114308903D01*
X112367143Y-114213665D01*
X112295714Y-114166046D01*
X112152857Y-114118427D01*
X111724286Y-114118427D01*
X111581429Y-114166046D01*
X111510000Y-114213665D01*
X111438571Y-114308903D01*
X111438571Y-114499380D01*
X111510000Y-114594618D01*
X112438571Y-116261285D02*
X111652857Y-116261285D01*
X111510000Y-116213666D01*
X111438571Y-116118428D01*
X111438571Y-115927951D01*
X111510000Y-115832713D01*
X112367143Y-116261285D02*
X112438571Y-116166047D01*
X112438571Y-115927951D01*
X112367143Y-115832713D01*
X112224286Y-115785094D01*
X112081429Y-115785094D01*
X111938571Y-115832713D01*
X111867143Y-115927951D01*
X111867143Y-116166047D01*
X111795714Y-116261285D01*
X111438571Y-116737475D02*
X112438571Y-116737475D01*
X111581429Y-116737475D02*
X111510000Y-116785094D01*
X111438571Y-116880332D01*
X111438571Y-117023190D01*
X111510000Y-117118428D01*
X111652857Y-117166047D01*
X112438571Y-117166047D01*
X112438571Y-118070809D02*
X110938571Y-118070809D01*
X112367143Y-118070809D02*
X112438571Y-117975571D01*
X112438571Y-117785094D01*
X112367143Y-117689856D01*
X112295714Y-117642237D01*
X112152857Y-117594618D01*
X111724286Y-117594618D01*
X111581429Y-117642237D01*
X111510000Y-117689856D01*
X111438571Y-117785094D01*
X111438571Y-117975571D01*
X111510000Y-118070809D01*
X112438571Y-119737476D02*
X111652857Y-119737476D01*
X111510000Y-119689857D01*
X111438571Y-119594619D01*
X111438571Y-119404142D01*
X111510000Y-119308904D01*
X112367143Y-119737476D02*
X112438571Y-119642238D01*
X112438571Y-119404142D01*
X112367143Y-119308904D01*
X112224286Y-119261285D01*
X112081429Y-119261285D01*
X111938571Y-119308904D01*
X111867143Y-119404142D01*
X111867143Y-119642238D01*
X111795714Y-119737476D01*
X112367143Y-120166047D02*
X112438571Y-120261285D01*
X112438571Y-120451761D01*
X112367143Y-120547000D01*
X112224286Y-120594619D01*
X112152857Y-120594619D01*
X112010000Y-120547000D01*
X111938571Y-120451761D01*
X111938571Y-120308904D01*
X111867143Y-120213666D01*
X111724286Y-120166047D01*
X111652857Y-120166047D01*
X111510000Y-120213666D01*
X111438571Y-120308904D01*
X111438571Y-120451761D01*
X111510000Y-120547000D01*
X112367143Y-120975571D02*
X112438571Y-121070809D01*
X112438571Y-121261285D01*
X112367143Y-121356524D01*
X112224286Y-121404143D01*
X112152857Y-121404143D01*
X112010000Y-121356524D01*
X111938571Y-121261285D01*
X111938571Y-121118428D01*
X111867143Y-121023190D01*
X111724286Y-120975571D01*
X111652857Y-120975571D01*
X111510000Y-121023190D01*
X111438571Y-121118428D01*
X111438571Y-121261285D01*
X111510000Y-121356524D01*
X112367143Y-122213667D02*
X112438571Y-122118429D01*
X112438571Y-121927952D01*
X112367143Y-121832714D01*
X112224286Y-121785095D01*
X111652857Y-121785095D01*
X111510000Y-121832714D01*
X111438571Y-121927952D01*
X111438571Y-122118429D01*
X111510000Y-122213667D01*
X111652857Y-122261286D01*
X111795714Y-122261286D01*
X111938571Y-121785095D01*
X112438571Y-122689857D02*
X111438571Y-122689857D01*
X111581429Y-122689857D02*
X111510000Y-122737476D01*
X111438571Y-122832714D01*
X111438571Y-122975572D01*
X111510000Y-123070810D01*
X111652857Y-123118429D01*
X112438571Y-123118429D01*
X111652857Y-123118429D02*
X111510000Y-123166048D01*
X111438571Y-123261286D01*
X111438571Y-123404143D01*
X111510000Y-123499381D01*
X111652857Y-123547000D01*
X112438571Y-123547000D01*
X112438571Y-124023190D02*
X110938571Y-124023190D01*
X111510000Y-124023190D02*
X111438571Y-124118428D01*
X111438571Y-124308905D01*
X111510000Y-124404143D01*
X111581429Y-124451762D01*
X111724286Y-124499381D01*
X112152857Y-124499381D01*
X112295714Y-124451762D01*
X112367143Y-124404143D01*
X112438571Y-124308905D01*
X112438571Y-124118428D01*
X112367143Y-124023190D01*
X112438571Y-125070809D02*
X112367143Y-124975571D01*
X112224286Y-124927952D01*
X110938571Y-124927952D01*
X112367143Y-125832715D02*
X112438571Y-125737477D01*
X112438571Y-125547000D01*
X112367143Y-125451762D01*
X112224286Y-125404143D01*
X111652857Y-125404143D01*
X111510000Y-125451762D01*
X111438571Y-125547000D01*
X111438571Y-125737477D01*
X111510000Y-125832715D01*
X111652857Y-125880334D01*
X111795714Y-125880334D01*
X111938571Y-125404143D01*
X112438571Y-126737477D02*
X110938571Y-126737477D01*
X112367143Y-126737477D02*
X112438571Y-126642239D01*
X112438571Y-126451762D01*
X112367143Y-126356524D01*
X112295714Y-126308905D01*
X112152857Y-126261286D01*
X111724286Y-126261286D01*
X111581429Y-126308905D01*
X111510000Y-126356524D01*
X111438571Y-126451762D01*
X111438571Y-126642239D01*
X111510000Y-126737477D01*
X112438571Y-127975572D02*
X110938571Y-127975572D01*
X111510000Y-127975572D02*
X111438571Y-128070810D01*
X111438571Y-128261287D01*
X111510000Y-128356525D01*
X111581429Y-128404144D01*
X111724286Y-128451763D01*
X112152857Y-128451763D01*
X112295714Y-128404144D01*
X112367143Y-128356525D01*
X112438571Y-128261287D01*
X112438571Y-128070810D01*
X112367143Y-127975572D01*
X111438571Y-128785096D02*
X112438571Y-129023191D01*
X111438571Y-129261287D02*
X112438571Y-129023191D01*
X112795714Y-128927953D01*
X112867143Y-128880334D01*
X112938571Y-128785096D01*
X112438571Y-130832716D02*
X110938571Y-130832716D01*
X112367143Y-130832716D02*
X112438571Y-130737478D01*
X112438571Y-130547001D01*
X112367143Y-130451763D01*
X112295714Y-130404144D01*
X112152857Y-130356525D01*
X111724286Y-130356525D01*
X111581429Y-130404144D01*
X111510000Y-130451763D01*
X111438571Y-130547001D01*
X111438571Y-130737478D01*
X111510000Y-130832716D01*
X112438571Y-131308906D02*
X111438571Y-131308906D01*
X111581429Y-131308906D02*
X111510000Y-131356525D01*
X111438571Y-131451763D01*
X111438571Y-131594621D01*
X111510000Y-131689859D01*
X111652857Y-131737478D01*
X112438571Y-131737478D01*
X111652857Y-131737478D02*
X111510000Y-131785097D01*
X111438571Y-131880335D01*
X111438571Y-132023192D01*
X111510000Y-132118430D01*
X111652857Y-132166049D01*
X112438571Y-132166049D01*
X112438571Y-132642239D02*
X110938571Y-132642239D01*
X111867143Y-132737477D02*
X112438571Y-133023192D01*
X111438571Y-133023192D02*
X112010000Y-132642239D01*
X111438571Y-133308906D02*
X111438571Y-133689858D01*
X112438571Y-133451763D02*
X111152857Y-133451763D01*
X111010000Y-133499382D01*
X110938571Y-133594620D01*
X110938571Y-133689858D01*
X112438571Y-134451764D02*
X111652857Y-134451764D01*
X111510000Y-134404145D01*
X111438571Y-134308907D01*
X111438571Y-134118430D01*
X111510000Y-134023192D01*
X112367143Y-134451764D02*
X112438571Y-134356526D01*
X112438571Y-134118430D01*
X112367143Y-134023192D01*
X112224286Y-133975573D01*
X112081429Y-133975573D01*
X111938571Y-134023192D01*
X111867143Y-134118430D01*
X111867143Y-134356526D01*
X111795714Y-134451764D01*
X112367143Y-134880335D02*
X112438571Y-134975573D01*
X112438571Y-135166049D01*
X112367143Y-135261288D01*
X112224286Y-135308907D01*
X112152857Y-135308907D01*
X112010000Y-135261288D01*
X111938571Y-135166049D01*
X111938571Y-135023192D01*
X111867143Y-134927954D01*
X111724286Y-134880335D01*
X111652857Y-134880335D01*
X111510000Y-134927954D01*
X111438571Y-135023192D01*
X111438571Y-135166049D01*
X111510000Y-135261288D01*
X112438571Y-135737478D02*
X111438571Y-135737478D01*
X110938571Y-135737478D02*
X111010000Y-135689859D01*
X111081429Y-135737478D01*
X111010000Y-135785097D01*
X110938571Y-135737478D01*
X111081429Y-135737478D01*
X97515238Y-105047000D02*
X95315238Y-105047000D01*
X96886667Y-105397000D01*
X95315238Y-105747000D01*
X97515238Y-105747000D01*
X96048571Y-106697000D02*
X97515238Y-106697000D01*
X96048571Y-106247000D02*
X97200952Y-106247000D01*
X97410476Y-106297000D01*
X97515238Y-106397000D01*
X97515238Y-106547000D01*
X97410476Y-106647000D01*
X97305714Y-106697000D01*
X97515238Y-107347000D02*
X97410476Y-107247000D01*
X97200952Y-107197000D01*
X95315238Y-107197000D01*
X96048571Y-107597000D02*
X96048571Y-107997000D01*
X95315238Y-107747000D02*
X97200952Y-107747000D01*
X97410476Y-107797000D01*
X97515238Y-107897000D01*
X97515238Y-107997000D01*
X97515238Y-108347000D02*
X96048571Y-108347000D01*
X95315238Y-108347000D02*
X95420000Y-108297000D01*
X95524762Y-108347000D01*
X95420000Y-108397000D01*
X95315238Y-108347000D01*
X95524762Y-108347000D01*
X97515238Y-109647000D02*
X95315238Y-109647000D01*
X96886667Y-109997000D01*
X95315238Y-110347000D01*
X97515238Y-110347000D01*
X97515238Y-110997000D02*
X97410476Y-110897000D01*
X97305714Y-110847000D01*
X97096190Y-110797000D01*
X96467619Y-110797000D01*
X96258095Y-110847000D01*
X96153333Y-110897000D01*
X96048571Y-110997000D01*
X96048571Y-111147000D01*
X96153333Y-111247000D01*
X96258095Y-111297000D01*
X96467619Y-111347000D01*
X97096190Y-111347000D01*
X97305714Y-111297000D01*
X97410476Y-111247000D01*
X97515238Y-111147000D01*
X97515238Y-110997000D01*
X97515238Y-111797000D02*
X96048571Y-111797000D01*
X96467619Y-111797000D02*
X96258095Y-111847000D01*
X96153333Y-111897000D01*
X96048571Y-111997000D01*
X96048571Y-112097000D01*
X96048571Y-112297000D02*
X96048571Y-112697000D01*
X95315238Y-112447000D02*
X97200952Y-112447000D01*
X97410476Y-112497000D01*
X97515238Y-112597000D01*
X97515238Y-112697000D01*
X97515238Y-113497000D02*
X96362857Y-113497000D01*
X96153333Y-113447000D01*
X96048571Y-113347000D01*
X96048571Y-113147000D01*
X96153333Y-113047000D01*
X97410476Y-113497000D02*
X97515238Y-113397000D01*
X97515238Y-113147000D01*
X97410476Y-113047000D01*
X97200952Y-112997000D01*
X96991429Y-112997000D01*
X96781905Y-113047000D01*
X96677143Y-113147000D01*
X96677143Y-113397000D01*
X96572381Y-113497000D01*
X97515238Y-114147000D02*
X97410476Y-114047000D01*
X97200952Y-113997000D01*
X95315238Y-113997000D01*
X97515238Y-115347000D02*
X95315238Y-115347000D01*
X97515238Y-115947000D02*
X96258095Y-115497000D01*
X95315238Y-115947000D02*
X96572381Y-115347000D01*
X97515238Y-116547000D02*
X97410476Y-116447000D01*
X97305714Y-116397000D01*
X97096190Y-116347000D01*
X96467619Y-116347000D01*
X96258095Y-116397000D01*
X96153333Y-116447000D01*
X96048571Y-116547000D01*
X96048571Y-116697000D01*
X96153333Y-116797000D01*
X96258095Y-116847000D01*
X96467619Y-116897000D01*
X97096190Y-116897000D01*
X97305714Y-116847000D01*
X97410476Y-116797000D01*
X97515238Y-116697000D01*
X97515238Y-116547000D01*
X97515238Y-117347000D02*
X96048571Y-117347000D01*
X96258095Y-117347000D02*
X96153333Y-117397000D01*
X96048571Y-117497000D01*
X96048571Y-117647000D01*
X96153333Y-117747000D01*
X96362857Y-117797000D01*
X97515238Y-117797000D01*
X96362857Y-117797000D02*
X96153333Y-117847000D01*
X96048571Y-117947000D01*
X96048571Y-118097000D01*
X96153333Y-118197000D01*
X96362857Y-118247000D01*
X97515238Y-118247000D01*
X97515238Y-118747000D02*
X95315238Y-118747000D01*
X96153333Y-118747000D02*
X96048571Y-118847000D01*
X96048571Y-119047000D01*
X96153333Y-119147000D01*
X96258095Y-119197000D01*
X96467619Y-119247000D01*
X97096190Y-119247000D01*
X97305714Y-119197000D01*
X97410476Y-119147000D01*
X97515238Y-119047000D01*
X97515238Y-118847000D01*
X97410476Y-118747000D01*
X97515238Y-120147000D02*
X96362857Y-120147000D01*
X96153333Y-120097000D01*
X96048571Y-119997000D01*
X96048571Y-119797000D01*
X96153333Y-119697000D01*
X97410476Y-120147000D02*
X97515238Y-120047000D01*
X97515238Y-119797000D01*
X97410476Y-119697000D01*
X97200952Y-119647000D01*
X96991429Y-119647000D01*
X96781905Y-119697000D01*
X96677143Y-119797000D01*
X96677143Y-120047000D01*
X96572381Y-120147000D01*
X96048571Y-120497000D02*
X96048571Y-120897000D01*
X95315238Y-120647000D02*
X97200952Y-120647000D01*
X97410476Y-120697000D01*
X97515238Y-120797000D01*
X97515238Y-120897000D01*
X97410476Y-122447000D02*
X97515238Y-122347000D01*
X97515238Y-122147000D01*
X97410476Y-122047000D01*
X97200952Y-121997000D01*
X96362857Y-121997000D01*
X96153333Y-122047000D01*
X96048571Y-122147000D01*
X96048571Y-122347000D01*
X96153333Y-122447000D01*
X96362857Y-122497000D01*
X96572381Y-122497000D01*
X96781905Y-121997000D01*
X97515238Y-122847000D02*
X96048571Y-123397000D01*
X96048571Y-122847000D02*
X97515238Y-123397000D01*
X96048571Y-123647000D02*
X96048571Y-124047000D01*
X95315238Y-123797000D02*
X97200952Y-123797000D01*
X97410476Y-123847000D01*
X97515238Y-123947000D01*
X97515238Y-124047000D01*
X97515238Y-124397000D02*
X96048571Y-124397000D01*
X96467619Y-124397000D02*
X96258095Y-124447000D01*
X96153333Y-124497000D01*
X96048571Y-124597000D01*
X96048571Y-124697000D01*
X97515238Y-125497000D02*
X96362857Y-125497000D01*
X96153333Y-125447000D01*
X96048571Y-125347000D01*
X96048571Y-125147000D01*
X96153333Y-125047000D01*
X97410476Y-125497000D02*
X97515238Y-125397000D01*
X97515238Y-125147000D01*
X97410476Y-125047000D01*
X97200952Y-124997000D01*
X96991429Y-124997000D01*
X96781905Y-125047000D01*
X96677143Y-125147000D01*
X96677143Y-125397000D01*
X96572381Y-125497000D01*
X97515238Y-126797000D02*
X95315238Y-126797000D01*
X96153333Y-126797000D02*
X96048571Y-126897000D01*
X96048571Y-127097000D01*
X96153333Y-127197000D01*
X96258095Y-127247000D01*
X96467619Y-127297000D01*
X97096190Y-127297000D01*
X97305714Y-127247000D01*
X97410476Y-127197000D01*
X97515238Y-127097000D01*
X97515238Y-126897000D01*
X97410476Y-126797000D01*
X96048571Y-128197000D02*
X97515238Y-128197000D01*
X96048571Y-127747000D02*
X97200952Y-127747000D01*
X97410476Y-127797000D01*
X97515238Y-127897000D01*
X97515238Y-128047000D01*
X97410476Y-128147000D01*
X97305714Y-128197000D01*
X96048571Y-128547000D02*
X96048571Y-128947000D01*
X95315238Y-128697000D02*
X97200952Y-128697000D01*
X97410476Y-128747000D01*
X97515238Y-128847000D01*
X97515238Y-128947000D01*
X96048571Y-129147000D02*
X96048571Y-129547000D01*
X95315238Y-129297000D02*
X97200952Y-129297000D01*
X97410476Y-129347000D01*
X97515238Y-129447000D01*
X97515238Y-129547000D01*
X97515238Y-130047000D02*
X97410476Y-129947000D01*
X97305714Y-129897000D01*
X97096190Y-129847000D01*
X96467619Y-129847000D01*
X96258095Y-129897000D01*
X96153333Y-129947000D01*
X96048571Y-130047000D01*
X96048571Y-130197000D01*
X96153333Y-130297000D01*
X96258095Y-130347000D01*
X96467619Y-130397000D01*
X97096190Y-130397000D01*
X97305714Y-130347000D01*
X97410476Y-130297000D01*
X97515238Y-130197000D01*
X97515238Y-130047000D01*
X96048571Y-130847000D02*
X97515238Y-130847000D01*
X96258095Y-130847000D02*
X96153333Y-130897000D01*
X96048571Y-130997000D01*
X96048571Y-131147000D01*
X96153333Y-131247000D01*
X96362857Y-131297000D01*
X97515238Y-131297000D01*
X97410476Y-131747000D02*
X97515238Y-131847000D01*
X97515238Y-132047000D01*
X97410476Y-132147000D01*
X97200952Y-132197000D01*
X97096190Y-132197000D01*
X96886667Y-132147000D01*
X96781905Y-132047000D01*
X96781905Y-131897000D01*
X96677143Y-131797000D01*
X96467619Y-131747000D01*
X96362857Y-131747000D01*
X96153333Y-131797000D01*
X96048571Y-131897000D01*
X96048571Y-132047000D01*
X96153333Y-132147000D01*
X97515238Y-133447000D02*
X95315238Y-133447000D01*
X97515238Y-133897000D02*
X96362857Y-133897000D01*
X96153333Y-133847000D01*
X96048571Y-133747000D01*
X96048571Y-133597000D01*
X96153333Y-133497000D01*
X96258095Y-133447000D01*
X97515238Y-134847000D02*
X96362857Y-134847000D01*
X96153333Y-134797000D01*
X96048571Y-134697000D01*
X96048571Y-134497000D01*
X96153333Y-134397000D01*
X97410476Y-134847000D02*
X97515238Y-134747000D01*
X97515238Y-134497000D01*
X97410476Y-134397000D01*
X97200952Y-134347000D01*
X96991429Y-134347000D01*
X96781905Y-134397000D01*
X96677143Y-134497000D01*
X96677143Y-134747000D01*
X96572381Y-134847000D01*
X97515238Y-135347000D02*
X96048571Y-135347000D01*
X96467619Y-135347000D02*
X96258095Y-135397000D01*
X96153333Y-135447000D01*
X96048571Y-135547000D01*
X96048571Y-135647000D01*
X96048571Y-135997000D02*
X97515238Y-135997000D01*
X96258095Y-135997000D02*
X96153333Y-136047000D01*
X96048571Y-136147000D01*
X96048571Y-136297000D01*
X96153333Y-136397000D01*
X96362857Y-136447000D01*
X97515238Y-136447000D01*
X97410476Y-137347000D02*
X97515238Y-137247000D01*
X97515238Y-137047000D01*
X97410476Y-136947000D01*
X97200952Y-136897000D01*
X96362857Y-136897000D01*
X96153333Y-136947000D01*
X96048571Y-137047000D01*
X96048571Y-137247000D01*
X96153333Y-137347000D01*
X96362857Y-137397000D01*
X96572381Y-137397000D01*
X96781905Y-136897000D01*
X97410476Y-137797000D02*
X97515238Y-137897000D01*
X97515238Y-138097000D01*
X97410476Y-138197000D01*
X97200952Y-138247000D01*
X97096190Y-138247000D01*
X96886667Y-138197000D01*
X96781905Y-138097000D01*
X96781905Y-137947000D01*
X96677143Y-137847000D01*
X96467619Y-137797000D01*
X96362857Y-137797000D01*
X96153333Y-137847000D01*
X96048571Y-137947000D01*
X96048571Y-138097000D01*
X96153333Y-138197000D01*
X97410476Y-138647000D02*
X97515238Y-138747000D01*
X97515238Y-138947000D01*
X97410476Y-139047000D01*
X97200952Y-139097000D01*
X97096190Y-139097000D01*
X96886667Y-139047000D01*
X96781905Y-138947000D01*
X96781905Y-138797000D01*
X96677143Y-138697000D01*
X96467619Y-138647000D01*
X96362857Y-138647000D01*
X96153333Y-138697000D01*
X96048571Y-138797000D01*
X96048571Y-138947000D01*
X96153333Y-139047000D01*
D13*
X127149860Y-124858780D02*
X128620520Y-125219460D01*
X128620520Y-125219460D02*
X127558800Y-125498860D01*
X127558800Y-125498860D02*
X128630680Y-125808740D01*
X128630680Y-125808740D02*
X127180340Y-126149100D01*
X127840740Y-123438920D02*
X127830580Y-124228860D01*
X127830580Y-124228860D02*
X127840740Y-124239020D01*
X127840740Y-124239020D02*
X127830580Y-124239020D01*
X127119380Y-124279660D02*
X128661160Y-124279660D01*
X127109220Y-123390660D02*
X128678940Y-123390660D01*
X128678940Y-123390660D02*
X128668780Y-123400820D01*
X127210820Y-122839480D02*
X127129540Y-122488960D01*
X127129540Y-122488960D02*
X127119380Y-122168920D01*
X127119380Y-122168920D02*
X127320040Y-121930160D01*
X127320040Y-121930160D02*
X127589280Y-121899680D01*
X127589280Y-121899680D02*
X127830580Y-122140980D01*
X127830580Y-122140980D02*
X127960120Y-122529600D01*
X127960120Y-122529600D02*
X128120140Y-122709940D01*
X128120140Y-122709940D02*
X128419860Y-122750580D01*
X128419860Y-122750580D02*
X128640840Y-122519440D01*
X128640840Y-122519440D02*
X128668780Y-122199400D01*
X128668780Y-122199400D02*
X128559560Y-121848880D01*
X127109220Y-120810020D02*
X127129540Y-120561100D01*
X127129540Y-120561100D02*
X127370840Y-120319800D01*
X127370840Y-120319800D02*
X127861060Y-120230900D01*
X127861060Y-120230900D02*
X128209040Y-120258840D01*
X128209040Y-120258840D02*
X128529080Y-120459500D01*
X128529080Y-120459500D02*
X128651000Y-120710960D01*
X128651000Y-120710960D02*
X128579880Y-121020840D01*
X128579880Y-121020840D02*
X128399540Y-121239280D01*
X128399540Y-121239280D02*
X127939800Y-121310400D01*
X127939800Y-121310400D02*
X127530860Y-121259600D01*
X127530860Y-121259600D02*
X127248920Y-121150380D01*
X127248920Y-121150380D02*
X127119380Y-120789700D01*
X125389640Y-121409460D02*
X125950980Y-121150380D01*
X125950980Y-121150380D02*
X126469140Y-121688860D01*
X126469140Y-121688860D02*
X126199900Y-122209560D01*
X126199900Y-122209560D02*
X126359920Y-122488960D01*
X126339600Y-123929140D02*
X126149100Y-124259340D01*
X126149100Y-124259340D02*
X126479300Y-124698760D01*
X126479300Y-124698760D02*
X125989080Y-125171200D01*
X125989080Y-125171200D02*
X125509020Y-124889260D01*
X125509020Y-124889260D02*
X125039120Y-125079760D01*
X125039120Y-125079760D02*
X124851160Y-125689360D01*
X124851160Y-125689360D02*
X124170440Y-125689360D01*
X124170440Y-125689360D02*
X124030740Y-125130560D01*
X124030740Y-125130560D02*
X123459240Y-124929900D01*
X123459240Y-124929900D02*
X122989340Y-125199140D01*
X122989340Y-125199140D02*
X122478800Y-124729240D01*
X122478800Y-124729240D02*
X122740420Y-124211080D01*
X122740420Y-124211080D02*
X122539760Y-123741180D01*
X122539760Y-123741180D02*
X121998740Y-123571000D01*
X121998740Y-123571000D02*
X121980960Y-122880120D01*
X121980960Y-122880120D02*
X122529600Y-122669300D01*
X122529600Y-122669300D02*
X122699780Y-122250200D01*
X122699780Y-122250200D02*
X122430540Y-121699020D01*
X122430540Y-121699020D02*
X122958860Y-121180860D01*
X122958860Y-121180860D02*
X123499880Y-121429780D01*
X123499880Y-121429780D02*
X123979940Y-121259600D01*
X123979940Y-121259600D02*
X124079000Y-120710960D01*
X124079000Y-120710960D02*
X124780040Y-120700800D01*
X124780040Y-120700800D02*
X124980700Y-121259600D01*
X124980700Y-121259600D02*
X125379480Y-121399300D01*
X125359160Y-123540520D02*
X125209300Y-123840240D01*
X125209300Y-123840240D02*
X125011180Y-124040900D01*
X125011180Y-124040900D02*
X124609860Y-124190760D01*
X124609860Y-124190760D02*
X124211080Y-124190760D01*
X124211080Y-124190760D02*
X123860560Y-124040900D01*
X123860560Y-124040900D02*
X123510040Y-123588780D01*
X123510040Y-123588780D02*
X123459240Y-123139200D01*
X123459240Y-123139200D02*
X123560840Y-122740420D01*
X123560840Y-122740420D02*
X123908820Y-122339100D01*
X123908820Y-122339100D02*
X124360940Y-122189240D01*
X124360940Y-122189240D02*
X124858780Y-122240040D01*
X124858780Y-122240040D02*
X125161040Y-122488960D01*
X125161040Y-122488960D02*
X125359160Y-122839480D01*
X125359160Y-122839480D02*
X126359920Y-122488960D01*
X125359160Y-123540520D02*
X126359920Y-123939300D01*
M02*
