M48
;DRILL file {KiCad 4.0.5} date 2017 January 23, Monday 23:44:03
;FORMAT={2:4/ absolute / inch / suppress leading zeros}
FMAT,2
INCH,TZ
T1C0.016
T2C0.040
T3C0.138
%
G90
G05
M72
T1
X49000Y-48500
X49000Y-50500
X49000Y-52500
X49500Y-46500
X54500Y-46500
X54500Y-55000
X60000Y-50500
T2
X35500Y-42450
X35500Y-43450
X35500Y-44450
X35500Y-45450
X35500Y-46450
X35500Y-47450
X35500Y-48450
X35500Y-49450
X35500Y-50450
X35500Y-51450
X35500Y-52450
X35500Y-53450
X41000Y-42500
X41000Y-43500
X41000Y-44500
X41000Y-45500
X41000Y-46500
X41000Y-47500
X41000Y-48500
X41000Y-49500
X41000Y-50500
X41000Y-51500
X41000Y-52500
X41000Y-53500
X41000Y-54500
X41000Y-55500
X41000Y-56500
X42500Y-39550
X43500Y-39550
X44500Y-39550
X45500Y-39550
X46500Y-39550
X46500Y-42500
X46500Y-43500
X46500Y-44500
X46500Y-45500
X46500Y-46500
X46500Y-47500
X46500Y-48500
X46500Y-49500
X46500Y-50500
X46500Y-51500
X46500Y-52500
X46500Y-53500
X46500Y-54500
X46500Y-55500
X46500Y-56500
X47500Y-39550
X48500Y-39550
X49500Y-39550
X50500Y-39550
X51500Y-39550
X52000Y-42500
X52000Y-43500
X52000Y-44500
X52000Y-45500
X52000Y-46500
X52000Y-47500
X52000Y-48500
X52000Y-49500
X52000Y-50500
X52000Y-51500
X52000Y-52500
X52000Y-53500
X52000Y-54500
X52000Y-55500
X52000Y-56500
X52500Y-39550
X53500Y-39550
X54500Y-39550
X55500Y-39550
X56500Y-39550
X57500Y-42500
X57500Y-43500
X57500Y-44500
X57500Y-45500
X57500Y-46500
X57500Y-47500
X57500Y-48500
X57500Y-49500
X57500Y-50500
X57500Y-51500
X57500Y-52500
X57500Y-53500
X57500Y-54500
X57500Y-55500
X57500Y-56500
X63000Y-42500
X63000Y-43500
X63000Y-44500
X63000Y-45500
X63000Y-46500
X63000Y-47500
X63000Y-48500
X63000Y-49500
X63000Y-50500
X63000Y-51500
X63000Y-52500
X63000Y-53500
X63000Y-54500
X63000Y-55500
X63000Y-56500
T3
X32500Y-39500
X32500Y-56500
X67000Y-39500
X67000Y-56450
T0
M30
